<svg width="215" height="275" viewBox="0 0 215 275" fill="none" xmlns="http://www.w3.org/2000/svg">
<path opacity="0.15" d="M258.616 164.023L256.695 164.029L256.207 165.888C254.329 173.036 251.772 179.9 248.594 186.416L247.809 188.027L249.082 189.288L277.595 217.538L235.442 260.143L208.851 233.797L207.466 232.424L205.797 233.434C199.255 237.394 192.27 240.677 184.94 243.226L183.25 243.814L183.262 245.604L183.515 284.086L123.6 284.483L123.362 248.292L123.349 246.364L121.482 245.886C113.691 243.892 106.239 241.047 99.1969 237.479L97.5658 236.653L96.2841 237.957L69.9344 264.765L27.2187 222.723L52.6661 196.833L54.0031 195.472L53.0443 193.824C49.0984 187.037 45.8414 179.795 43.3568 172.189L42.7878 170.448L40.9556 170.466L3.1199 170.841L2.5247 110.888L38.8908 110.527L40.8118 110.508L41.288 108.647C43.2721 100.891 46.0783 93.4681 49.5722 86.4463L50.3828 84.8172L49.0818 83.5451L22.0548 57.1194L63.9261 14.2367L89.7609 39.4946L91.1328 40.8358L92.7833 39.8576C100.019 35.5693 107.751 32.0634 115.892 29.5076L117.643 28.9578V27.1224V-10.5H177.558V26.4021V28.2821L179.364 28.8039C186.849 30.9663 194.014 33.8862 200.762 37.5042L202.401 38.3834L203.714 37.0652L231.097 9.57495L273.531 51.8991L246.321 79.2216L244.996 80.5515L245.904 82.1945C249.414 88.5494 252.324 95.2873 254.574 102.33L255.131 104.076L256.963 104.07L297.293 103.938L297.492 163.896L258.616 164.023ZM92.5828 137C92.5828 168.737 118.295 194.464 150.01 194.464C181.725 194.464 207.437 168.737 207.437 137C207.437 105.263 181.73 79.5362 150.01 79.5362C118.29 79.5362 92.5828 105.263 92.5828 137Z" stroke="#1E1E1E" stroke-width="5"/>
</svg>
