<svg width="215" height="269" viewBox="0 0 215 269" fill="none" xmlns="http://www.w3.org/2000/svg">
<g opacity="0.15">
<path d="M0.176431 207.49C-0.364429 198.672 0.369476 189.764 1.95001 180.973C2.74123 176.573 3.80001 172.202 5.1665 167.902C6.53489 163.602 8.21861 159.38 10.1814 155.254C12.2053 151.155 14.5904 147.206 17.2871 143.43C20.0373 139.686 23.2098 136.232 26.6633 133.029L29.3771 130.762C29.8358 130.392 30.2773 129.994 30.7532 129.646L32.2038 128.628C33.1784 127.961 34.1264 127.242 35.1335 126.621L38.1972 124.819C39.2044 124.184 40.2842 123.697 41.3506 123.177C42.4227 122.672 43.4777 122.116 44.569 121.658L47.8829 120.373L49.5495 119.748L51.2485 119.248L54.6561 118.254C55.7952 117.94 56.9552 117.745 58.1058 117.489C59.262 117.258 60.4087 116.983 61.5764 116.792C62.748 116.631 63.9234 116.411 65.0968 116.303C69.7983 115.762 74.4997 115.679 79.1381 115.869C88.4302 116.243 97.4547 117.835 106.246 119.798C115.045 121.772 123.609 124.264 132.087 126.753C140.553 129.285 148.909 131.921 157.261 134.315C165.595 136.756 173.92 139.011 182.268 140.739C190.603 142.518 198.974 143.743 207.291 144.125C215.607 144.527 223.869 143.944 231.844 142.176C239.81 140.385 247.466 137.325 254.503 133.035C258.016 130.887 261.406 128.486 264.636 125.841L267.025 123.81C267.806 123.116 268.563 122.393 269.337 121.686L269.914 121.153L270.153 120.933L270.388 120.696C270.717 120.354 271.065 119.993 271.405 119.615C272.089 118.867 272.764 118.08 273.425 117.281C276.082 114.074 278.505 110.594 280.762 107.003C283.031 103.416 285.053 99.6544 286.905 95.8015C290.614 88.0918 293.473 79.9254 295.553 71.5029C297.603 63.0709 298.763 54.377 299.258 45.5703C299.742 49.9545 299.973 54.377 300 58.8204C299.954 63.2582 299.687 67.7112 299.188 72.1546C298.161 81.0377 296.04 89.8424 292.936 98.3414C289.794 106.831 285.71 115.011 280.39 122.583C279.719 123.531 279.035 124.471 278.303 125.405C277.939 125.874 277.567 126.34 277.162 126.816L276.84 127.187L276.498 127.554L275.904 128.18C275.109 129.012 274.325 129.858 273.515 130.678L271.032 133.088C267.654 136.24 264.051 139.2 260.185 141.83C256.328 144.469 252.24 146.816 247.965 148.798C243.684 150.763 239.223 152.347 234.676 153.57C225.575 156.049 216.148 156.903 206.903 156.75C197.64 156.584 188.539 155.336 179.65 153.628C170.763 151.86 162.09 149.557 153.544 147.097C145.012 144.584 136.603 141.912 128.255 139.311C119.919 136.674 111.609 134.183 103.311 132.051C86.7503 127.869 69.8996 125.159 54.0847 129.291C46.1552 131.147 38.7992 134.805 32.2592 139.71C29.0541 142.252 26.0555 145.09 23.3015 148.211C20.5953 151.371 18.1261 154.774 15.8996 158.373C13.7056 161.995 11.7657 165.798 10.0266 169.721C8.27596 173.643 6.84259 177.72 5.51624 181.85C4.21282 185.987 3.13493 190.215 2.25006 194.494C1.32505 198.769 0.623643 203.104 0.176431 207.49Z" fill="#1E1E1E"/>
<path d="M258.142 3.87098C253.76 3.39319 249.373 3.17149 244.999 3.18105C240.628 3.15238 236.271 3.32248 231.951 3.73338C227.636 4.16721 223.349 4.71763 219.148 5.61015C214.948 6.4912 210.823 7.59394 206.823 8.98144C202.839 10.4072 198.993 12.1119 195.339 14.0976C191.714 16.1388 188.31 18.4799 185.154 21.0829C178.991 26.4533 173.875 32.8825 170.404 40.2481C163.06 54.8513 162.188 71.897 162.819 88.9656C163.172 97.5276 163.87 106.172 164.709 114.877C165.508 123.584 166.364 132.366 167.04 141.234C167.66 150.106 168.099 159.069 167.973 168.128C167.788 177.179 167.107 186.339 165.334 195.433C163.553 204.505 160.747 213.547 156.422 221.929C154.274 226.12 151.793 230.151 148.978 233.927C146.148 237.694 142.998 241.201 139.611 244.422C136.233 247.652 132.584 250.557 128.796 253.203L125.92 255.128C124.949 255.749 123.957 256.338 122.977 256.942L122.241 257.391L121.811 257.649L121.381 257.886C120.83 258.182 120.295 258.45 119.762 258.708C118.696 259.227 117.633 259.701 116.567 260.16C108.05 263.78 99.1979 266.066 90.2384 267.365C81.2789 268.625 72.2257 268.86 63.3235 268.007C58.8743 267.566 54.4652 266.899 50.1154 266.016C45.7751 265.062 41.498 263.912 37.3125 262.522C46.0293 263.877 54.7729 264.562 63.4477 264.317C72.1186 264.044 80.7017 262.952 89.0153 260.936C93.1701 259.931 97.2715 258.738 101.254 257.269C105.237 255.812 109.146 254.169 112.838 252.24C113.757 251.759 114.669 251.266 115.542 250.751C115.982 250.499 116.408 250.234 116.811 249.983L117.092 249.804L117.356 249.616L117.998 249.163C118.852 248.556 119.716 247.965 120.559 247.346L123.045 245.435C126.306 242.828 129.362 240.015 132.196 237.027C137.863 231.042 142.453 224.196 145.869 216.779C149.265 209.35 151.56 201.392 152.905 193.176C154.268 184.962 154.821 176.518 154.821 167.996C154.876 159.47 154.41 150.859 153.764 142.197C153.165 133.53 152.334 124.808 151.627 115.999C150.966 107.189 150.318 98.294 150.224 89.2752C150.142 80.266 150.471 71.1077 152.046 61.9436C152.831 57.3664 153.892 52.7873 155.403 48.3037C155.755 47.178 156.214 46.0752 156.617 44.963C157.047 43.8602 157.557 42.7976 158.024 41.714C158.517 40.6418 158.947 39.5486 159.493 38.4994L161.177 35.3746L162.022 33.817L162.981 32.3187L164.929 29.3449C165.605 28.374 166.37 27.4567 167.086 26.5145C167.818 25.5818 168.52 24.6281 169.349 23.7739L171.751 21.1537C172.569 20.2994 173.47 19.5215 174.326 18.7074L175.625 17.5033C176.065 17.1115 176.547 16.7637 177.005 16.391L179.788 14.2104C183.641 11.5023 187.683 9.12095 191.918 7.21361C196.174 5.36551 200.534 3.85761 204.966 2.73385C209.413 1.67698 213.893 0.912498 218.384 0.47293C222.875 0.0352731 227.37 -0.0870324 231.839 0.0582162C240.766 0.356358 249.631 1.49923 258.142 3.87098Z" fill="#1E1E1E"/>
<path d="M210.177 1.62294L208.605 3.19238L292.846 87.5286L294.418 85.9592L210.177 1.62294Z" fill="#1E1E1E"/>
<path d="M195.106 13.0779L193.551 14.6602L284.341 103.923L285.897 102.341L195.106 13.0779Z" fill="#1E1E1E"/>
<path d="M178.831 25.6678L177.273 27.248L274.358 122.928L275.915 121.348L178.831 25.6678Z" fill="#1E1E1E"/>
<path d="M164.511 41.0943L162.957 42.6777L258.773 136.734L260.327 135.151L164.511 41.0943Z" fill="#1E1E1E"/>
<path d="M159.712 62.912L158.141 64.4814L242.382 148.818L243.953 147.248L159.712 62.912Z" fill="#1E1E1E"/>
<path d="M157.33 89.1149L155.797 90.7188L222.287 154.293L223.821 152.689L157.33 89.1149Z" fill="#1E1E1E"/>
<path d="M1.78301 195.633L0.164062 197.153L65.7346 266.987L67.3535 265.467L1.78301 195.633Z" fill="#1E1E1E"/>
<path d="M7.14398 173.486L5.53906 175.019L89.9247 263.413L91.5296 261.881L7.14398 173.486Z" fill="#1E1E1E"/>
<path d="M14.8099 154.328L13.207 155.862L109.851 256.825L111.454 255.29L14.8099 154.328Z" fill="#1E1E1E"/>
<path d="M29.4396 138.274L27.8242 139.795L126.675 244.759L128.291 243.238L29.4396 138.274Z" fill="#1E1E1E"/>
<path d="M47.275 128.405L45.6641 129.931L140.723 230.283L142.334 228.758L47.275 128.405Z" fill="#1E1E1E"/>
<path d="M69.1045 123.813L67.5156 125.361L150.718 210.721L152.307 209.173L69.1045 123.813Z" fill="#1E1E1E"/>
<path d="M95.3701 121.761L93.7461 123.272L156.428 190.6L158.052 189.088L95.3701 121.761Z" fill="#1E1E1E"/>
</g>
</svg>
