<svg width="213" height="275" viewBox="0 0 213 275" fill="none" xmlns="http://www.w3.org/2000/svg">
<g opacity="0.15">
<path d="M149.668 13.9878L111.238 0.0871869L174.347 -5.68945L149.668 13.9878Z" stroke="#1E1E1E" stroke-width="2" stroke-linecap="round" stroke-linejoin="round"/>
<path d="M111.244 0.0859375L149.674 13.9865L101.25 36.5148L111.244 0.0859375Z" stroke="#1E1E1E" stroke-width="2" stroke-linecap="round" stroke-linejoin="round"/>
<path d="M111.238 0.0859375L101.244 36.5148L61.4727 29.8559L111.238 0.0859375Z" stroke="#1E1E1E" stroke-width="2" stroke-linecap="round" stroke-linejoin="round"/>
<path d="M101.25 36.5156L149.674 13.9873L158.175 53.2597L101.25 36.5156Z" stroke="#1E1E1E" stroke-width="2" stroke-linecap="round" stroke-linejoin="round"/>
<path d="M111.238 0.0859375L61.4727 29.8559L77.9836 4.6104L111.238 0.0859375Z" stroke="#1E1E1E" stroke-width="2" stroke-linecap="round" stroke-linejoin="round"/>
<path d="M111.237 0.0867778L77.9824 4.61124L135.698 -13L111.237 0.0867778Z" stroke="#1E1E1E" stroke-width="2" stroke-linecap="round" stroke-linejoin="round"/>
<path d="M77.9839 4.61035L61.473 29.8559L29.5605 46.2837L77.9839 4.61035Z" stroke="#1E1E1E" stroke-width="2" stroke-linecap="round" stroke-linejoin="round"/>
<path d="M61.475 29.8564L101.247 36.5153L59.3496 72.5695L61.475 29.8564Z" stroke="#1E1E1E" stroke-width="2" stroke-linecap="round" stroke-linejoin="round"/>
<path d="M61.4713 29.8564L59.3459 72.5695L20.916 77.8121L61.4713 29.8564Z" stroke="#1E1E1E" stroke-width="2" stroke-linecap="round" stroke-linejoin="round"/>
<path d="M59.3496 72.5698L101.247 36.5156L109.132 83.856L59.3496 72.5698Z" stroke="#1E1E1E" stroke-width="2" stroke-linecap="round" stroke-linejoin="round"/>
<path d="M29.5589 46.2842L61.4713 29.8564L20.916 77.8121L29.5589 46.2842Z" stroke="#1E1E1E" stroke-width="2" stroke-linecap="round" stroke-linejoin="round"/>
<path d="M29.5641 46.2842L20.9213 77.8121L3.03516 102.682L29.5641 46.2842Z" stroke="#1E1E1E" stroke-width="2" stroke-linecap="round" stroke-linejoin="round"/>
<path d="M20.916 77.812L59.3459 72.5693L29.601 117.309L20.916 77.812Z" stroke="#1E1E1E" stroke-width="2" stroke-linecap="round" stroke-linejoin="round"/>
<path d="M20.9163 77.8125L29.6013 117.31L5.66406 139.463L20.9163 77.8125Z" stroke="#1E1E1E" stroke-width="2" stroke-linecap="round" stroke-linejoin="round"/>
<path d="M29.6055 117.309L59.3503 72.5693L67.8518 130.986L29.6055 117.309Z" stroke="#1E1E1E" stroke-width="2" stroke-linecap="round" stroke-linejoin="round"/>
<path d="M101.25 36.5156L158.175 53.2597L109.135 83.856L101.25 36.5156Z" stroke="#1E1E1E" stroke-width="2" stroke-linecap="round" stroke-linejoin="round"/>
<path d="M158.173 53.2597L149.672 13.9873L203.354 27.1809L158.173 53.2597Z" stroke="#1E1E1E" stroke-width="2" stroke-linecap="round" stroke-linejoin="round"/>
<path d="M59.3496 72.5693L109.132 83.8555L67.8511 130.986L59.3496 72.5693Z" stroke="#1E1E1E" stroke-width="2" stroke-linecap="round" stroke-linejoin="round"/>
<path d="M109.133 83.856L158.172 53.2598L165.532 103.808L109.133 83.856Z" stroke="#1E1E1E" stroke-width="2" stroke-linecap="round" stroke-linejoin="round"/>
<path d="M109.133 83.8564L165.532 103.808L117.108 145.481L109.133 83.8564Z" stroke="#1E1E1E" stroke-width="2" stroke-linecap="round" stroke-linejoin="round"/>
<path d="M165.533 103.808L158.174 53.2598L212.814 74.3788L165.533 103.808Z" stroke="#1E1E1E" stroke-width="2" stroke-linecap="round" stroke-linejoin="round"/>
<path d="M29.6055 117.31L67.8518 130.986L34.6725 172.326L29.6055 117.31Z" stroke="#1E1E1E" stroke-width="2" stroke-linecap="round" stroke-linejoin="round"/>
<path d="M67.8516 130.987L109.132 83.8564L117.108 145.481L67.8516 130.987Z" stroke="#1E1E1E" stroke-width="2" stroke-linecap="round" stroke-linejoin="round"/>
<path d="M67.8516 130.986L117.108 145.48L82.2703 192.47L67.8516 130.986Z" stroke="#1E1E1E" stroke-width="2" stroke-linecap="round" stroke-linejoin="round"/>
<path d="M117.105 145.48L165.529 103.808L170.755 158.831L117.105 145.48Z" stroke="#1E1E1E" stroke-width="2" stroke-linecap="round" stroke-linejoin="round"/>
<path d="M117.105 145.48L170.755 158.832L140.859 203.564L117.105 145.48Z" stroke="#1E1E1E" stroke-width="2" stroke-linecap="round" stroke-linejoin="round"/>
<path d="M170.76 158.831L165.535 103.808L219.217 136.146L170.76 158.831Z" stroke="#1E1E1E" stroke-width="2" stroke-linecap="round" stroke-linejoin="round"/>
<path d="M158.174 53.2604L203.355 27.1816L212.814 74.3794L158.174 53.2604Z" stroke="#1E1E1E" stroke-width="2" stroke-linecap="round" stroke-linejoin="round"/>
<path d="M203.354 27.1814L149.672 13.9878L174.35 -5.68945L203.354 27.1814Z" stroke="#1E1E1E" stroke-width="2" stroke-linecap="round" stroke-linejoin="round"/>
<path d="M165.535 103.808L212.816 74.3789L219.217 136.146L165.535 103.808Z" stroke="#1E1E1E" stroke-width="2" stroke-linecap="round" stroke-linejoin="round"/>
<path d="M212.807 74.3794L203.348 27.1816L249.796 55.1601L212.807 74.3794Z" stroke="#1E1E1E" stroke-width="2" stroke-linecap="round" stroke-linejoin="round"/>
<path d="M212.814 74.3786L249.803 55.1592L258.304 113.576L212.814 74.3786Z" stroke="#1E1E1E" stroke-width="2" stroke-linecap="round" stroke-linejoin="round"/>
<path d="M249.796 55.1589L203.348 27.1805L229.235 14.5117L249.796 55.1589Z" stroke="#1E1E1E" stroke-width="2" stroke-linecap="round" stroke-linejoin="round"/>
<path d="M170.754 158.832L219.21 136.146L203.958 197.796L170.754 158.832Z" stroke="#1E1E1E" stroke-width="2" stroke-linecap="round" stroke-linejoin="round"/>
<path d="M219.215 136.146L212.814 74.3789L258.304 113.576L219.215 136.146Z" stroke="#1E1E1E" stroke-width="2" stroke-linecap="round" stroke-linejoin="round"/>
<path d="M203.351 27.1814L174.348 -5.68945L229.239 14.5127L203.351 27.1814Z" stroke="#1E1E1E" stroke-width="2" stroke-linecap="round" stroke-linejoin="round"/>
<path d="M229.239 14.5127L174.348 -5.68948L195.692 -6.14844L229.239 14.5127Z" stroke="#1E1E1E" stroke-width="2" stroke-linecap="round" stroke-linejoin="round"/>
<path d="M229.242 14.5127L195.695 -6.14844L249.378 26.1812L229.242 14.5127Z" stroke="#1E1E1E" stroke-width="2" stroke-linecap="round" stroke-linejoin="round"/>
<path d="M174.347 -5.68986L111.238 0.0867778L135.699 -13L174.347 -5.68986Z" stroke="#1E1E1E" stroke-width="2" stroke-linecap="round" stroke-linejoin="round"/>
<path d="M5.66406 139.463L29.6013 117.31L34.6683 172.326L5.66406 139.463Z" stroke="#1E1E1E" stroke-width="2" stroke-linecap="round" stroke-linejoin="round"/>
<path d="M5.66406 139.463L34.6683 172.326L17.3825 196.821L5.66406 139.463Z" stroke="#1E1E1E" stroke-width="2" stroke-linecap="round" stroke-linejoin="round"/>
<path d="M5.66755 139.463L17.386 196.821L1.125 161.291L5.66755 139.463Z" stroke="#1E1E1E" stroke-width="2" stroke-linecap="round" stroke-linejoin="round"/>
<path d="M5.66755 139.463L1.125 161.291L3.03367 102.683L5.66755 139.463Z" stroke="#1E1E1E" stroke-width="2" stroke-linecap="round" stroke-linejoin="round"/>
<path d="M1.125 161.291L17.386 196.821L24.8704 219.374L1.125 161.291Z" stroke="#1E1E1E" stroke-width="2" stroke-linecap="round" stroke-linejoin="round"/>
<path d="M17.3867 196.822L34.6726 172.326L55.2249 222.592L17.3867 196.822Z" stroke="#1E1E1E" stroke-width="2" stroke-linecap="round" stroke-linejoin="round"/>
<path d="M17.3867 196.822L55.2249 222.592L49.9742 247.811L17.3867 196.822Z" stroke="#1E1E1E" stroke-width="2" stroke-linecap="round" stroke-linejoin="round"/>
<path d="M55.2262 222.592L34.6738 172.326L82.2719 192.471L55.2262 222.592Z" stroke="#1E1E1E" stroke-width="2" stroke-linecap="round" stroke-linejoin="round"/>
<path d="M24.8711 219.375L17.3867 196.822L49.9742 247.811L24.8711 219.375Z" stroke="#1E1E1E" stroke-width="2" stroke-linecap="round" stroke-linejoin="round"/>
<path d="M49.9707 247.811L55.2215 222.592L88.4925 261.33L49.9707 247.811Z" stroke="#1E1E1E" stroke-width="2" stroke-linecap="round" stroke-linejoin="round"/>
<path d="M49.9707 247.811L88.4925 261.33L103.645 280.149L49.9707 247.811Z" stroke="#1E1E1E" stroke-width="2" stroke-linecap="round" stroke-linejoin="round"/>
<path d="M88.4976 261.33L55.2266 222.592L112.151 239.344L88.4976 261.33Z" stroke="#1E1E1E" stroke-width="2" stroke-linecap="round" stroke-linejoin="round"/>
<path d="M140.859 203.563L170.755 158.831L203.959 197.796L140.859 203.563Z" stroke="#1E1E1E" stroke-width="2" stroke-linecap="round" stroke-linejoin="round"/>
<path d="M140.859 203.564L203.959 197.796L172.897 242.569L140.859 203.564Z" stroke="#1E1E1E" stroke-width="2" stroke-linecap="round" stroke-linejoin="round"/>
<path d="M140.863 203.563L172.9 242.569L112.15 239.344L140.863 203.563Z" stroke="#1E1E1E" stroke-width="2" stroke-linecap="round" stroke-linejoin="round"/>
<path d="M140.864 203.565L112.152 239.345L82.2734 192.472L140.864 203.565Z" stroke="#1E1E1E" stroke-width="2" stroke-linecap="round" stroke-linejoin="round"/>
<path d="M112.15 239.345L172.9 242.57L142.079 274.907L112.15 239.345Z" stroke="#1E1E1E" stroke-width="2" stroke-linecap="round" stroke-linejoin="round"/>
<path d="M172.896 242.569L203.959 197.796L229.854 228.575L172.896 242.569Z" stroke="#1E1E1E" stroke-width="2" stroke-linecap="round" stroke-linejoin="round"/>
<path d="M172.896 242.57L229.854 228.576L196.683 269.915L172.896 242.57Z" stroke="#1E1E1E" stroke-width="2" stroke-linecap="round" stroke-linejoin="round"/>
<path d="M229.854 228.576L203.959 197.796L254.657 176.71L229.854 228.576Z" stroke="#1E1E1E" stroke-width="2" stroke-linecap="round" stroke-linejoin="round"/>
<path d="M88.4922 261.331L112.145 239.345L142.074 274.907L88.4922 261.331Z" stroke="#1E1E1E" stroke-width="2" stroke-linecap="round" stroke-linejoin="round"/>
<path d="M88.4922 261.33L142.074 274.906L103.645 280.149L88.4922 261.33Z" stroke="#1E1E1E" stroke-width="2" stroke-linecap="round" stroke-linejoin="round"/>
<path d="M142.08 274.907L172.901 242.569L196.687 269.915L142.08 274.907Z" stroke="#1E1E1E" stroke-width="2" stroke-linecap="round" stroke-linejoin="round"/>
<path d="M142.08 274.906L196.687 269.914L163.642 286.999L142.08 274.906Z" stroke="#1E1E1E" stroke-width="2" stroke-linecap="round" stroke-linejoin="round"/>
<path d="M196.686 269.915L229.857 228.576L244.958 247.028L196.686 269.915Z" stroke="#1E1E1E" stroke-width="2" stroke-linecap="round" stroke-linejoin="round"/>
<path d="M196.686 269.915L244.958 247.027L221.356 269.381L196.686 269.915Z" stroke="#1E1E1E" stroke-width="2" stroke-linecap="round" stroke-linejoin="round"/>
<path d="M221.357 269.382L163.641 287L196.686 269.915L221.357 269.382Z" stroke="#1E1E1E" stroke-width="2" stroke-linecap="round" stroke-linejoin="round"/>
<path d="M163.64 287L103.648 280.149L142.078 274.906L163.64 287Z" stroke="#1E1E1E" stroke-width="2" stroke-linecap="round" stroke-linejoin="round"/>
<path d="M5.66903 139.463L3.03516 102.683L20.9213 77.8125L5.66903 139.463Z" stroke="#1E1E1E" stroke-width="2" stroke-linecap="round" stroke-linejoin="round"/>
<path d="M112.151 239.345L55.2266 222.593L82.2723 192.472L112.151 239.345Z" stroke="#1E1E1E" stroke-width="2" stroke-linecap="round" stroke-linejoin="round"/>
<path d="M140.864 203.564L82.2734 192.471L117.111 145.48L140.864 203.564Z" stroke="#1E1E1E" stroke-width="2" stroke-linecap="round" stroke-linejoin="round"/>
<path d="M82.2719 192.47L34.6738 172.326L67.8531 130.986L82.2719 192.47Z" stroke="#1E1E1E" stroke-width="2" stroke-linecap="round" stroke-linejoin="round"/>
<path d="M254.657 176.71L203.959 197.796L219.211 136.146L254.657 176.71Z" stroke="#1E1E1E" stroke-width="2" stroke-linecap="round" stroke-linejoin="round"/>
<path d="M1.125 161.291L24.8704 219.375L49.9734 247.811L103.648 280.15L163.639 287L221.355 269.382L269.778 227.716L296.315 171.309L298.223 112.709L274.47 54.6262L249.375 26.1808L195.693 -6.14882L135.701 -13L77.986 4.61124L29.5626 46.2846L3.03367 102.683L1.125 161.291Z" stroke="#1E1E1E" stroke-width="2" stroke-linecap="round" stroke-linejoin="round"/>
</g>
</svg>
