<svg width="216" height="275" viewBox="0 0 216 275" fill="none" xmlns="http://www.w3.org/2000/svg">
<g opacity="0.15">
<path d="M110.655 26.5856C108.883 26.3489 107.013 27.9449 105.55 30.8374C104.09 33.7249 103.078 37.9114 103.03 42.5786C102.987 47.2484 103.921 51.4525 105.329 54.3651C106.736 57.2878 108.576 58.9191 110.353 58.7152C112.148 58.5113 113.55 56.5628 114.509 53.6703C115.466 50.7728 116.012 46.9287 116.05 42.702C116.093 38.4728 115.617 34.6211 114.716 31.706C113.81 28.7958 112.448 26.8197 110.655 26.5856Z" fill="#1E1E1E"/>
<path d="M133.85 14.1184C131.108 13.0661 126.655 18.0557 124.853 25.5273C123.035 32.999 124.714 39.4712 127.632 39.7909C130.587 40.1232 133.603 34.7889 135.25 28.0447C136.871 21.2981 136.629 15.1732 133.85 14.1184Z" fill="#1E1E1E"/>
<path d="M152.85 -0.0147461C151.44 -0.470396 149.63 0.669998 148.16 3.07915C146.677 5.46314 145.67 8.96235 145.202 12.4565C144.726 15.9632 144.691 18.7777 144.84 21.0283C144.92 22.1561 145.094 23.1782 145.348 24.0165C145.617 24.8573 146.043 25.5571 146.68 25.9548C147.317 26.3501 148.11 26.3954 149.049 26.053C149.998 25.7232 151.012 24.9554 151.986 23.8276C153.97 21.5695 155.448 17.801 155.951 13.9594C156.465 10.1028 156.213 6.92329 155.692 4.54183C155.153 2.17295 154.292 0.450974 152.85 -0.0147461Z" fill="#1E1E1E"/>
<path d="M179.566 -9.23421C178.356 -10.3746 176.037 -10.1807 173.338 -8.62246C170.652 -7.0818 167.647 -4.12636 165.376 -0.189134C163.11 3.7506 162.066 7.83381 162.076 10.9302C162.081 14.0443 163.075 16.1488 164.671 16.6246C166.295 17.1104 168.196 15.965 170.121 13.9813C172.05 11.9825 174.041 9.15544 175.919 5.88282C177.804 2.61774 179.249 -0.521473 180.012 -3.18992C180.762 -5.85334 180.8 -8.07369 179.566 -9.23421Z" fill="#1E1E1E"/>
<path d="M205.26 -10.6697C204.542 -11.9209 202.568 -12.3388 199.938 -11.7119C197.32 -11.0952 194.085 -9.37076 191.23 -6.63434C188.383 -3.8954 186.53 -0.731042 185.81 1.85937C185.075 4.46236 185.415 6.45111 186.636 7.21892C187.875 8.00183 189.727 7.48829 191.797 6.29755C193.868 5.09172 196.189 3.21874 198.533 0.965661C200.882 -1.28238 202.843 -3.52534 204.132 -5.54934C205.403 -7.5683 205.99 -9.39844 205.26 -10.6697Z" fill="#1E1E1E"/>
<path d="M231.169 -1.59233C230.874 -3.13802 228.981 -4.27843 226.023 -4.54779C223.083 -4.82471 219.103 -4.15001 215.189 -2.25441C211.277 -0.353768 208.286 2.35497 206.682 4.83209C205.064 7.32181 204.787 9.51447 205.819 10.7027C206.869 11.9136 208.966 11.9689 211.496 11.3975C214.041 10.8185 217.049 9.64532 220.216 8.10215C223.388 6.56905 226.169 4.93029 228.201 3.29398C230.215 1.66018 231.468 -0.0189519 231.169 -1.59233Z" fill="#1E1E1E"/>
<path d="M147.461 55.9842C146.91 53.0413 140.803 51.7197 133.739 52.339C132.85 52.4195 131.987 52.5252 131.154 52.6586C130.338 52.7895 129.472 52.9532 128.795 53.1269C127.508 53.4667 126.537 53.7764 125.807 54.0861C125.079 54.3957 124.558 54.7431 123.768 54.8941C123.04 55.0678 122.308 55.156 121.701 55.5839C121.109 55.9993 120.681 56.7923 120.893 57.9477C121.016 58.5091 121.27 59.1536 121.799 59.7779C122.318 60.4173 123.028 60.9988 123.828 61.4595C125.437 62.3985 127.37 62.8894 129.273 63.0681C130.192 63.1562 130.997 63.2066 131.921 63.2142C132.82 63.2217 133.754 63.1839 134.701 63.0983C142.338 62.4237 148.012 58.9044 147.461 55.9842Z" fill="#1E1E1E"/>
<path d="M162.593 44.1965C162.5 40.8635 156.045 38.3436 148.211 37.7218C140.375 37.1277 133.608 38.6154 133.001 41.8956C132.394 45.138 138.741 49.0451 147.28 49.7021C155.819 50.3717 162.691 47.4918 162.593 44.1965Z" fill="#1E1E1E"/>
<path d="M173.943 36.5344C174.355 33.9415 169.839 31.0767 164.107 29.1786C158.365 27.3182 153.028 26.9557 151.827 29.2919C150.634 31.5852 154.639 36.0184 161.172 38.1481C167.697 40.293 173.547 39.0871 173.943 36.5344Z" fill="#1E1E1E"/>
<path d="M187.797 30.2088C188.3 27.6411 183.915 24.6328 178.306 22.5182C172.68 20.4363 167.398 19.8371 166.097 22.1028C165.478 23.2331 166.064 24.9123 167.655 26.6467C169.239 28.3787 171.839 30.1333 175.021 31.3216C178.203 32.5072 181.317 32.8848 183.645 32.618C185.979 32.3511 187.525 31.47 187.797 30.2088Z" fill="#1E1E1E"/>
<path d="M202.522 29.9856C204.055 27.7628 201.112 23.0778 196.548 18.8058C191.962 14.5564 187.078 11.9535 184.969 13.6452C182.884 15.3016 184.765 21.1293 189.925 25.92C195.073 30.7232 201.017 32.1858 202.522 29.9856Z" fill="#1E1E1E"/>
<path d="M225.196 38.2188C227.582 36.0161 225.196 29.5514 220.159 23.5197C215.111 17.4955 209.168 14.0064 206.577 15.9675C204.002 17.9159 205.91 24.7834 211.159 31.0467C216.4 37.3201 222.822 40.4114 225.196 38.2188Z" fill="#1E1E1E"/>
<path d="M138.205 81.8129C136.866 81.3346 135.116 82.2811 133.543 84.4284C131.969 86.5581 130.633 89.9038 130.212 93.7681C129.797 97.6298 130.388 101.184 131.468 103.601C132.551 106.035 134.054 107.334 135.466 107.153C136.898 106.972 137.991 105.419 138.809 103.206C139.622 100.978 140.206 98.0854 140.546 94.8858C140.896 91.6836 140.946 88.7357 140.627 86.3845C140.299 84.0508 139.567 82.2988 138.205 81.8129Z" fill="#1E1E1E"/>
<path d="M164.71 73.3139C163.748 72.3296 161.838 72.4076 159.567 73.558C157.299 74.6934 154.703 76.9364 152.616 79.995C150.527 83.0562 149.379 86.2861 149.142 88.811C149.112 89.1282 149.097 89.4328 149.09 89.7248C149.077 89.8985 149.115 89.9564 149.067 90.2132C148.984 90.5581 148.964 90.8501 148.969 91.1144C149.014 92.1516 149.349 92.8414 149.855 93.5034C150.129 93.8382 150.436 94.1277 150.9 94.3467C151.34 94.5557 151.846 94.5431 152.108 94.3921C152.652 94.0724 152.536 93.647 152.443 93.3474L152.249 92.8666L152.216 92.7457L152.224 92.8162C152.231 92.8564 152.239 92.8741 152.234 92.9169C152.178 93.0981 152.229 92.718 152.981 92.4914C153.676 92.2296 154.562 92.4008 153.82 92.28C153.666 92.2448 153.452 92.1818 153.228 92.0811L153.188 92.0584L153.165 92.0484C153.784 92.3429 151.773 91.3838 154.552 92.7079L154.555 92.7055L154.56 92.7029L154.603 92.6727L154.683 92.6173L154.844 92.4965C155.061 92.3354 155.28 92.1591 155.499 91.9728C157.253 90.4725 159.126 88.2622 160.904 85.6567C162.683 83.0512 164.063 80.5036 164.823 78.3235C165.576 76.1484 165.684 74.3108 164.71 73.3139Z" fill="#1E1E1E"/>
<path d="M192.862 71.6907C192.933 70.8725 192.575 70.0368 191.714 69.3042C190.856 68.5691 189.492 67.9876 187.75 67.7535C184.266 67.2399 179.4 68.4735 175.425 71.5674C171.488 74.626 169.333 78.3191 168.426 81.1688C167.525 84.0562 167.774 86.2791 169.093 87.276C170.423 88.2779 172.623 87.8047 175.067 86.478C177.522 85.1488 180.175 83.0769 182.75 81.0982C185.288 79.1548 187.495 77.5386 189.305 76.1088C191.08 74.6587 192.684 73.3673 192.862 71.6907Z" fill="#1E1E1E"/>
<path d="M212.281 81.2075C212.223 79.7625 210.645 78.4635 207.966 77.8417C205.308 77.2149 201.557 77.3483 197.733 78.6448C193.912 79.9513 190.861 82.1364 189.136 84.2561C187.394 86.3858 186.939 88.3746 187.775 89.5553C188.625 90.7611 190.539 91.0052 192.895 90.7434C195.266 90.469 198.113 89.7239 201.149 88.6842C204.19 87.6546 206.902 86.5066 208.948 85.2756C210.977 84.0446 212.344 82.6852 212.281 81.2075Z" fill="#1E1E1E"/>
<path d="M231.261 96.8983C232.009 95.6774 231.389 93.6735 229.247 91.7402C227.145 89.8144 223.465 88.1252 219.172 87.8533C214.88 87.5864 211.019 88.7998 208.69 90.4437C206.324 92.0926 205.46 94.0008 206.044 95.3099C206.646 96.6642 208.436 97.281 210.644 97.6712C212.877 98.0488 215.563 98.2451 218.508 98.4188C221.448 98.6152 224.139 98.7586 226.4 98.6655C228.64 98.5522 230.493 98.1696 231.261 96.8983Z" fill="#1E1E1E"/>
<path d="M167.643 123.464C169.212 120.808 165.156 115.514 158.588 111.637C152.021 107.763 145.425 106.771 143.857 109.427C142.291 112.083 146.344 117.377 152.914 121.251C159.482 125.128 166.078 126.12 167.643 123.464Z" fill="#1E1E1E"/>
<path d="M175.791 112.816C177.069 110.417 173.394 105.969 167.74 102.603C162.084 99.245 156.419 98.1424 154.922 100.408C153.429 102.666 156.845 107.552 162.723 111.044C168.598 114.541 174.524 115.208 175.791 112.816Z" fill="#1E1E1E"/>
<path d="M186.613 106.975C187.803 105.107 185.321 101.411 181.731 97.9348C178.111 94.486 174.32 92.1574 172.503 93.4237C171.622 94.0656 171.471 95.5684 172.095 97.4716C172.712 99.3722 174.134 101.651 176.228 103.664C178.325 105.678 180.661 107.005 182.582 107.544C184.511 108.093 186.006 107.879 186.613 106.975Z" fill="#1E1E1E"/>
<path d="M201.987 110.368C202.531 110.313 203.002 109.986 203.354 109.286C203.727 108.604 203.833 107.524 203.576 106.305C203.455 105.671 203.223 105.054 202.911 104.417C202.609 103.768 202.209 103.191 201.768 102.59C200.877 101.427 199.792 100.445 198.667 99.5862C196.396 97.9071 194.556 97.0261 193.121 96.432C192.401 96.1374 191.711 95.931 191.12 95.7925C190.511 95.6667 189.904 95.6541 189.406 95.8832C188.907 96.1123 188.567 96.578 188.434 97.3231C188.283 98.0758 188.446 99.045 188.872 100.1C189.728 102.237 191.795 104.377 193.876 105.912C195.996 107.493 197.514 108.339 198.647 108.991C199.188 109.291 199.749 109.603 200.333 109.93C200.867 110.21 201.441 110.419 201.987 110.368Z" fill="#1E1E1E"/>
<path d="M216.547 126.078C217.214 126.49 218.091 126.546 219.1 126.05C220.107 125.567 221.182 124.487 221.992 122.868C223.661 119.641 223.77 114.397 221.31 109.772C218.904 105.291 215.45 102.819 212.829 101.679C210.153 100.544 208.026 100.584 206.946 101.739C205.856 102.907 206.118 105.06 207.145 107.507C208.175 109.961 209.816 112.635 211.12 115.124C212.348 117.491 213.24 119.676 213.97 121.503C214.747 123.313 215.206 125.181 216.547 126.078Z" fill="#1E1E1E"/>
<path d="M121.215 68.9961C97.1237 95.4742 79.5072 128.389 70.9608 163.973C66.6611 181.761 64.4182 200.075 63.2602 218.409C62.9732 222.996 62.729 227.588 62.6057 232.177L62.4797 245.927L62.2305 273.477L71.6128 277.956L70.6964 250.078C70.4522 240.789 69.8909 231.472 70.1175 222.225C70.3667 203.725 71.6631 185.275 75.0414 167.248C78.3895 149.241 84.0335 131.717 91.8071 115.145C99.6185 98.6058 109.509 83.0432 121.215 68.9961Z" fill="#1E1E1E"/>
<path d="M139.486 121.859C123.551 124.576 108.45 132.772 95.9309 143.889C83.3164 155.006 73.3375 169.154 65.423 184.314C49.4629 214.797 41.7875 248.986 30.3234 280.803C32.8055 283.17 35.27 285.566 37.727 288.001C48.5919 254.287 54.4498 219.59 68.6503 188.314C75.6888 172.759 84.7563 158.12 96.734 146.308C108.628 134.512 123.358 125.409 139.486 121.859Z" fill="#1E1E1E"/>
<path d="M63.5575 197.103C63.9351 199.303 64.7054 197.931 64.8086 194.804C65.0755 187.72 64.1012 176.395 61.8054 163.599C60.7078 157.189 59.4088 150.39 58.3541 143.414C57.8304 139.928 57.3673 136.398 57.0602 132.861C56.7027 129.352 56.6095 125.732 56.3251 121.873C56.0028 117.601 55.4314 112.974 53.7649 108.369C53.3495 107.224 52.8586 106.089 52.3099 104.976C51.7284 103.8 51.0134 102.647 50.1726 101.555C48.5086 99.415 46.16 97.2173 42.7137 96.3035C41.0246 95.8478 39.1794 95.8604 37.5607 96.2456C35.9219 96.6156 34.5675 97.313 33.4146 98.0405C31.1439 99.5232 29.5882 101.205 28.2188 102.594C25.4396 105.444 22.741 108.251 20.211 111.003C15.131 116.488 10.7684 121.795 7.44046 126.439C4.11502 131.094 1.80911 135.056 0.429596 137.692C-0.335686 139.132 -0.0235443 139.482 0.938091 138.309C2.75059 136.053 5.69843 132.665 9.66328 128.74C13.6281 124.806 18.6351 120.38 24.3269 115.68C27.1941 113.329 30.1848 110.874 33.261 108.354C34.8319 107.053 36.2567 105.882 37.5556 105.215C38.8873 104.53 39.6954 104.548 40.2971 104.797C40.9239 105.051 41.8477 105.792 42.6483 107.015C43.046 107.607 43.4135 108.286 43.7207 108.996C44.0555 109.792 44.3651 110.607 44.6269 111.451C45.6868 114.829 46.1172 118.625 46.4092 122.61C46.676 126.346 46.9076 130.414 47.4841 134.43C48.0505 138.42 48.8007 142.322 49.7145 146.07C51.5044 153.587 53.7347 160.57 55.7361 166.992C57.755 173.409 59.5599 179.285 60.869 184.423C62.178 189.548 63.0565 193.921 63.5575 197.103Z" fill="#1E1E1E"/>
<path d="M145.29 157.245C146.66 156.676 145.708 156.034 143.707 156.195C139.155 156.442 131.85 157.416 123.465 159.72C115.084 162.028 105.715 165.892 97.1507 171.053C87.5042 176.689 78.92 185.009 72.9639 192.851C66.9348 200.7 63.554 208.026 62.0309 211.535C61.598 212.497 61.9454 212.791 62.6074 212.054C65.0896 209.212 70.3056 203.266 77.4448 197.173C84.5614 191.044 93.4376 184.735 102.271 179.577C110.525 174.613 118.933 169.55 126.679 165.61C134.377 161.638 141.328 158.838 145.29 157.245Z" fill="#1E1E1E"/>
</g>
</svg>
