<svg width="384" height="101" viewBox="0 0 384 101" fill="none" xmlns="http://www.w3.org/2000/svg">
<path d="M30.464 13.8718C30.336 13.7011 29.888 13.3811 29.12 12.9118C28.352 12.4424 27.392 11.9518 26.24 11.4398C25.088 10.9278 23.8293 10.4798 22.464 10.0958C21.0987 9.71178 19.7333 9.51978 18.368 9.51978C14.6133 9.51978 12.736 10.7784 12.736 13.2958C12.736 14.0638 12.928 14.7038 13.312 15.2158C13.7387 15.7278 14.336 16.1971 15.104 16.6238C15.9147 17.0078 16.9173 17.3704 18.112 17.7118C19.3067 18.0531 20.6933 18.4371 22.272 18.8638C24.448 19.4611 26.4107 20.1224 28.16 20.8478C29.9093 21.5304 31.3813 22.4051 32.576 23.4718C33.8133 24.4958 34.752 25.7544 35.392 27.2478C36.0747 28.7411 36.416 30.5331 36.416 32.6238C36.416 35.1838 35.9253 37.3598 34.944 39.1518C34.0053 40.9011 32.7467 42.3304 31.168 43.4398C29.5893 44.5064 27.776 45.2958 25.728 45.8078C23.68 46.2771 21.568 46.5118 19.392 46.5118C17.728 46.5118 16.0213 46.3838 14.272 46.1278C12.5227 45.8718 10.816 45.5091 9.152 45.0398C7.488 44.5278 5.86667 43.9305 4.288 43.2478C2.752 42.5651 1.32267 41.7758 0 40.8798L4.608 31.7278C4.77867 31.9411 5.33333 32.3465 6.272 32.9438C7.21067 33.5411 8.36267 34.1385 9.728 34.7358C11.136 35.3331 12.6933 35.8664 14.4 36.3358C16.1067 36.8051 17.8347 37.0398 19.584 37.0398C23.296 37.0398 25.152 35.9091 25.152 33.6478C25.152 32.7944 24.8747 32.0904 24.32 31.5358C23.7653 30.9811 22.9973 30.4904 22.016 30.0638C21.0347 29.5944 19.8613 29.1678 18.496 28.7838C17.1733 28.3998 15.7227 27.9731 14.144 27.5038C12.0533 26.8638 10.24 26.1811 8.704 25.4558C7.168 24.6878 5.888 23.8131 4.864 22.8318C3.88267 21.8504 3.136 20.7198 2.624 19.4398C2.15467 18.1598 1.92 16.6664 1.92 14.9598C1.92 12.5704 2.368 10.4584 3.264 8.62378C4.16 6.78911 5.376 5.25311 6.912 4.01578C8.448 2.73578 10.2187 1.77578 12.224 1.13578C14.272 0.495781 16.4267 0.175781 18.688 0.175781C20.2667 0.175781 21.824 0.325114 23.36 0.623779C24.896 0.922447 26.368 1.30645 27.776 1.77578C29.184 2.24511 30.4853 2.77845 31.68 3.37578C32.9173 3.97312 34.048 4.57045 35.072 5.16778L30.464 13.8718Z" fill="#2E2C39"/>
<path d="M39.951 22.8958C39.951 20.1651 40.463 17.4558 41.487 14.7678C42.511 12.0371 44.0043 9.60511 45.967 7.47178C47.9297 5.33845 50.319 3.61045 53.135 2.28778C55.951 0.965113 59.151 0.30378 62.735 0.30378C67.0017 0.30378 70.6923 1.22111 73.807 3.05578C76.9643 4.89045 79.311 7.27978 80.847 10.2238L72.783 15.8558C72.271 14.6611 71.6097 13.6798 70.799 12.9118C70.031 12.1011 69.1777 11.4611 68.239 10.9918C67.3003 10.4798 66.3403 10.1384 65.359 9.96778C64.3777 9.75445 63.4177 9.64778 62.479 9.64778C60.4737 9.64778 58.7243 10.0531 57.231 10.8638C55.7377 11.6744 54.5003 12.7198 53.519 13.9998C52.5377 15.2798 51.8123 16.7304 51.343 18.3518C50.8737 19.9731 50.639 21.6158 50.639 23.2798C50.639 25.0718 50.9163 26.7998 51.471 28.4638C52.0257 30.1278 52.815 31.5998 53.839 32.8798C54.9057 34.1598 56.1643 35.1838 57.615 35.9518C59.1083 36.6771 60.7723 37.0398 62.607 37.0398C63.5457 37.0398 64.5057 36.9331 65.487 36.7198C66.511 36.4638 67.471 36.1011 68.367 35.6318C69.3057 35.1198 70.159 34.4798 70.927 33.7118C71.695 32.9011 72.3137 31.9198 72.783 30.7678L81.359 35.8238C80.6763 37.4878 79.6523 38.9811 78.287 40.3038C76.9643 41.6264 75.4283 42.7358 73.679 43.6318C71.9297 44.5278 70.0737 45.2104 68.111 45.6798C66.1483 46.1491 64.2283 46.3838 62.351 46.3838C59.0657 46.3838 56.0363 45.7225 53.263 44.3998C50.5323 43.0345 48.1643 41.2424 46.159 39.0238C44.1963 36.8051 42.6603 34.2878 41.551 31.4718C40.4843 28.6558 39.951 25.7971 39.951 22.8958Z" fill="#2E2C39"/>
<path d="M86.6375 45.9998V0.55978H97.1335V45.9998H86.6375Z" fill="#2E2C39"/>
<path d="M116.321 20.0158V45.9998H105.825V0.55978H114.017L135.201 27.2478V0.55978H145.697V45.9998H137.249L116.321 20.0158Z" fill="#2E2C39"/>
<path d="M189.012 9.77578H175.188V45.9998H164.691V9.77578H150.803V0.55978H189.012V9.77578Z" fill="#2E2C39"/>
<path d="M227.167 46.3838C223.796 46.3838 220.724 45.7225 217.951 44.3998C215.177 43.0771 212.809 41.3491 210.846 39.2158C208.884 37.0398 207.348 34.5651 206.238 31.7918C205.172 29.0184 204.639 26.1598 204.639 23.2158C204.639 20.2291 205.193 17.3491 206.303 14.5758C207.454 11.8024 209.033 9.37045 211.038 7.27978C213.087 5.14645 215.497 3.46111 218.271 2.22378C221.044 0.94378 224.073 0.30378 227.359 0.30378C230.729 0.30378 233.801 0.965113 236.575 2.28778C239.348 3.61045 241.716 5.35978 243.678 7.53578C245.641 9.71178 247.156 12.1864 248.223 14.9598C249.289 17.7331 249.823 20.5491 249.823 23.4078C249.823 26.3944 249.246 29.2744 248.094 32.0478C246.985 34.8211 245.428 37.2744 243.423 39.4078C241.417 41.4985 239.028 43.1838 236.255 44.4638C233.481 45.7438 230.452 46.3838 227.167 46.3838ZM215.327 23.3438C215.327 25.0931 215.583 26.7998 216.094 28.4638C216.606 30.0851 217.353 31.5358 218.335 32.8158C219.359 34.0958 220.617 35.1198 222.111 35.8878C223.604 36.6558 225.311 37.0398 227.23 37.0398C229.236 37.0398 230.985 36.6345 232.479 35.8238C233.972 35.0131 235.209 33.9678 236.191 32.6878C237.172 31.3651 237.897 29.8931 238.367 28.2718C238.879 26.6078 239.135 24.9224 239.135 23.2158C239.135 21.4664 238.879 19.7811 238.367 18.1598C237.855 16.4958 237.087 15.0451 236.062 13.8078C235.038 12.5278 233.78 11.5251 232.286 10.7998C230.836 10.0318 229.15 9.64778 227.23 9.64778C225.225 9.64778 223.476 10.0531 221.982 10.8638C220.532 11.6318 219.295 12.6558 218.271 13.9358C217.289 15.2158 216.542 16.6878 216.031 18.3518C215.561 19.9731 215.327 21.6371 215.327 23.3438Z" fill="#2E2C39"/>
<path d="M266.384 20.0158V45.9998H255.887V0.55978H264.079L285.263 27.2478V0.55978H295.759V45.9998H287.311L266.384 20.0158Z" fill="#2E2C39"/>
<path d="M339.074 9.77578H325.25V45.9998H314.754V9.77578H300.866V0.55978H339.074V9.77578Z" fill="#2E2C39"/>
<path d="M363.72 37.0398C365.512 37.0398 367.027 36.6771 368.264 35.9518C369.501 35.1838 370.504 34.1811 371.272 32.9438C372.04 31.7064 372.573 30.2984 372.872 28.7198C373.213 27.0984 373.384 25.4558 373.384 23.7918V0.55978H383.88V23.7918C383.88 26.9491 383.475 29.8931 382.664 32.6238C381.896 35.3545 380.68 37.7438 379.016 39.7918C377.395 41.8398 375.304 43.4611 372.744 44.6558C370.227 45.8078 367.219 46.3838 363.72 46.3838C360.093 46.3838 357 45.7651 354.44 44.5278C351.88 43.2905 349.789 41.6478 348.168 39.5998C346.589 37.5091 345.416 35.0984 344.648 32.3678C343.923 29.6371 343.56 26.7784 343.56 23.7918V0.55978H354.056V23.7918C354.056 25.5411 354.227 27.2051 354.568 28.7838C354.909 30.3624 355.464 31.7704 356.232 33.0078C357 34.2451 357.981 35.2264 359.176 35.9518C360.413 36.6771 361.928 37.0398 363.72 37.0398Z" fill="#2E2C39"/>
<path d="M14.122 60.94C13.9937 60.7933 13.8076 60.64 13.5639 60.48C13.3201 60.3067 13.0314 60.1467 12.6979 60C12.3643 59.8533 12.0051 59.7333 11.6202 59.64C11.2353 59.5467 10.8375 59.5 10.427 59.5C9.52891 59.5 8.86176 59.6733 8.42555 60.02C7.98933 60.3667 7.77123 60.8467 7.77123 61.46C7.77123 61.9133 7.89311 62.2733 8.13688 62.54C8.38064 62.7933 8.75271 63.0067 9.25307 63.18C9.75343 63.3533 10.3821 63.54 11.139 63.74C12.0628 63.9667 12.8646 64.24 13.5446 64.56C14.2246 64.8667 14.7442 65.28 15.1034 65.8C15.4627 66.32 15.6423 67.0067 15.6423 67.86C15.6423 68.58 15.514 69.2 15.2574 69.72C15.0008 70.24 14.6416 70.6667 14.1797 71C13.7178 71.32 13.1854 71.56 12.5824 71.72C11.9794 71.8667 11.3315 71.94 10.6387 71.94C9.9587 71.94 9.27873 71.8667 8.59875 71.72C7.9316 71.5733 7.29011 71.36 6.67428 71.08C6.07129 70.7867 5.51319 70.4333 5 70.02L5.98148 68.1C6.14826 68.2733 6.38561 68.4667 6.69353 68.68C7.01427 68.88 7.37992 69.0733 7.79047 69.26C8.21386 69.4467 8.66931 69.6067 9.15684 69.74C9.6572 69.86 10.164 69.92 10.6772 69.92C11.5368 69.92 12.1911 69.7667 12.6401 69.46C13.102 69.14 13.3329 68.6867 13.3329 68.1C13.3329 67.62 13.1854 67.24 12.8903 66.96C12.5952 66.6667 12.1654 66.42 11.6009 66.22C11.0364 66.02 10.3628 65.82 9.58023 65.62C8.68214 65.3667 7.9316 65.0933 7.3286 64.8C6.7256 64.4933 6.27015 64.1067 5.96223 63.64C5.66715 63.16 5.51961 62.5533 5.51961 61.82C5.51961 60.8867 5.73771 60.1 6.17392 59.46C6.61014 58.8067 7.2003 58.32 7.94443 58C8.70139 57.6667 9.54815 57.5 10.4847 57.5C11.1006 57.5 11.6843 57.5733 12.236 57.72C12.7877 57.8533 13.3009 58.04 13.7756 58.28C14.2631 58.52 14.7057 58.7933 15.1034 59.1L14.122 60.94Z" fill="#2E2C39"/>
<path d="M22.0956 72C21.3129 72 20.6009 71.86 19.9594 71.58C19.3307 71.2867 18.7855 70.8867 18.3236 70.38C17.8617 69.8733 17.5025 69.2933 17.2459 68.64C17.0021 67.9867 16.8803 67.2933 16.8803 66.56C16.8803 65.5733 17.092 64.6733 17.5153 63.86C17.9515 63.0467 18.5545 62.3933 19.3243 61.9C20.1069 61.4067 21.0307 61.16 22.0956 61.16C23.1219 61.16 24.0136 61.4 24.7706 61.88C25.5404 62.3467 26.1049 62.9733 26.4641 63.76L24.4049 64.44C24.174 64 23.8468 63.66 23.4234 63.42C23.0129 63.1667 22.5574 63.04 22.0571 63.04C21.4926 63.04 20.9794 63.1933 20.5175 63.5C20.0685 63.7933 19.7092 64.2067 19.4398 64.74C19.1832 65.26 19.0549 65.8667 19.0549 66.56C19.0549 67.2267 19.1896 67.8333 19.459 68.38C19.7285 68.9133 20.0877 69.34 20.5367 69.66C20.9986 69.9667 21.5118 70.12 22.0763 70.12C22.4227 70.12 22.7563 70.06 23.077 69.94C23.4106 69.8067 23.6993 69.6333 23.943 69.42C24.1868 69.1933 24.36 68.9467 24.4627 68.68L26.5411 69.32C26.323 69.84 25.9958 70.3 25.5596 70.7C25.1362 71.1 24.6294 71.42 24.0393 71.66C23.4619 71.8867 22.814 72 22.0956 72Z" fill="#2E2C39"/>
<path d="M28.2845 71.8V61.34H30.4014V71.8H28.2845ZM28.2845 59.62V57.2H30.4014V59.62H28.2845Z" fill="#2E2C39"/>
<path d="M37.5063 72C36.7237 72 36.0116 71.86 35.3702 71.58C34.7415 71.2867 34.1962 70.8933 33.7344 70.4C33.2725 69.8933 32.9133 69.32 32.6567 68.68C32.4129 68.0267 32.291 67.3333 32.291 66.6C32.291 65.6133 32.5091 64.7133 32.9453 63.9C33.3815 63.0733 33.991 62.4133 34.7736 61.92C35.5562 61.4133 36.4735 61.16 37.5256 61.16C38.5776 61.16 39.4821 61.4133 40.2391 61.92C41.0088 62.4133 41.6054 63.0667 42.0288 63.88C42.4522 64.6933 42.6639 65.5667 42.6639 66.5C42.6639 66.66 42.6575 66.8133 42.6446 66.96C42.6318 67.0933 42.619 67.2067 42.6061 67.3H34.5426C34.5811 67.9133 34.7415 68.4533 35.0238 68.92C35.3188 69.3733 35.6909 69.7333 36.1399 70C36.589 70.2533 37.0701 70.38 37.5833 70.38C38.1478 70.38 38.6802 70.2333 39.1806 69.94C39.6938 69.6467 40.0402 69.26 40.2198 68.78L42.0288 69.32C41.8107 69.8267 41.4771 70.2867 41.0281 70.7C40.5919 71.1 40.0723 71.42 39.4693 71.66C38.8663 71.8867 38.2119 72 37.5063 72ZM34.4849 65.84H40.5662C40.5277 65.24 40.3609 64.7133 40.0658 64.26C39.7836 63.7933 39.4179 63.4333 38.9689 63.18C38.5327 62.9133 38.0452 62.78 37.5063 62.78C36.9803 62.78 36.4928 62.9133 36.0437 63.18C35.6075 63.4333 35.2483 63.7933 34.966 64.26C34.6838 64.7133 34.5234 65.24 34.4849 65.84Z" fill="#2E2C39"/>
<path d="M53.4164 71.8H51.2995V65.94C51.2995 64.9667 51.1455 64.2533 50.8376 63.8C50.5425 63.3467 50.0999 63.12 49.5097 63.12C49.0992 63.12 48.6886 63.2267 48.2781 63.44C47.8803 63.6533 47.5211 63.9467 47.2004 64.32C46.8796 64.68 46.6487 65.1 46.5075 65.58V71.8H44.3906V61.34H46.3151V63.44C46.5717 62.9733 46.9053 62.5733 47.3158 62.24C47.7392 61.8933 48.2139 61.6267 48.7399 61.44C49.2659 61.2533 49.824 61.16 50.4142 61.16C51.0172 61.16 51.5112 61.2733 51.896 61.5C52.2938 61.7267 52.6017 62.04 52.8198 62.44C53.0507 62.8267 53.2047 63.28 53.2817 63.8C53.3715 64.3067 53.4164 64.8467 53.4164 65.42V71.8Z" fill="#2E2C39"/>
<path d="M61.3985 71.26C61.2189 71.3533 60.9944 71.4533 60.725 71.56C60.4556 71.6667 60.1476 71.76 59.8012 71.84C59.4677 71.92 59.1213 71.96 58.762 71.96C58.3258 71.96 57.9217 71.88 57.5496 71.72C57.1775 71.56 56.8761 71.3067 56.6451 70.96C56.427 70.6 56.318 70.14 56.318 69.58V63.04H54.9901V61.34H56.318V57.9H58.4349V61.34H60.6288V63.04H58.4349V68.88C58.4605 69.24 58.5696 69.5067 58.762 69.68C58.9673 69.8533 59.2175 69.94 59.5126 69.94C59.8077 69.94 60.0899 69.8867 60.3593 69.78C60.6288 69.6733 60.8276 69.5867 60.9559 69.52L61.3985 71.26Z" fill="#2E2C39"/>
<path d="M62.8647 71.8V61.34H64.9817V71.8H62.8647ZM62.8647 59.62V57.2H64.9817V59.62H62.8647Z" fill="#2E2C39"/>
<path d="M68.1029 63.3H66.7558V61.6H68.1029V61.18C68.1029 60.6333 68.1863 60.1133 68.3531 59.62C68.5199 59.1133 68.77 58.6667 69.1036 58.28C69.4372 57.88 69.8413 57.5667 70.316 57.34C70.8036 57.1133 71.3681 57 72.0096 57C72.4843 57 72.9269 57.0533 73.3374 57.16C73.7608 57.2667 74.1457 57.4133 74.4921 57.6C74.8513 57.7733 75.1657 57.96 75.4351 58.16L74.5691 59.8C74.2868 59.5333 73.9276 59.3133 73.4914 59.14C73.0552 58.9667 72.6061 58.88 72.1443 58.88C71.7081 58.88 71.3424 58.9867 71.0473 59.2C70.7651 59.4133 70.5534 59.6933 70.4123 60.04C70.284 60.3867 70.2198 60.7467 70.2198 61.12V61.6H75.4928V71.8H73.3759V63.3H70.2198V71.8H68.1029V63.3Z" fill="#2E2C39"/>
<path d="M82.5922 72C81.8095 72 81.0975 71.86 80.456 71.58C79.8273 71.2867 79.2821 70.8867 78.8202 70.38C78.3583 69.8733 77.9991 69.2933 77.7425 68.64C77.4987 67.9867 77.3769 67.2933 77.3769 66.56C77.3769 65.5733 77.5886 64.6733 78.0119 63.86C78.4481 63.0467 79.0511 62.3933 79.8209 61.9C80.6035 61.4067 81.5273 61.16 82.5922 61.16C83.6185 61.16 84.5102 61.4 85.2672 61.88C86.0369 62.3467 86.6015 62.9733 86.9607 63.76L84.9015 64.44C84.6706 64 84.3434 63.66 83.92 63.42C83.5095 63.1667 83.054 63.04 82.5537 63.04C81.9892 63.04 81.476 63.1933 81.0141 63.5C80.5651 63.7933 80.2058 64.2067 79.9364 64.74C79.6798 65.26 79.5515 65.8667 79.5515 66.56C79.5515 67.2267 79.6862 67.8333 79.9556 68.38C80.2251 68.9133 80.5843 69.34 81.0333 69.66C81.4952 69.9667 82.0084 70.12 82.5729 70.12C82.9193 70.12 83.2529 70.06 83.5736 69.94C83.9072 69.8067 84.1959 69.6333 84.4396 69.42C84.6834 69.1933 84.8566 68.9467 84.9593 68.68L87.0377 69.32C86.8196 69.84 86.4924 70.3 86.0562 70.7C85.6328 71.1 85.126 71.42 84.5359 71.66C83.9585 71.8867 83.3106 72 82.5922 72Z" fill="#2E2C39"/>
<path d="M105.538 61.34H107.559L103.325 71.8H101.516L99.7073 67.08L97.8983 71.8H96.0893L91.8362 61.34H93.8569L97.09 69.66L98.5141 65.8L96.7821 61.36H98.5718L99.7073 64.62L100.823 61.36H102.613L100.9 65.8L102.325 69.66L105.538 61.34Z" fill="#2E2C39"/>
<path d="M113.15 72C112.354 72 111.642 71.86 111.013 71.58C110.385 71.2867 109.84 70.8867 109.378 70.38C108.929 69.8733 108.582 69.3 108.338 68.66C108.095 68.0067 107.973 67.3133 107.973 66.58C107.973 65.8467 108.095 65.1533 108.338 64.5C108.582 63.8467 108.929 63.2733 109.378 62.78C109.84 62.2733 110.385 61.88 111.013 61.6C111.655 61.3067 112.367 61.16 113.15 61.16C113.932 61.16 114.638 61.3067 115.267 61.6C115.908 61.88 116.453 62.2733 116.902 62.78C117.364 63.2733 117.717 63.8467 117.961 64.5C118.205 65.1533 118.326 65.8467 118.326 66.58C118.326 67.3133 118.205 68.0067 117.961 68.66C117.717 69.3 117.364 69.8733 116.902 70.38C116.453 70.8867 115.908 71.2867 115.267 71.58C114.638 71.86 113.932 72 113.15 72ZM110.147 66.6C110.147 67.2667 110.282 67.8667 110.552 68.4C110.821 68.9333 111.18 69.3533 111.629 69.66C112.078 69.9667 112.585 70.12 113.15 70.12C113.701 70.12 114.202 69.9667 114.651 69.66C115.113 69.34 115.478 68.9133 115.748 68.38C116.017 67.8333 116.152 67.2333 116.152 66.58C116.152 65.9133 116.017 65.3133 115.748 64.78C115.478 64.2467 115.113 63.8267 114.651 63.52C114.202 63.2 113.701 63.04 113.15 63.04C112.585 63.04 112.078 63.2 111.629 63.52C111.18 63.84 110.821 64.2667 110.552 64.8C110.282 65.32 110.147 65.92 110.147 66.6Z" fill="#2E2C39"/>
<path d="M125.862 63.24C125.041 63.2533 124.31 63.4467 123.668 63.82C123.039 64.1933 122.59 64.72 122.321 65.4V71.8H120.204V61.34H122.167V63.68C122.513 62.96 122.969 62.3867 123.533 61.96C124.098 61.52 124.694 61.28 125.323 61.24C125.451 61.24 125.554 61.24 125.631 61.24C125.721 61.24 125.798 61.2467 125.862 61.26V63.24Z" fill="#2E2C39"/>
<path d="M134.407 71.8L131.174 66.98L129.519 68.62V71.8H127.402V57.2H129.519V66.4L134.176 61.36H136.447L132.54 65.74L136.659 71.8H134.407Z" fill="#2E2C39"/>
<path d="M141.969 68.74C141.969 68.0733 142.148 67.4933 142.508 67C142.88 66.4933 143.386 66.1067 144.028 65.84C144.669 65.56 145.413 65.42 146.26 65.42C146.709 65.42 147.165 65.4533 147.627 65.52C148.101 65.5867 148.518 65.6933 148.877 65.84V65.18C148.877 64.4467 148.666 63.8733 148.242 63.46C147.819 63.0467 147.21 62.84 146.414 62.84C145.85 62.84 145.317 62.9467 144.817 63.16C144.317 63.36 143.784 63.6467 143.22 64.02L142.508 62.54C143.175 62.0733 143.842 61.7267 144.509 61.5C145.189 61.2733 145.901 61.16 146.645 61.16C147.992 61.16 149.051 61.5333 149.82 62.28C150.603 63.0133 150.994 64.06 150.994 65.42V69.32C150.994 69.5733 151.033 69.7533 151.11 69.86C151.2 69.9667 151.347 70.0267 151.552 70.04V71.8C151.36 71.84 151.187 71.8667 151.033 71.88C150.879 71.8933 150.751 71.9 150.648 71.9C150.199 71.9 149.859 71.7867 149.628 71.56C149.397 71.3333 149.262 71.0667 149.224 70.76L149.166 70.16C148.73 70.7467 148.172 71.2 147.492 71.52C146.812 71.84 146.126 72 145.433 72C144.766 72 144.169 71.86 143.643 71.58C143.117 71.2867 142.706 70.8933 142.411 70.4C142.116 69.9067 141.969 69.3533 141.969 68.74ZM148.377 69.38C148.531 69.2067 148.653 69.0333 148.743 68.86C148.833 68.6867 148.877 68.5333 148.877 68.4V67.2C148.518 67.0533 148.14 66.9467 147.742 66.88C147.344 66.8 146.953 66.76 146.568 66.76C145.798 66.76 145.17 66.92 144.682 67.24C144.207 67.56 143.97 68 143.97 68.56C143.97 68.8667 144.047 69.16 144.201 69.44C144.368 69.72 144.599 69.9467 144.894 70.12C145.202 70.2933 145.58 70.38 146.029 70.38C146.491 70.38 146.934 70.2867 147.357 70.1C147.781 69.9133 148.121 69.6733 148.377 69.38Z" fill="#2E2C39"/>
<path d="M162.588 71.8H160.471V65.94C160.471 64.9667 160.318 64.2533 160.01 63.8C159.715 63.3467 159.272 63.12 158.682 63.12C158.271 63.12 157.861 63.2267 157.45 63.44C157.052 63.6533 156.693 63.9467 156.372 64.32C156.052 64.68 155.821 65.1 155.68 65.58V71.8H153.563V61.34H155.487V63.44C155.744 62.9733 156.077 62.5733 156.488 62.24C156.911 61.8933 157.386 61.6267 157.912 61.44C158.438 61.2533 158.996 61.16 159.586 61.16C160.189 61.16 160.683 61.2733 161.068 61.5C161.466 61.7267 161.774 62.04 161.992 62.44C162.223 62.8267 162.377 63.28 162.454 63.8C162.543 64.3067 162.588 64.8467 162.588 65.42V71.8Z" fill="#2E2C39"/>
<path d="M164.41 66.58C164.41 65.58 164.603 64.6733 164.988 63.86C165.386 63.0333 165.924 62.38 166.604 61.9C167.284 61.4067 168.067 61.16 168.952 61.16C169.722 61.16 170.415 61.3667 171.031 61.78C171.659 62.1933 172.147 62.7067 172.493 63.32V57.2H174.61V69.32C174.61 69.5733 174.655 69.7533 174.745 69.86C174.835 69.9667 174.982 70.0267 175.187 70.04V71.8C174.79 71.8667 174.482 71.9 174.264 71.9C173.866 71.9 173.526 71.78 173.244 71.54C172.974 71.3 172.833 71.0133 172.82 70.68L172.801 69.9C172.416 70.5667 171.897 71.0867 171.242 71.46C170.588 71.82 169.908 72 169.202 72C168.51 72 167.868 71.86 167.278 71.58C166.701 71.3 166.194 70.9067 165.758 70.4C165.334 69.8933 165.001 69.3133 164.757 68.66C164.526 68.0067 164.41 67.3133 164.41 66.58ZM172.493 68.04V65.3C172.352 64.8733 172.121 64.4933 171.8 64.16C171.492 63.8133 171.14 63.54 170.742 63.34C170.357 63.14 169.972 63.04 169.587 63.04C169.138 63.04 168.728 63.14 168.356 63.34C167.996 63.54 167.682 63.8067 167.413 64.14C167.156 64.4733 166.957 64.8533 166.816 65.28C166.675 65.7067 166.604 66.1533 166.604 66.62C166.604 67.1 166.681 67.5533 166.835 67.98C166.989 68.3933 167.207 68.7667 167.49 69.1C167.785 69.42 168.118 69.6733 168.49 69.86C168.875 70.0333 169.292 70.12 169.741 70.12C170.023 70.12 170.306 70.0667 170.588 69.96C170.883 69.8533 171.159 69.7067 171.416 69.52C171.685 69.3333 171.909 69.1133 172.089 68.86C172.282 68.6067 172.416 68.3333 172.493 68.04Z" fill="#2E2C39"/>
<path d="M182.054 71.8V61.34H184.171V71.8H182.054ZM182.054 59.62V57.2H184.171V59.62H182.054Z" fill="#2E2C39"/>
<path d="M195.74 71.8H193.623V65.94C193.623 64.9667 193.469 64.2533 193.162 63.8C192.866 63.3467 192.424 63.12 191.834 63.12C191.423 63.12 191.013 63.2267 190.602 63.44C190.204 63.6533 189.845 63.9467 189.524 64.32C189.204 64.68 188.973 65.1 188.831 65.58V71.8H186.715V61.34H188.639V63.44C188.896 62.9733 189.229 62.5733 189.64 62.24C190.063 61.8933 190.538 61.6267 191.064 61.44C191.59 61.2533 192.148 61.16 192.738 61.16C193.341 61.16 193.835 61.2733 194.22 61.5C194.618 61.7267 194.926 62.04 195.144 62.44C195.375 62.8267 195.529 63.28 195.606 63.8C195.695 64.3067 195.74 64.8467 195.74 65.42V71.8Z" fill="#2E2C39"/>
<path d="M203.722 71.26C203.543 71.3533 203.318 71.4533 203.049 71.56C202.779 71.6667 202.472 71.76 202.125 71.84C201.792 71.92 201.445 71.96 201.086 71.96C200.65 71.96 200.246 71.88 199.874 71.72C199.501 71.56 199.2 71.3067 198.969 70.96C198.751 70.6 198.642 70.14 198.642 69.58V63.04H197.314V61.34H198.642V57.9H200.759V61.34H202.953V63.04H200.759V68.88C200.784 69.24 200.894 69.5067 201.086 69.68C201.291 69.8533 201.541 69.94 201.836 69.94C202.132 69.94 202.414 69.8867 202.683 69.78C202.953 69.6733 203.152 69.5867 203.28 69.52L203.722 71.26Z" fill="#2E2C39"/>
<path d="M209.618 72C208.835 72 208.123 71.86 207.482 71.58C206.853 71.2867 206.308 70.8933 205.846 70.4C205.384 69.8933 205.025 69.32 204.768 68.68C204.525 68.0267 204.403 67.3333 204.403 66.6C204.403 65.6133 204.621 64.7133 205.057 63.9C205.493 63.0733 206.103 62.4133 206.885 61.92C207.668 61.4133 208.585 61.16 209.637 61.16C210.689 61.16 211.594 61.4133 212.351 61.92C213.121 62.4133 213.717 63.0667 214.141 63.88C214.564 64.6933 214.776 65.5667 214.776 66.5C214.776 66.66 214.769 66.8133 214.756 66.96C214.744 67.0933 214.731 67.2067 214.718 67.3H206.654C206.693 67.9133 206.853 68.4533 207.136 68.92C207.431 69.3733 207.803 69.7333 208.252 70C208.701 70.2533 209.182 70.38 209.695 70.38C210.26 70.38 210.792 70.2333 211.292 69.94C211.806 69.6467 212.152 69.26 212.332 68.78L214.141 69.32C213.922 69.8267 213.589 70.2867 213.14 70.7C212.704 71.1 212.184 71.42 211.581 71.66C210.978 71.8867 210.324 72 209.618 72ZM206.597 65.84H212.678C212.64 65.24 212.473 64.7133 212.178 64.26C211.895 63.7933 211.53 63.4333 211.081 63.18C210.644 62.9133 210.157 62.78 209.618 62.78C209.092 62.78 208.605 62.9133 208.156 63.18C207.719 63.4333 207.36 63.7933 207.078 64.26C206.796 64.7133 206.635 65.24 206.597 65.84Z" fill="#2E2C39"/>
<path d="M222.16 63.24C221.339 63.2533 220.608 63.4467 219.966 63.82C219.338 64.1933 218.889 64.72 218.619 65.4V71.8H216.502V61.34H218.465V63.68C218.812 62.96 219.267 62.3867 219.832 61.96C220.396 61.52 220.993 61.28 221.621 61.24C221.75 61.24 221.852 61.24 221.929 61.24C222.019 61.24 222.096 61.2467 222.16 61.26V63.24Z" fill="#2E2C39"/>
<path d="M232.726 71.8H230.609V65.94C230.609 64.9667 230.455 64.2533 230.147 63.8C229.852 63.3467 229.41 63.12 228.819 63.12C228.409 63.12 227.998 63.2267 227.588 63.44C227.19 63.6533 226.831 63.9467 226.51 64.32C226.189 64.68 225.958 65.1 225.817 65.58V71.8H223.7V61.34H225.625V63.44C225.881 62.9733 226.215 62.5733 226.626 62.24C227.049 61.8933 227.524 61.6267 228.05 61.44C228.576 61.2533 229.134 61.16 229.724 61.16C230.327 61.16 230.821 61.2733 231.206 61.5C231.604 61.7267 231.911 62.04 232.13 62.44C232.36 62.8267 232.514 63.28 232.591 63.8C232.681 64.3067 232.726 64.8467 232.726 65.42V71.8Z" fill="#2E2C39"/>
<path d="M234.452 68.74C234.452 68.0733 234.632 67.4933 234.991 67C235.363 66.4933 235.87 66.1067 236.511 65.84C237.153 65.56 237.897 65.42 238.744 65.42C239.193 65.42 239.648 65.4533 240.11 65.52C240.585 65.5867 241.002 65.6933 241.361 65.84V65.18C241.361 64.4467 241.149 63.8733 240.726 63.46C240.302 63.0467 239.693 62.84 238.897 62.84C238.333 62.84 237.801 62.9467 237.3 63.16C236.8 63.36 236.267 63.6467 235.703 64.02L234.991 62.54C235.658 62.0733 236.325 61.7267 236.992 61.5C237.672 61.2733 238.384 61.16 239.128 61.16C240.476 61.16 241.534 61.5333 242.304 62.28C243.086 63.0133 243.478 64.06 243.478 65.42V69.32C243.478 69.5733 243.516 69.7533 243.593 69.86C243.683 69.9667 243.831 70.0267 244.036 70.04V71.8C243.843 71.84 243.67 71.8667 243.516 71.88C243.362 71.8933 243.234 71.9 243.131 71.9C242.682 71.9 242.342 71.7867 242.111 71.56C241.88 71.3333 241.746 71.0667 241.707 70.76L241.649 70.16C241.213 70.7467 240.655 71.2 239.975 71.52C239.295 71.84 238.609 72 237.916 72C237.249 72 236.652 71.86 236.126 71.58C235.6 71.2867 235.19 70.8933 234.895 70.4C234.599 69.9067 234.452 69.3533 234.452 68.74ZM240.86 69.38C241.014 69.2067 241.136 69.0333 241.226 68.86C241.316 68.6867 241.361 68.5333 241.361 68.4V67.2C241.002 67.0533 240.623 66.9467 240.225 66.88C239.828 66.8 239.436 66.76 239.051 66.76C238.282 66.76 237.653 66.92 237.165 67.24C236.691 67.56 236.453 68 236.453 68.56C236.453 68.8667 236.53 69.16 236.684 69.44C236.851 69.72 237.082 69.9467 237.377 70.12C237.685 70.2933 238.064 70.38 238.513 70.38C238.974 70.38 239.417 70.2867 239.84 70.1C240.264 69.9133 240.604 69.6733 240.86 69.38Z" fill="#2E2C39"/>
<path d="M251.571 71.26C251.391 71.3533 251.167 71.4533 250.897 71.56C250.628 71.6667 250.32 71.76 249.974 71.84C249.64 71.92 249.294 71.96 248.934 71.96C248.498 71.96 248.094 71.88 247.722 71.72C247.35 71.56 247.048 71.3067 246.818 70.96C246.599 70.6 246.49 70.14 246.49 69.58V63.04H245.163V61.34H246.49V57.9H248.607V61.34H250.801V63.04H248.607V68.88C248.633 69.24 248.742 69.5067 248.934 69.68C249.14 69.8533 249.39 69.94 249.685 69.94C249.98 69.94 250.262 69.8867 250.532 69.78C250.801 69.6733 251 69.5867 251.128 69.52L251.571 71.26Z" fill="#2E2C39"/>
<path d="M253.037 71.8V61.34H255.154V71.8H253.037ZM253.037 59.62V57.2H255.154V59.62H253.037Z" fill="#2E2C39"/>
<path d="M262.22 72C261.425 72 260.713 71.86 260.084 71.58C259.456 71.2867 258.91 70.8867 258.449 70.38C257.999 69.8733 257.653 69.3 257.409 68.66C257.166 68.0067 257.044 67.3133 257.044 66.58C257.044 65.8467 257.166 65.1533 257.409 64.5C257.653 63.8467 257.999 63.2733 258.449 62.78C258.91 62.2733 259.456 61.88 260.084 61.6C260.726 61.3067 261.438 61.16 262.22 61.16C263.003 61.16 263.709 61.3067 264.337 61.6C264.979 61.88 265.524 62.2733 265.973 62.78C266.435 63.2733 266.788 63.8467 267.032 64.5C267.275 65.1533 267.397 65.8467 267.397 66.58C267.397 67.3133 267.275 68.0067 267.032 68.66C266.788 69.3 266.435 69.8733 265.973 70.38C265.524 70.8867 264.979 71.2867 264.337 71.58C263.709 71.86 263.003 72 262.22 72ZM259.218 66.6C259.218 67.2667 259.353 67.8667 259.622 68.4C259.892 68.9333 260.251 69.3533 260.7 69.66C261.149 69.9667 261.656 70.12 262.22 70.12C262.772 70.12 263.273 69.9667 263.722 69.66C264.183 69.34 264.549 68.9133 264.819 68.38C265.088 67.8333 265.223 67.2333 265.223 66.58C265.223 65.9133 265.088 65.3133 264.819 64.78C264.549 64.2467 264.183 63.8267 263.722 63.52C263.273 63.2 262.772 63.04 262.22 63.04C261.656 63.04 261.149 63.2 260.7 63.52C260.251 63.84 259.892 64.2667 259.622 64.8C259.353 65.32 259.218 65.92 259.218 66.6Z" fill="#2E2C39"/>
<path d="M278.301 71.8H276.184V65.94C276.184 64.9667 276.03 64.2533 275.722 63.8C275.427 63.3467 274.984 63.12 274.394 63.12C273.983 63.12 273.573 63.2267 273.162 63.44C272.765 63.6533 272.405 63.9467 272.085 64.32C271.764 64.68 271.533 65.1 271.392 65.58V71.8H269.275V61.34H271.199V63.44C271.456 62.9733 271.789 62.5733 272.2 62.24C272.623 61.8933 273.098 61.6267 273.624 61.44C274.15 61.2533 274.708 61.16 275.298 61.16C275.901 61.16 276.395 61.2733 276.78 61.5C277.178 61.7267 277.486 62.04 277.704 62.44C277.935 62.8267 278.089 63.28 278.166 63.8C278.256 64.3067 278.301 64.8467 278.301 65.42V71.8Z" fill="#2E2C39"/>
<path d="M280.026 68.74C280.026 68.0733 280.206 67.4933 280.565 67C280.937 66.4933 281.444 66.1067 282.086 65.84C282.727 65.56 283.471 65.42 284.318 65.42C284.767 65.42 285.223 65.4533 285.684 65.52C286.159 65.5867 286.576 65.6933 286.935 65.84V65.18C286.935 64.4467 286.724 63.8733 286.3 63.46C285.877 63.0467 285.267 62.84 284.472 62.84C283.907 62.84 283.375 62.9467 282.875 63.16C282.374 63.36 281.842 63.6467 281.277 64.02L280.565 62.54C281.232 62.0733 281.9 61.7267 282.567 61.5C283.247 61.2733 283.959 61.16 284.703 61.16C286.05 61.16 287.108 61.5333 287.878 62.28C288.661 63.0133 289.052 64.06 289.052 65.42V69.32C289.052 69.5733 289.091 69.7533 289.168 69.86C289.257 69.9667 289.405 70.0267 289.61 70.04V71.8C289.418 71.84 289.245 71.8667 289.091 71.88C288.937 71.8933 288.808 71.9 288.706 71.9C288.257 71.9 287.917 71.7867 287.686 71.56C287.455 71.3333 287.32 71.0667 287.282 70.76L287.224 70.16C286.788 70.7467 286.23 71.2 285.55 71.52C284.87 71.84 284.183 72 283.49 72C282.823 72 282.227 71.86 281.701 71.58C281.175 71.2867 280.764 70.8933 280.469 70.4C280.174 69.9067 280.026 69.3533 280.026 68.74ZM286.435 69.38C286.589 69.2067 286.711 69.0333 286.801 68.86C286.89 68.6867 286.935 68.5333 286.935 68.4V67.2C286.576 67.0533 286.198 66.9467 285.8 66.88C285.402 66.8 285.011 66.76 284.626 66.76C283.856 66.76 283.227 66.92 282.74 67.24C282.265 67.56 282.028 68 282.028 68.56C282.028 68.8667 282.105 69.16 282.259 69.44C282.426 69.72 282.657 69.9467 282.952 70.12C283.26 70.2933 283.638 70.38 284.087 70.38C284.549 70.38 284.992 70.2867 285.415 70.1C285.838 69.9133 286.178 69.6733 286.435 69.38Z" fill="#2E2C39"/>
<path d="M291.64 57.2H293.757V68.78C293.757 69.3133 293.834 69.6533 293.988 69.8C294.141 69.9467 294.334 70.02 294.565 70.02C294.821 70.02 295.059 69.9933 295.277 69.94C295.508 69.8867 295.707 69.82 295.873 69.74L296.181 71.48C295.874 71.6133 295.508 71.7267 295.084 71.82C294.661 71.9133 294.283 71.96 293.949 71.96C293.231 71.96 292.666 71.7533 292.256 71.34C291.845 70.9133 291.64 70.3267 291.64 69.58V57.2Z" fill="#2E2C39"/>
<path d="M307.277 63.24C306.455 63.2533 305.724 63.4467 305.083 63.82C304.454 64.1933 304.005 64.72 303.736 65.4V71.8H301.619V61.34H303.582V63.68C303.928 62.96 304.383 62.3867 304.948 61.96C305.512 61.52 306.109 61.28 306.738 61.24C306.866 61.24 306.969 61.24 307.046 61.24C307.135 61.24 307.212 61.2467 307.277 61.26V63.24Z" fill="#2E2C39"/>
<path d="M313.19 72C312.407 72 311.695 71.86 311.053 71.58C310.425 71.2867 309.88 70.8933 309.418 70.4C308.956 69.8933 308.597 69.32 308.34 68.68C308.096 68.0267 307.974 67.3333 307.974 66.6C307.974 65.6133 308.192 64.7133 308.629 63.9C309.065 63.0733 309.674 62.4133 310.457 61.92C311.24 61.4133 312.157 61.16 313.209 61.16C314.261 61.16 315.165 61.4133 315.922 61.92C316.692 62.4133 317.289 63.0667 317.712 63.88C318.135 64.6933 318.347 65.5667 318.347 66.5C318.347 66.66 318.341 66.8133 318.328 66.96C318.315 67.0933 318.302 67.2067 318.289 67.3H310.226C310.264 67.9133 310.425 68.4533 310.707 68.92C311.002 69.3733 311.374 69.7333 311.823 70C312.272 70.2533 312.753 70.38 313.267 70.38C313.831 70.38 314.364 70.2333 314.864 69.94C315.377 69.6467 315.723 69.26 315.903 68.78L317.712 69.32C317.494 69.8267 317.16 70.2867 316.711 70.7C316.275 71.1 315.756 71.42 315.153 71.66C314.55 71.8867 313.895 72 313.19 72ZM310.168 65.84H316.25C316.211 65.24 316.044 64.7133 315.749 64.26C315.467 63.7933 315.101 63.4333 314.652 63.18C314.216 62.9133 313.728 62.78 313.19 62.78C312.664 62.78 312.176 62.9133 311.727 63.18C311.291 63.4333 310.932 63.7933 310.649 64.26C310.367 64.7133 310.207 65.24 310.168 65.84Z" fill="#2E2C39"/>
<path d="M320.093 57.2H322.21V68.78C322.21 69.3133 322.287 69.6533 322.441 69.8C322.595 69.9467 322.787 70.02 323.018 70.02C323.275 70.02 323.512 69.9933 323.73 69.94C323.961 69.8867 324.16 69.82 324.327 69.74L324.635 71.48C324.327 71.6133 323.961 71.7267 323.538 71.82C323.115 71.9133 322.736 71.96 322.403 71.96C321.684 71.96 321.12 71.7533 320.709 71.34C320.298 70.9133 320.093 70.3267 320.093 69.58V57.2Z" fill="#2E2C39"/>
<path d="M325.131 68.74C325.131 68.0733 325.311 67.4933 325.67 67C326.042 66.4933 326.549 66.1067 327.19 65.84C327.832 65.56 328.576 65.42 329.423 65.42C329.872 65.42 330.327 65.4533 330.789 65.52C331.264 65.5867 331.681 65.6933 332.04 65.84V65.18C332.04 64.4467 331.828 63.8733 331.405 63.46C330.981 63.0467 330.372 62.84 329.577 62.84C329.012 62.84 328.48 62.9467 327.979 63.16C327.479 63.36 326.946 63.6467 326.382 64.02L325.67 62.54C326.337 62.0733 327.004 61.7267 327.671 61.5C328.351 61.2733 329.063 61.16 329.808 61.16C331.155 61.16 332.213 61.5333 332.983 62.28C333.766 63.0133 334.157 64.06 334.157 65.42V69.32C334.157 69.5733 334.195 69.7533 334.272 69.86C334.362 69.9667 334.51 70.0267 334.715 70.04V71.8C334.522 71.84 334.349 71.8667 334.195 71.88C334.041 71.8933 333.913 71.9 333.81 71.9C333.361 71.9 333.021 71.7867 332.79 71.56C332.56 71.3333 332.425 71.0667 332.386 70.76L332.329 70.16C331.892 70.7467 331.334 71.2 330.654 71.52C329.974 71.84 329.288 72 328.595 72C327.928 72 327.331 71.86 326.805 71.58C326.279 71.2867 325.869 70.8933 325.574 70.4C325.279 69.9067 325.131 69.3533 325.131 68.74ZM331.54 69.38C331.693 69.2067 331.815 69.0333 331.905 68.86C331.995 68.6867 332.04 68.5333 332.04 68.4V67.2C331.681 67.0533 331.302 66.9467 330.904 66.88C330.507 66.8 330.115 66.76 329.731 66.76C328.961 66.76 328.332 66.92 327.845 67.24C327.37 67.56 327.133 68 327.133 68.56C327.133 68.8667 327.21 69.16 327.363 69.44C327.53 69.72 327.761 69.9467 328.056 70.12C328.364 70.2933 328.743 70.38 329.192 70.38C329.654 70.38 330.096 70.2867 330.52 70.1C330.943 69.9133 331.283 69.6733 331.54 69.38Z" fill="#2E2C39"/>
<path d="M342.25 71.26C342.07 71.3533 341.846 71.4533 341.577 71.56C341.307 71.6667 340.999 71.76 340.653 71.84C340.319 71.92 339.973 71.96 339.614 71.96C339.177 71.96 338.773 71.88 338.401 71.72C338.029 71.56 337.728 71.3067 337.497 70.96C337.279 70.6 337.169 70.14 337.169 69.58V63.04H335.842V61.34H337.169V57.9H339.286V61.34H341.48V63.04H339.286V68.88C339.312 69.24 339.421 69.5067 339.614 69.68C339.819 69.8533 340.069 69.94 340.364 69.94C340.659 69.94 340.941 69.8867 341.211 69.78C341.48 69.6733 341.679 69.5867 341.807 69.52L342.25 71.26Z" fill="#2E2C39"/>
<path d="M343.716 71.8V61.34H345.833V71.8H343.716ZM343.716 59.62V57.2H345.833V59.62H343.716Z" fill="#2E2C39"/>
<path d="M352.9 72C352.104 72 351.392 71.86 350.763 71.58C350.135 71.2867 349.59 70.8867 349.128 70.38C348.679 69.8733 348.332 69.3 348.088 68.66C347.845 68.0067 347.723 67.3133 347.723 66.58C347.723 65.8467 347.845 65.1533 348.088 64.5C348.332 63.8467 348.679 63.2733 349.128 62.78C349.59 62.2733 350.135 61.88 350.763 61.6C351.405 61.3067 352.117 61.16 352.9 61.16C353.682 61.16 354.388 61.3067 355.017 61.6C355.658 61.88 356.203 62.2733 356.652 62.78C357.114 63.2733 357.467 63.8467 357.711 64.5C357.955 65.1533 358.076 65.8467 358.076 66.58C358.076 67.3133 357.955 68.0067 357.711 68.66C357.467 69.3 357.114 69.8733 356.652 70.38C356.203 70.8867 355.658 71.2867 355.017 71.58C354.388 71.86 353.682 72 352.9 72ZM349.897 66.6C349.897 67.2667 350.032 67.8667 350.302 68.4C350.571 68.9333 350.93 69.3533 351.379 69.66C351.828 69.9667 352.335 70.12 352.9 70.12C353.451 70.12 353.952 69.9667 354.401 69.66C354.863 69.34 355.228 68.9133 355.498 68.38C355.767 67.8333 355.902 67.2333 355.902 66.58C355.902 65.9133 355.767 65.3133 355.498 64.78C355.228 64.2467 354.863 63.8267 354.401 63.52C353.952 63.2 353.451 63.04 352.9 63.04C352.335 63.04 351.828 63.2 351.379 63.52C350.93 63.84 350.571 64.2667 350.302 64.8C350.032 65.32 349.897 65.92 349.897 66.6Z" fill="#2E2C39"/>
<path d="M368.98 71.8H366.863V65.94C366.863 64.9667 366.709 64.2533 366.401 63.8C366.106 63.3467 365.663 63.12 365.073 63.12C364.662 63.12 364.252 63.2267 363.841 63.44C363.444 63.6533 363.084 63.9467 362.764 64.32C362.443 64.68 362.212 65.1 362.071 65.58V71.8H359.954V61.34H361.878V63.44C362.135 62.9733 362.469 62.5733 362.879 62.24C363.303 61.8933 363.777 61.6267 364.303 61.44C364.829 61.2533 365.387 61.16 365.978 61.16C366.581 61.16 367.074 61.2733 367.459 61.5C367.857 61.7267 368.165 62.04 368.383 62.44C368.614 62.8267 368.768 63.28 368.845 63.8C368.935 64.3067 368.98 64.8467 368.98 65.42V71.8Z" fill="#2E2C39"/>
<path d="M375.016 72C374.17 72 373.368 71.86 372.611 71.58C371.854 71.2867 371.206 70.8533 370.667 70.28L371.456 68.8C372.033 69.3333 372.611 69.72 373.188 69.96C373.778 70.2 374.362 70.32 374.939 70.32C375.53 70.32 376.011 70.2067 376.383 69.98C376.755 69.74 376.941 69.3933 376.941 68.94C376.941 68.6067 376.845 68.36 376.652 68.2C376.46 68.04 376.177 67.9 375.805 67.78C375.446 67.66 375.01 67.5267 374.497 67.38C373.778 67.1533 373.175 66.92 372.688 66.68C372.2 66.4267 371.835 66.12 371.591 65.76C371.347 65.4 371.225 64.94 371.225 64.38C371.225 63.7 371.392 63.12 371.726 62.64C372.059 62.16 372.521 61.7933 373.111 61.54C373.714 61.2867 374.407 61.16 375.19 61.16C375.921 61.16 376.594 61.28 377.21 61.52C377.839 61.7467 378.391 62.1067 378.865 62.6L377.961 64.06C377.512 63.6333 377.05 63.32 376.575 63.12C376.113 62.92 375.613 62.82 375.074 62.82C374.766 62.82 374.471 62.86 374.189 62.94C373.907 63.0067 373.669 63.14 373.477 63.34C373.297 63.5267 373.207 63.7933 373.207 64.14C373.207 64.42 373.284 64.6467 373.438 64.82C373.592 64.9933 373.823 65.14 374.131 65.26C374.439 65.38 374.818 65.5133 375.267 65.66C376.049 65.9 376.716 66.14 377.268 66.38C377.82 66.6067 378.243 66.9067 378.538 67.28C378.846 67.64 379 68.14 379 68.78C379 69.7933 378.634 70.5867 377.903 71.16C377.185 71.72 376.222 72 375.016 72Z" fill="#2E2C39"/>
<path d="M11.8149 96.4085C10.786 96.4085 9.85729 96.2017 9.02881 95.788C8.20033 95.3744 7.48544 94.8159 6.88412 94.1127C6.28281 93.3957 5.81512 92.596 5.48105 91.7135C5.16035 90.8173 5 89.9004 5 88.9628C5 87.9838 5.17371 87.0531 5.52114 86.1706C5.86857 85.2744 6.34962 84.4816 6.9643 83.7921C7.57897 83.0889 8.30055 82.5374 9.12903 82.1375C9.97087 81.7239 10.8795 81.5171 11.855 81.5171C12.8705 81.5171 13.7926 81.7308 14.621 82.1582C15.4629 82.5857 16.1778 83.1579 16.7657 83.8749C17.367 84.5919 17.8281 85.3916 18.1488 86.274C18.4828 87.1565 18.6498 88.0596 18.6498 88.9835C18.6498 89.9624 18.4761 90.9 18.1287 91.7963C17.7946 92.6787 17.3203 93.4716 16.7056 94.1748C16.0909 94.8642 15.3627 95.4088 14.5208 95.8087C13.6923 96.2085 12.7904 96.4085 11.8149 96.4085ZM7.285 88.9628C7.285 89.6522 7.3919 90.3209 7.6057 90.969C7.8195 91.617 8.12016 92.1961 8.50767 92.7063C8.90855 93.2027 9.3896 93.5957 9.95083 93.8852C10.5121 94.1748 11.1401 94.3195 11.8349 94.3195C12.5565 94.3195 13.1979 94.1679 13.7592 93.8645C14.3204 93.5612 14.7881 93.1544 15.1622 92.6443C15.5497 92.1203 15.8437 91.5412 16.0441 90.9069C16.2446 90.2589 16.3448 89.6108 16.3448 88.9628C16.3448 88.2734 16.2379 87.6115 16.0241 86.9772C15.8237 86.3292 15.523 85.757 15.1221 85.2606C14.7213 84.7504 14.2402 84.3506 13.679 84.061C13.1311 83.7715 12.5164 83.6267 11.8349 83.6267C11.1134 83.6267 10.472 83.7784 9.91074 84.0817C9.34951 84.385 8.87514 84.7918 8.48763 85.302C8.10011 85.8121 7.79945 86.3843 7.58565 87.0186C7.38522 87.6529 7.285 88.3009 7.285 88.9628Z" fill="#2E2C39"/>
<path d="M20.0319 90.9069C20.0319 89.8728 20.2324 88.9352 20.6332 88.0941C21.0475 87.2392 21.6087 86.5636 22.3169 86.0672C23.0251 85.557 23.8403 85.302 24.7623 85.302C25.564 85.302 26.2856 85.5157 26.927 85.9431C27.5818 86.3706 28.0896 86.9014 28.4503 87.5357V81.2068H30.6552V93.7404C30.6552 94.0024 30.7019 94.1886 30.7955 94.2989C30.889 94.4092 31.0427 94.4712 31.2565 94.485V96.3051C30.8422 96.374 30.5215 96.4085 30.2944 96.4085C29.8801 96.4085 29.526 96.2844 29.2321 96.0362C28.9514 95.788 28.8044 95.4916 28.7911 95.1468L28.771 94.3402C28.3702 95.0296 27.829 95.5674 27.1475 95.9535C26.466 96.3257 25.7578 96.5119 25.0228 96.5119C24.3013 96.5119 23.6331 96.3671 23.0185 96.0776C22.4171 95.788 21.8893 95.3812 21.435 94.8573C20.994 94.3333 20.6466 93.7335 20.3927 93.0579C20.1522 92.3823 20.0319 91.6653 20.0319 90.9069ZM28.4503 92.4168V89.5832C28.3034 89.142 28.0628 88.7491 27.7288 88.4043C27.4081 88.0458 27.0406 87.7632 26.6264 87.5564C26.2255 87.3495 25.8246 87.2461 25.4237 87.2461C24.956 87.2461 24.5284 87.3495 24.1409 87.5564C23.7668 87.7632 23.4394 88.039 23.1588 88.3837C22.8915 88.7284 22.6844 89.1213 22.5374 89.5626C22.3904 90.0038 22.3169 90.4657 22.3169 90.9483C22.3169 91.4447 22.3971 91.9135 22.5575 92.3547C22.7178 92.7821 22.945 93.1682 23.2389 93.5129C23.5463 93.8438 23.8937 94.1058 24.2812 94.2989C24.6821 94.4781 25.1164 94.5677 25.5841 94.5677C25.878 94.5677 26.172 94.5126 26.466 94.4023C26.7733 94.292 27.0606 94.1403 27.3279 93.9473C27.6085 93.7542 27.8423 93.5267 28.0294 93.2647C28.2299 93.0028 28.3702 92.7201 28.4503 92.4168Z" fill="#2E2C39"/>
<path d="M38.206 96.5119C37.3909 96.5119 36.6493 96.3671 35.9812 96.0776C35.3264 95.7742 34.7585 95.3675 34.2775 94.8573C33.7964 94.3333 33.4223 93.7404 33.155 93.0786C32.9011 92.403 32.7742 91.686 32.7742 90.9276C32.7742 89.9073 33.0013 88.9766 33.4557 88.1355C33.91 87.2806 34.5447 86.5981 35.3598 86.0879C36.1749 85.5639 37.1304 85.302 38.2261 85.302C39.3218 85.302 40.2639 85.5639 41.0523 86.0879C41.854 86.5981 42.4754 87.2737 42.9163 88.1148C43.3573 88.9559 43.5778 89.859 43.5778 90.8242C43.5778 90.9897 43.5711 91.1482 43.5578 91.2999C43.5444 91.4378 43.531 91.555 43.5177 91.6515H35.1193C35.1594 92.2858 35.3264 92.8442 35.6204 93.3268C35.9277 93.7956 36.3152 94.1679 36.7829 94.4436C37.2506 94.7056 37.7517 94.8366 38.2862 94.8366C38.8742 94.8366 39.4287 94.6849 39.9499 94.3816C40.4844 94.0782 40.8452 93.6784 41.0322 93.182L42.9163 93.7404C42.6892 94.2644 42.3418 94.7401 41.8741 95.1675C41.4197 95.5812 40.8786 95.9121 40.2505 96.1603C39.6225 96.3947 38.941 96.5119 38.206 96.5119ZM35.0592 90.1417H41.393C41.3529 89.5212 41.1792 88.9766 40.8719 88.5078C40.5779 88.0252 40.1971 87.6529 39.7294 87.3909C39.2751 87.1151 38.7673 86.9772 38.206 86.9772C37.6582 86.9772 37.1504 87.1151 36.6827 87.3909C36.2284 87.6529 35.8542 88.0252 35.5603 88.5078C35.2663 88.9766 35.0993 89.5212 35.0592 90.1417Z" fill="#2E2C39"/>
<path d="M49.1044 96.5119C48.2225 96.5119 47.3873 96.3671 46.5989 96.0776C45.8105 95.7742 45.1357 95.3261 44.5745 94.7332L45.3963 93.2027C45.9976 93.7542 46.5989 94.1541 47.2002 94.4023C47.8149 94.6505 48.4229 94.7746 49.0242 94.7746C49.6389 94.7746 50.14 94.6574 50.5275 94.423C50.915 94.1748 51.1088 93.8163 51.1088 93.3475C51.1088 93.0028 51.0086 92.7477 50.8081 92.5822C50.6077 92.4168 50.3137 92.272 49.9262 92.1479C49.5521 92.0238 49.0977 91.8859 48.5632 91.7342C47.8149 91.4998 47.1869 91.2585 46.6791 91.0103C46.1713 90.7484 45.7905 90.4312 45.5366 90.0589C45.2827 89.6867 45.1558 89.211 45.1558 88.6319C45.1558 87.9286 45.3295 87.3289 45.6769 86.8325C46.0243 86.3361 46.5054 85.9569 47.1201 85.6949C47.7481 85.433 48.4697 85.302 49.2848 85.302C50.0465 85.302 50.748 85.4261 51.3894 85.6743C52.0442 85.9087 52.6188 86.2809 53.1132 86.7911L52.1711 88.3009C51.7034 87.8597 51.2224 87.5357 50.728 87.3289C50.2469 87.122 49.7258 87.0186 49.1645 87.0186C48.8438 87.0186 48.5365 87.06 48.2425 87.1427C47.9485 87.2117 47.7013 87.3495 47.5009 87.5564C47.3138 87.7494 47.2203 88.0252 47.2203 88.3837C47.2203 88.6732 47.3005 88.9076 47.4608 89.0869C47.6212 89.2661 47.8617 89.4178 48.1824 89.5419C48.5031 89.666 48.8973 89.8039 49.365 89.9555C50.1801 90.2037 50.875 90.4519 51.4495 90.7001C52.0241 90.9345 52.4651 91.2447 52.7724 91.6308C53.0931 92.0031 53.2535 92.5202 53.2535 93.182C53.2535 94.2299 52.8727 95.0503 52.111 95.6432C51.3627 96.2223 50.3605 96.5119 49.1044 96.5119Z" fill="#2E2C39"/>
<path d="M54.4603 93.1406C54.4603 92.4512 54.6474 91.8514 55.0216 91.3413C55.4091 90.8173 55.9369 90.4174 56.605 90.1417C57.2732 89.8521 58.0482 89.7073 58.9301 89.7073C59.3978 89.7073 59.8722 89.7418 60.3532 89.8108C60.8476 89.8797 61.2819 89.99 61.6561 90.1417V89.4592C61.6561 88.7008 61.4356 88.1079 60.9946 87.6805C60.5537 87.253 59.9189 87.0393 59.0905 87.0393C58.5025 87.0393 57.948 87.1496 57.4268 87.3702C56.9057 87.577 56.3511 87.8735 55.7632 88.2596L55.0216 86.7291C55.7164 86.2465 56.4113 85.888 57.1061 85.6536C57.8143 85.4192 58.556 85.302 59.331 85.302C60.7341 85.302 61.8365 85.688 62.6382 86.4602C63.4533 87.2185 63.8609 88.3009 63.8609 89.7073V93.7404C63.8609 94.0024 63.901 94.1886 63.9812 94.2989C64.0747 94.4092 64.2284 94.4712 64.4422 94.485V96.3051C64.2417 96.3464 64.0613 96.374 63.901 96.3878C63.7406 96.4016 63.607 96.4085 63.5001 96.4085C63.0324 96.4085 62.6783 96.2913 62.4378 96.0569C62.1973 95.8225 62.057 95.5467 62.0169 95.2296L61.9567 94.6091C61.5024 95.2158 60.9211 95.6846 60.2129 96.0155C59.5047 96.3464 58.7898 96.5119 58.0682 96.5119C57.3734 96.5119 56.752 96.3671 56.2042 96.0776C55.6563 95.7742 55.2287 95.3675 54.9213 94.8573C54.614 94.3471 54.4603 93.7749 54.4603 93.1406ZM61.1349 93.8025C61.2953 93.6232 61.4222 93.444 61.5158 93.2647C61.6093 93.0855 61.6561 92.9269 61.6561 92.789V91.5481C61.2819 91.3964 60.8877 91.2861 60.4735 91.2172C60.0592 91.1344 59.6517 91.0931 59.2508 91.0931C58.4491 91.0931 57.7943 91.2585 57.2865 91.5895C56.7921 91.9204 56.5449 92.3754 56.5449 92.9545C56.5449 93.2716 56.6251 93.575 56.7854 93.8645C56.9591 94.1541 57.1997 94.3885 57.507 94.5677C57.8277 94.747 58.2219 94.8366 58.6896 94.8366C59.1706 94.8366 59.6316 94.7401 60.0726 94.5471C60.5136 94.354 60.8677 94.1058 61.1349 93.8025Z" fill="#2E2C39"/>
<path d="M80.8886 96.3051H78.6838V90.2451C78.6838 89.2385 78.5234 88.5009 78.2027 88.0321C77.8954 87.5633 77.4344 87.3289 76.8197 87.3289C76.3921 87.3289 75.9645 87.4392 75.5369 87.6598C75.1227 87.8804 74.7485 88.1837 74.4144 88.5698C74.0804 88.9421 73.8399 89.3764 73.6929 89.8728V96.3051H71.488V85.4881H73.4924V87.6598C73.7597 87.1772 74.1071 86.7635 74.5347 86.4188C74.9757 86.0603 75.4701 85.7846 76.0179 85.5915C76.5658 85.3985 77.1471 85.302 77.7618 85.302C78.3898 85.302 78.9043 85.4192 79.3051 85.6536C79.7194 85.888 80.0401 86.212 80.2672 86.6256C80.5078 87.0255 80.6681 87.4943 80.7483 88.0321C80.8418 88.556 80.8886 89.1144 80.8886 89.7073V96.3051Z" fill="#2E2C39"/>
<path d="M82.6861 93.1406C82.6861 92.4512 82.8732 91.8514 83.2473 91.3413C83.6349 90.8173 84.1627 90.4174 84.8308 90.1417C85.4989 89.8521 86.274 89.7073 87.1559 89.7073C87.6236 89.7073 88.098 89.7418 88.579 89.8108C89.0734 89.8797 89.5077 89.99 89.8819 90.1417V89.4592C89.8819 88.7008 89.6614 88.1079 89.2204 87.6805C88.7794 87.253 88.1447 87.0393 87.3162 87.0393C86.7283 87.0393 86.1737 87.1496 85.6526 87.3702C85.1315 87.577 84.5769 87.8735 83.989 88.2596L83.2473 86.7291C83.9422 86.2465 84.6371 85.888 85.3319 85.6536C86.0401 85.4192 86.7817 85.302 87.5568 85.302C88.9598 85.302 90.0623 85.688 90.864 86.4602C91.6791 87.2185 92.0867 88.3009 92.0867 89.7073V93.7404C92.0867 94.0024 92.1268 94.1886 92.2069 94.2989C92.3005 94.4092 92.4542 94.4712 92.668 94.485V96.3051C92.4675 96.3464 92.2871 96.374 92.1268 96.3878C91.9664 96.4016 91.8328 96.4085 91.7259 96.4085C91.2582 96.4085 90.9041 96.2913 90.6636 96.0569C90.423 95.8225 90.2827 95.5467 90.2426 95.2296L90.1825 94.6091C89.7282 95.2158 89.1469 95.6846 88.4387 96.0155C87.7305 96.3464 87.0156 96.5119 86.294 96.5119C85.5992 96.5119 84.9778 96.3671 84.4299 96.0776C83.8821 95.7742 83.4545 95.3675 83.1471 94.8573C82.8398 94.3471 82.6861 93.7749 82.6861 93.1406ZM89.3607 93.8025C89.5211 93.6232 89.648 93.444 89.7415 93.2647C89.8351 93.0855 89.8819 92.9269 89.8819 92.789V91.5481C89.5077 91.3964 89.1135 91.2861 88.6993 91.2172C88.285 91.1344 87.8775 91.0931 87.4766 91.0931C86.6748 91.0931 86.0201 91.2585 85.5123 91.5895C85.0179 91.9204 84.7707 92.3754 84.7707 92.9545C84.7707 93.2716 84.8509 93.575 85.0112 93.8645C85.1849 94.1541 85.4254 94.3885 85.7328 94.5677C86.0535 94.747 86.4477 94.8366 86.9154 94.8366C87.3964 94.8366 87.8574 94.7401 88.2984 94.5471C88.7394 94.354 89.0935 94.1058 89.3607 93.8025Z" fill="#2E2C39"/>
<path d="M100.516 95.7466C100.329 95.8432 100.095 95.9466 99.8145 96.0569C99.5339 96.1672 99.2132 96.2637 98.8524 96.3464C98.505 96.4292 98.1442 96.4705 97.77 96.4705C97.3157 96.4705 96.8948 96.3878 96.5073 96.2223C96.1198 96.0569 95.8057 95.7949 95.5652 95.4364C95.3381 95.0641 95.2245 94.5884 95.2245 94.0093V87.2461H93.8415V85.4881H95.2245V81.9307H97.4293V85.4881H99.7143V87.2461H97.4293V93.2854C97.456 93.6577 97.5696 93.9335 97.77 94.1127C97.9838 94.292 98.2444 94.3816 98.5518 94.3816C98.8591 94.3816 99.1531 94.3264 99.4337 94.2161C99.7143 94.1058 99.9214 94.0162 100.055 93.9473L100.516 95.7466Z" fill="#2E2C39"/>
<path d="M102.043 96.3051V85.4881H104.248V96.3051H102.043ZM102.043 83.7094V81.2068H104.248V83.7094H102.043Z" fill="#2E2C39"/>
<path d="M111.608 96.5119C110.779 96.5119 110.038 96.3671 109.383 96.0776C108.728 95.7742 108.16 95.3606 107.679 94.8366C107.212 94.3127 106.851 93.7198 106.597 93.0579C106.343 92.3823 106.216 91.6653 106.216 90.9069C106.216 90.1486 106.343 89.4316 106.597 88.7559C106.851 88.0803 107.212 87.4874 107.679 86.9772C108.16 86.4533 108.728 86.0465 109.383 85.757C110.051 85.4536 110.793 85.302 111.608 85.302C112.423 85.302 113.158 85.4536 113.813 85.757C114.481 86.0465 115.049 86.4533 115.516 86.9772C115.997 87.4874 116.365 88.0803 116.619 88.7559C116.873 89.4316 117 90.1486 117 90.9069C117 91.6653 116.873 92.3823 116.619 93.0579C116.365 93.7198 115.997 94.3127 115.516 94.8366C115.049 95.3606 114.481 95.7742 113.813 96.0776C113.158 96.3671 112.423 96.5119 111.608 96.5119ZM108.481 90.9276C108.481 91.617 108.621 92.2375 108.902 92.789C109.182 93.3406 109.557 93.7749 110.024 94.092C110.492 94.4092 111.02 94.5677 111.608 94.5677C112.182 94.5677 112.704 94.4092 113.171 94.092C113.652 93.7611 114.033 93.3199 114.314 92.7684C114.594 92.203 114.735 91.5826 114.735 90.9069C114.735 90.2175 114.594 89.597 114.314 89.0455C114.033 88.494 113.652 88.0596 113.171 87.7425C112.704 87.4116 112.182 87.2461 111.608 87.2461C111.02 87.2461 110.492 87.4116 110.024 87.7425C109.557 88.0734 109.182 88.5147 108.902 89.0662C108.621 89.6039 108.481 90.2244 108.481 90.9276Z" fill="#2E2C39"/>
<path d="M128.356 96.3051H126.151V90.2451C126.151 89.2385 125.991 88.5009 125.67 88.0321C125.362 87.5633 124.901 87.3289 124.287 87.3289C123.859 87.3289 123.432 87.4392 123.004 87.6598C122.59 87.8804 122.216 88.1837 121.882 88.5698C121.547 88.9421 121.307 89.3764 121.16 89.8728V96.3051H118.955V85.4881H120.96V87.6598C121.227 87.1772 121.574 86.7635 122.002 86.4188C122.443 86.0603 122.937 85.7846 123.485 85.5915C124.033 85.3985 124.614 85.302 125.229 85.302C125.857 85.302 126.371 85.4192 126.772 85.6536C127.186 85.888 127.507 86.212 127.734 86.6256C127.975 87.0255 128.135 87.4943 128.215 88.0321C128.309 88.556 128.356 89.1144 128.356 89.7073V96.3051Z" fill="#2E2C39"/>
<path d="M130.153 93.1406C130.153 92.4512 130.34 91.8514 130.714 91.3413C131.102 90.8173 131.63 90.4174 132.298 90.1417C132.966 89.8521 133.741 89.7073 134.623 89.7073C135.091 89.7073 135.565 89.7418 136.046 89.8108C136.541 89.8797 136.975 89.99 137.349 90.1417V89.4592C137.349 88.7008 137.128 88.1079 136.687 87.6805C136.247 87.253 135.612 87.0393 134.783 87.0393C134.195 87.0393 133.641 87.1496 133.12 87.3702C132.599 87.577 132.044 87.8735 131.456 88.2596L130.714 86.7291C131.409 86.2465 132.104 85.888 132.799 85.6536C133.507 85.4192 134.249 85.302 135.024 85.302C136.427 85.302 137.529 85.688 138.331 86.4602C139.146 87.2185 139.554 88.3009 139.554 89.7073V93.7404C139.554 94.0024 139.594 94.1886 139.674 94.2989C139.768 94.4092 139.921 94.4712 140.135 94.485V96.3051C139.935 96.3464 139.754 96.374 139.594 96.3878C139.433 96.4016 139.3 96.4085 139.193 96.4085C138.725 96.4085 138.371 96.2913 138.131 96.0569C137.89 95.8225 137.75 95.5467 137.71 95.2296L137.65 94.6091C137.195 95.2158 136.614 95.6846 135.906 96.0155C135.198 96.3464 134.483 96.5119 133.761 96.5119C133.066 96.5119 132.445 96.3671 131.897 96.0776C131.349 95.7742 130.922 95.3675 130.614 94.8573C130.307 94.3471 130.153 93.7749 130.153 93.1406ZM136.828 93.8025C136.988 93.6232 137.115 93.444 137.209 93.2647C137.302 93.0855 137.349 92.9269 137.349 92.789V91.5481C136.975 91.3964 136.581 91.2861 136.166 91.2172C135.752 91.1344 135.345 91.0931 134.944 91.0931C134.142 91.0931 133.487 91.2585 132.979 91.5895C132.485 91.9204 132.238 92.3754 132.238 92.9545C132.238 93.2716 132.318 93.575 132.478 93.8645C132.652 94.1541 132.893 94.3885 133.2 94.5677C133.521 94.747 133.915 94.8366 134.382 94.8366C134.863 94.8366 135.325 94.7401 135.765 94.5471C136.206 94.354 136.561 94.1058 136.828 93.8025Z" fill="#2E2C39"/>
<path d="M142.249 81.2068H144.454V93.182C144.454 93.7335 144.534 94.0851 144.694 94.2368C144.854 94.3885 145.055 94.4643 145.295 94.4643C145.563 94.4643 145.81 94.4367 146.037 94.3816C146.278 94.3264 146.485 94.2575 146.658 94.1748L146.979 95.9741C146.658 96.112 146.278 96.2292 145.837 96.3258C145.396 96.4223 145.001 96.4705 144.654 96.4705C143.906 96.4705 143.318 96.2568 142.89 95.8294C142.463 95.3881 142.249 94.7815 142.249 94.0093V81.2068Z" fill="#2E2C39"/>
<path d="M152.542 92.1065V85.4881H154.747V91.6515C154.747 92.6167 154.914 93.3475 155.248 93.8438C155.595 94.3264 156.096 94.5677 156.751 94.5677C157.165 94.5677 157.566 94.4781 157.954 94.2989C158.355 94.1196 158.715 93.8576 159.036 93.5129C159.37 93.1544 159.637 92.727 159.838 92.2306V85.4881H162.043V93.7404C162.043 94.0024 162.089 94.1886 162.183 94.2989C162.276 94.4092 162.43 94.4712 162.644 94.485V96.3051C162.417 96.3464 162.23 96.374 162.083 96.3878C161.936 96.4016 161.795 96.4085 161.662 96.4085C161.261 96.4085 160.927 96.2982 160.66 96.0776C160.392 95.8432 160.239 95.5467 160.199 95.1882L160.158 94.1127C159.691 94.8987 159.083 95.4984 158.335 95.9121C157.586 96.312 156.764 96.5119 155.869 96.5119C154.773 96.5119 153.945 96.1396 153.384 95.395C152.822 94.6505 152.542 93.5543 152.542 92.1065Z" fill="#2E2C39"/>
<path d="M174.257 96.3051H172.052V90.2451C172.052 89.2385 171.892 88.5009 171.571 88.0321C171.264 87.5633 170.803 87.3289 170.188 87.3289C169.76 87.3289 169.333 87.4392 168.905 87.6598C168.491 87.8804 168.117 88.1837 167.783 88.5698C167.449 88.9421 167.208 89.3764 167.061 89.8728V96.3051H164.856V85.4881H166.861V87.6598C167.128 87.1772 167.475 86.7635 167.903 86.4188C168.344 86.0603 168.838 85.7846 169.386 85.5915C169.934 85.3985 170.515 85.302 171.13 85.302C171.758 85.302 172.272 85.4192 172.673 85.6536C173.088 85.888 173.408 86.212 173.635 86.6256C173.876 87.0255 174.036 87.4943 174.117 88.0321C174.21 88.556 174.257 89.1144 174.257 89.7073V96.3051Z" fill="#2E2C39"/>
<path d="M176.816 96.3051V85.4881H179.021V96.3051H176.816ZM176.816 83.7094V81.2068H179.021V83.7094H176.816Z" fill="#2E2C39"/>
<path d="M184.597 96.3051L180.608 85.4881H182.893L185.88 94.1955L188.866 85.4881H190.991L187.002 96.3051H184.597Z" fill="#2E2C39"/>
<path d="M196.971 96.5119C196.156 96.5119 195.414 96.3671 194.746 96.0776C194.092 95.7742 193.524 95.3675 193.043 94.8573C192.562 94.3333 192.187 93.7404 191.92 93.0786C191.666 92.403 191.539 91.686 191.539 90.9276C191.539 89.9073 191.766 88.9766 192.221 88.1355C192.675 87.2806 193.31 86.5981 194.125 86.0879C194.94 85.5639 195.895 85.302 196.991 85.302C198.087 85.302 199.029 85.5639 199.817 86.0879C200.619 86.5981 201.241 87.2737 201.681 88.1148C202.122 88.9559 202.343 89.859 202.343 90.8242C202.343 90.9897 202.336 91.1482 202.323 91.2999C202.31 91.4378 202.296 91.555 202.283 91.6515H193.884C193.925 92.2858 194.092 92.8442 194.386 93.3268C194.693 93.7956 195.08 94.1679 195.548 94.4436C196.016 94.7056 196.517 94.8366 197.051 94.8366C197.639 94.8366 198.194 94.6849 198.715 94.3816C199.249 94.0782 199.61 93.6784 199.797 93.182L201.681 93.7404C201.454 94.2644 201.107 94.7401 200.639 95.1675C200.185 95.5812 199.644 95.9121 199.016 96.1603C198.388 96.3947 197.706 96.5119 196.971 96.5119ZM193.824 90.1417H200.158C200.118 89.5212 199.944 88.9766 199.637 88.5078C199.343 88.0252 198.962 87.6529 198.495 87.3909C198.04 87.1151 197.532 86.9772 196.971 86.9772C196.423 86.9772 195.916 87.1151 195.448 87.3909C194.994 87.6529 194.619 88.0252 194.325 88.5078C194.031 88.9766 193.864 89.5212 193.824 90.1417Z" fill="#2E2C39"/>
<path d="M210.034 87.4529C209.179 87.4667 208.417 87.6667 207.749 88.0527C207.095 88.4388 206.627 88.9835 206.346 89.6867V96.3051H204.141V85.4881H206.186V87.908C206.547 87.1634 207.021 86.5705 207.609 86.1293C208.197 85.6742 208.818 85.4261 209.473 85.3847C209.607 85.3847 209.714 85.3847 209.794 85.3847C209.887 85.3847 209.967 85.3916 210.034 85.4054V87.4529Z" fill="#2E2C39"/>
<path d="M215.366 96.5119C214.484 96.5119 213.649 96.3671 212.861 96.0776C212.073 95.7742 211.398 95.3261 210.837 94.7332L211.658 93.2027C212.26 93.7542 212.861 94.1541 213.462 94.4023C214.077 94.6505 214.685 94.7746 215.286 94.7746C215.901 94.7746 216.402 94.6574 216.79 94.423C217.177 94.1748 217.371 93.8163 217.371 93.3475C217.371 93.0028 217.271 92.7477 217.07 92.5822C216.87 92.4168 216.576 92.272 216.188 92.1479C215.814 92.0238 215.36 91.8859 214.825 91.7342C214.077 91.4998 213.449 91.2585 212.941 91.0103C212.433 90.7484 212.052 90.4312 211.799 90.0589C211.545 89.6867 211.418 89.211 211.418 88.6319C211.418 87.9286 211.591 87.3289 211.939 86.8325C212.286 86.3361 212.767 85.9569 213.382 85.6949C214.01 85.433 214.732 85.302 215.547 85.302C216.308 85.302 217.01 85.4261 217.651 85.6743C218.306 85.9087 218.881 86.2809 219.375 86.7911L218.433 88.3009C217.965 87.8597 217.484 87.5357 216.99 87.3289C216.509 87.122 215.988 87.0186 215.427 87.0186C215.106 87.0186 214.798 87.06 214.505 87.1427C214.211 87.2117 213.963 87.3495 213.763 87.5564C213.576 87.7494 213.482 88.0252 213.482 88.3837C213.482 88.6732 213.562 88.9076 213.723 89.0869C213.883 89.2661 214.124 89.4178 214.444 89.5419C214.765 89.666 215.159 89.8039 215.627 89.9555C216.442 90.2037 217.137 90.4519 217.712 90.7001C218.286 90.9345 218.727 91.2447 219.034 91.6308C219.355 92.0031 219.515 92.5202 219.515 93.182C219.515 94.2299 219.135 95.0503 218.373 95.6432C217.625 96.2223 216.622 96.5119 215.366 96.5119Z" fill="#2E2C39"/>
<path d="M221.484 96.3051V85.4881H223.689V96.3051H221.484ZM221.484 83.7094V81.2068H223.689V83.7094H221.484Z" fill="#2E2C39"/>
<path d="M232.171 95.7466C231.984 95.8432 231.75 95.9466 231.47 96.0569C231.189 96.1672 230.868 96.2637 230.507 96.3464C230.16 96.4292 229.799 96.4705 229.425 96.4705C228.971 96.4705 228.55 96.3878 228.162 96.2223C227.775 96.0569 227.461 95.7949 227.22 95.4364C226.993 95.0641 226.88 94.5884 226.88 94.0093V87.2461H225.497V85.4881H226.88V81.9307H229.084V85.4881H231.369V87.2461H229.084V93.2854C229.111 93.6577 229.225 93.9335 229.425 94.1127C229.639 94.292 229.899 94.3816 230.207 94.3816C230.514 94.3816 230.808 94.3264 231.089 94.2161C231.369 94.1058 231.576 94.0162 231.71 93.9473L232.171 95.7466Z" fill="#2E2C39"/>
<path d="M234.039 98.849C234.24 98.8766 234.434 98.9042 234.621 98.9317C234.821 98.9731 234.981 98.9938 235.102 98.9938C235.329 98.9938 235.523 98.918 235.683 98.7663C235.857 98.6284 236.03 98.3664 236.204 97.9804C236.378 97.5943 236.592 97.0359 236.846 96.3051L232.536 85.4881H234.841L238.048 93.9886L240.894 85.4881H243.019L238.269 98.8077C238.122 99.2075 237.908 99.5729 237.627 99.9038C237.347 100.249 236.999 100.517 236.585 100.71C236.171 100.903 235.683 101 235.122 101C234.961 101 234.794 100.986 234.621 100.959C234.447 100.931 234.253 100.89 234.039 100.835V98.849Z" fill="#2E2C39"/>
<path d="M253.774 96.5119C252.946 96.5119 252.204 96.3671 251.549 96.0776C250.895 95.7742 250.327 95.3606 249.846 94.8366C249.378 94.3127 249.017 93.7198 248.763 93.0579C248.509 92.3823 248.382 91.6653 248.382 90.9069C248.382 90.1486 248.509 89.4316 248.763 88.7559C249.017 88.0803 249.378 87.4874 249.846 86.9772C250.327 86.4533 250.895 86.0465 251.549 85.757C252.217 85.4536 252.959 85.302 253.774 85.302C254.589 85.302 255.324 85.4536 255.979 85.757C256.647 86.0465 257.215 86.4533 257.683 86.9772C258.164 87.4874 258.531 88.0803 258.785 88.7559C259.039 89.4316 259.166 90.1486 259.166 90.9069C259.166 91.6653 259.039 92.3823 258.785 93.0579C258.531 93.7198 258.164 94.3127 257.683 94.8366C257.215 95.3606 256.647 95.7742 255.979 96.0776C255.324 96.3671 254.589 96.5119 253.774 96.5119ZM250.647 90.9276C250.647 91.617 250.788 92.2375 251.068 92.789C251.349 93.3406 251.723 93.7749 252.191 94.092C252.658 94.4092 253.186 94.5677 253.774 94.5677C254.349 94.5677 254.87 94.4092 255.338 94.092C255.819 93.7611 256.199 93.3199 256.48 92.7684C256.761 92.203 256.901 91.5826 256.901 90.9069C256.901 90.2175 256.761 89.597 256.48 89.0455C256.199 88.494 255.819 88.0596 255.338 87.7425C254.87 87.4116 254.349 87.2461 253.774 87.2461C253.186 87.2461 252.658 87.4116 252.191 87.7425C251.723 88.0734 251.349 88.5147 251.068 89.0662C250.788 89.6039 250.647 90.2244 250.647 90.9276Z" fill="#2E2C39"/>
<path d="M261.586 96.3051V87.515H260.183V85.757H261.586V85.3226C261.586 84.4402 261.719 83.6749 261.987 83.0269C262.267 82.3788 262.655 81.8825 263.149 81.5377C263.657 81.1792 264.252 81 264.933 81C265.361 81 265.782 81.062 266.196 81.1861C266.61 81.2964 267.004 81.455 267.378 81.6618L266.897 83.3578C266.697 83.2199 266.456 83.1165 266.176 83.0476C265.909 82.9648 265.648 82.9235 265.394 82.9235C264.886 82.9235 264.492 83.1234 264.212 83.5233C263.931 83.9231 263.791 84.5022 263.791 85.2606V85.757H266.476V87.515H263.791V96.3051H261.586Z" fill="#2E2C39"/>
<path d="M278.483 95.7466C278.296 95.8432 278.062 95.9466 277.782 96.0569C277.501 96.1672 277.18 96.2637 276.82 96.3464C276.472 96.4292 276.111 96.4705 275.737 96.4705C275.283 96.4705 274.862 96.3878 274.475 96.2223C274.087 96.0569 273.773 95.7949 273.532 95.4364C273.305 95.0641 273.192 94.5884 273.192 94.0093V87.2461H271.809V85.4881H273.192V81.9307H275.397V85.4881H277.682V87.2461H275.397V93.2854C275.423 93.6577 275.537 93.9335 275.737 94.1127C275.951 94.292 276.212 94.3816 276.519 94.3816C276.826 94.3816 277.12 94.3264 277.401 94.2161C277.682 94.1058 277.889 94.0162 278.022 93.9473L278.483 95.7466Z" fill="#2E2C39"/>
<path d="M284.624 96.5119C283.809 96.5119 283.067 96.3671 282.399 96.0776C281.744 95.7742 281.176 95.3675 280.695 94.8573C280.214 94.3333 279.84 93.7404 279.573 93.0786C279.319 92.403 279.192 91.686 279.192 90.9276C279.192 89.9073 279.419 88.9766 279.873 88.1355C280.328 87.2806 280.962 86.5981 281.778 86.0879C282.593 85.5639 283.548 85.302 284.644 85.302C285.74 85.302 286.682 85.5639 287.47 86.0879C288.272 86.5981 288.893 87.2737 289.334 88.1148C289.775 88.9559 289.996 89.859 289.996 90.8242C289.996 90.9897 289.989 91.1482 289.975 91.2999C289.962 91.4378 289.949 91.555 289.935 91.6515H281.537C281.577 92.2858 281.744 92.8442 282.038 93.3268C282.345 93.7956 282.733 94.1679 283.201 94.4436C283.668 94.7056 284.169 94.8366 284.704 94.8366C285.292 94.8366 285.846 94.6849 286.368 94.3816C286.902 94.0782 287.263 93.6784 287.45 93.182L289.334 93.7404C289.107 94.2644 288.759 94.7401 288.292 95.1675C287.837 95.5812 287.296 95.9121 286.668 96.1603C286.04 96.3947 285.359 96.5119 284.624 96.5119ZM281.477 90.1417H287.811C287.771 89.5212 287.597 88.9766 287.29 88.5078C286.996 88.0252 286.615 87.6529 286.147 87.3909C285.693 87.1151 285.185 86.9772 284.624 86.9772C284.076 86.9772 283.568 87.1151 283.1 87.3909C282.646 87.6529 282.272 88.0252 281.978 88.5078C281.684 88.9766 281.517 89.5212 281.477 90.1417Z" fill="#2E2C39"/>
<path d="M296.544 96.5119C295.729 96.5119 294.988 96.3671 294.32 96.0776C293.665 95.7742 293.097 95.3606 292.616 94.8366C292.135 94.3127 291.761 93.7129 291.493 93.0372C291.239 92.3616 291.112 91.6446 291.112 90.8862C291.112 89.8659 291.333 88.9352 291.774 88.0941C292.228 87.253 292.856 86.5774 293.658 86.0672C294.473 85.557 295.435 85.302 296.544 85.302C297.613 85.302 298.542 85.5502 299.33 86.0465C300.132 86.5291 300.72 87.1772 301.094 87.9907L298.95 88.6939C298.709 88.2389 298.368 87.8873 297.927 87.6391C297.5 87.3771 297.025 87.2461 296.504 87.2461C295.916 87.2461 295.382 87.4047 294.901 87.7218C294.433 88.0252 294.059 88.4526 293.778 89.0041C293.511 89.5419 293.377 90.1693 293.377 90.8862C293.377 91.5757 293.518 92.203 293.798 92.7684C294.079 93.3199 294.453 93.7611 294.921 94.092C295.402 94.4092 295.936 94.5677 296.524 94.5677C296.885 94.5677 297.233 94.5057 297.567 94.3816C297.914 94.2437 298.215 94.0645 298.469 93.8438C298.722 93.6094 298.903 93.3544 299.01 93.0786L301.174 93.7404C300.947 94.2782 300.607 94.7539 300.152 95.1675C299.711 95.5812 299.183 95.9121 298.569 96.1603C297.968 96.3947 297.293 96.5119 296.544 96.5119Z" fill="#2E2C39"/>
<path d="M312.391 96.3051H310.186V90.2451C310.186 89.2661 310.012 88.5353 309.665 88.0527C309.318 87.5701 308.83 87.3289 308.202 87.3289C307.814 87.3289 307.413 87.4392 306.999 87.6598C306.585 87.8804 306.217 88.1837 305.897 88.5698C305.576 88.9421 305.342 89.3764 305.195 89.8728V96.3051H302.99V81.2068H305.195V87.6598C305.596 86.929 306.144 86.3568 306.839 85.9431C307.534 85.5157 308.282 85.302 309.084 85.302C309.738 85.302 310.28 85.4192 310.707 85.6536C311.135 85.888 311.469 86.212 311.709 86.6256C311.963 87.0255 312.137 87.4943 312.231 88.0321C312.337 88.556 312.391 89.1144 312.391 89.7073V96.3051Z" fill="#2E2C39"/>
<path d="M324.351 96.3051H322.146V90.2451C322.146 89.2385 321.985 88.5009 321.665 88.0321C321.357 87.5633 320.896 87.3289 320.282 87.3289C319.854 87.3289 319.427 87.4392 318.999 87.6598C318.585 87.8804 318.211 88.1837 317.876 88.5698C317.542 88.9421 317.302 89.3764 317.155 89.8728V96.3051H314.95V85.4881H316.954V87.6598C317.222 87.1772 317.569 86.7635 317.997 86.4188C318.438 86.0603 318.932 85.7846 319.48 85.5915C320.028 85.3985 320.609 85.302 321.224 85.302C321.852 85.302 322.366 85.4192 322.767 85.6536C323.181 85.888 323.502 86.212 323.729 86.6256C323.97 87.0255 324.13 87.4943 324.21 88.0321C324.304 88.556 324.351 89.1144 324.351 89.7073V96.3051Z" fill="#2E2C39"/>
<path d="M331.62 96.5119C330.792 96.5119 330.05 96.3671 329.395 96.0776C328.741 95.7742 328.173 95.3606 327.692 94.8366C327.224 94.3127 326.863 93.7198 326.609 93.0579C326.355 92.3823 326.228 91.6653 326.228 90.9069C326.228 90.1486 326.355 89.4316 326.609 88.7559C326.863 88.0803 327.224 87.4874 327.692 86.9772C328.173 86.4533 328.741 86.0465 329.395 85.757C330.063 85.4536 330.805 85.302 331.62 85.302C332.435 85.302 333.17 85.4536 333.825 85.757C334.493 86.0465 335.061 86.4533 335.529 86.9772C336.01 87.4874 336.377 88.0803 336.631 88.7559C336.885 89.4316 337.012 90.1486 337.012 90.9069C337.012 91.6653 336.885 92.3823 336.631 93.0579C336.377 93.7198 336.01 94.3127 335.529 94.8366C335.061 95.3606 334.493 95.7742 333.825 96.0776C333.17 96.3671 332.435 96.5119 331.62 96.5119ZM328.493 90.9276C328.493 91.617 328.634 92.2375 328.914 92.789C329.195 93.3406 329.569 93.7749 330.037 94.092C330.504 94.4092 331.032 94.5677 331.62 94.5677C332.195 94.5677 332.716 94.4092 333.184 94.092C333.665 93.7611 334.045 93.3199 334.326 92.7684C334.607 92.203 334.747 91.5826 334.747 90.9069C334.747 90.2175 334.607 89.597 334.326 89.0455C334.045 88.494 333.665 88.0596 333.184 87.7425C332.716 87.4116 332.195 87.2461 331.62 87.2461C331.032 87.2461 330.504 87.4116 330.037 87.7425C329.569 88.0734 329.195 88.5147 328.914 89.0662C328.634 89.6039 328.493 90.2244 328.493 90.9276Z" fill="#2E2C39"/>
<path d="M338.987 81.2068H341.192V93.182C341.192 93.7335 341.272 94.0851 341.433 94.2368C341.593 94.3885 341.794 94.4643 342.034 94.4643C342.301 94.4643 342.549 94.4367 342.776 94.3816C343.016 94.3264 343.223 94.2575 343.397 94.1748L343.718 95.9741C343.397 96.112 343.016 96.2292 342.575 96.3258C342.134 96.4223 341.74 96.4705 341.393 96.4705C340.644 96.4705 340.056 96.2568 339.629 95.8294C339.201 95.3881 338.987 94.7815 338.987 94.0093V81.2068Z" fill="#2E2C39"/>
<path d="M349.707 96.5119C348.878 96.5119 348.136 96.3671 347.482 96.0776C346.827 95.7742 346.259 95.3606 345.778 94.8366C345.31 94.3127 344.95 93.7198 344.696 93.0579C344.442 92.3823 344.315 91.6653 344.315 90.9069C344.315 90.1486 344.442 89.4316 344.696 88.7559C344.95 88.0803 345.31 87.4874 345.778 86.9772C346.259 86.4533 346.827 86.0465 347.482 85.757C348.15 85.4536 348.891 85.302 349.707 85.302C350.522 85.302 351.257 85.4536 351.911 85.757C352.58 86.0465 353.147 86.4533 353.615 86.9772C354.096 87.4874 354.464 88.0803 354.718 88.7559C354.971 89.4316 355.098 90.1486 355.098 90.9069C355.098 91.6653 354.971 92.3823 354.718 93.0579C354.464 93.7198 354.096 94.3127 353.615 94.8366C353.147 95.3606 352.58 95.7742 351.911 96.0776C351.257 96.3671 350.522 96.5119 349.707 96.5119ZM346.58 90.9276C346.58 91.617 346.72 92.2375 347.001 92.789C347.281 93.3406 347.655 93.7749 348.123 94.092C348.591 94.4092 349.119 94.5677 349.707 94.5677C350.281 94.5677 350.802 94.4092 351.27 94.092C351.751 93.7611 352.132 93.3199 352.412 92.7684C352.693 92.203 352.833 91.5826 352.833 90.9069C352.833 90.2175 352.693 89.597 352.412 89.0455C352.132 88.494 351.751 88.0596 351.27 87.7425C350.802 87.4116 350.281 87.2461 349.707 87.2461C349.119 87.2461 348.591 87.4116 348.123 87.7425C347.655 88.0734 347.281 88.5147 347.001 89.0662C346.72 89.6039 346.58 90.2244 346.58 90.9276Z" fill="#2E2C39"/>
<path d="M361.203 96.4085C360.495 96.4085 359.847 96.2637 359.259 95.9741C358.671 95.6708 358.163 95.264 357.735 94.7539C357.321 94.2437 356.994 93.6577 356.753 92.9959C356.526 92.334 356.412 91.6377 356.412 90.9069C356.412 90.1348 356.533 89.4109 356.773 88.7353C357.014 88.0596 357.348 87.4667 357.775 86.9566C358.216 86.4326 358.731 86.0259 359.319 85.7363C359.907 85.4467 360.562 85.302 361.283 85.302C362.125 85.302 362.86 85.5088 363.488 85.9224C364.129 86.3361 364.657 86.8738 365.071 87.5357V85.4881H367.016V95.9948C367.016 97.0427 366.768 97.9321 366.274 98.6629C365.793 99.3937 365.132 99.9521 364.29 100.338C363.448 100.724 362.499 100.917 361.443 100.917C360.281 100.917 359.319 100.71 358.557 100.297C357.796 99.8831 357.147 99.3178 356.613 98.6008L357.856 97.4012C358.256 97.9804 358.771 98.4216 359.399 98.7249C360.04 99.0283 360.722 99.1799 361.443 99.1799C362.045 99.1799 362.599 99.0627 363.107 98.8283C363.628 98.6077 364.043 98.2561 364.35 97.7735C364.657 97.3047 364.811 96.7118 364.811 95.9948V94.3402C364.437 94.9883 363.922 95.4984 363.267 95.8707C362.613 96.2292 361.925 96.4085 361.203 96.4085ZM361.925 94.5677C362.259 94.5677 362.579 94.5126 362.887 94.4023C363.194 94.2782 363.475 94.1196 363.728 93.9266C363.996 93.7198 364.223 93.4922 364.41 93.2441C364.597 92.9821 364.731 92.7063 364.811 92.4168V89.5832C364.637 89.1144 364.39 88.7077 364.069 88.363C363.749 88.0045 363.388 87.7287 362.987 87.5357C362.586 87.3426 362.178 87.2461 361.764 87.2461C361.283 87.2461 360.849 87.3564 360.461 87.577C360.087 87.7839 359.766 88.0665 359.499 88.425C359.232 88.7697 359.025 89.1627 358.878 89.6039C358.731 90.0452 358.657 90.5002 358.657 90.969C358.657 91.4654 358.738 91.9273 358.898 92.3547C359.072 92.7821 359.305 93.1682 359.599 93.5129C359.893 93.8438 360.241 94.1058 360.642 94.2989C361.043 94.4781 361.47 94.5677 361.925 94.5677Z" fill="#2E2C39"/>
<path d="M370.02 98.849C370.221 98.8766 370.415 98.9042 370.602 98.9317C370.802 98.9731 370.962 98.9938 371.083 98.9938C371.31 98.9938 371.504 98.918 371.664 98.7663C371.838 98.6284 372.011 98.3664 372.185 97.9804C372.359 97.5943 372.573 97.0359 372.826 96.3051L368.517 85.4881H370.822L374.029 93.9886L376.875 85.4881H379L374.25 98.8077C374.103 99.2075 373.889 99.5729 373.608 99.9038C373.328 100.249 372.98 100.517 372.566 100.71C372.152 100.903 371.664 101 371.103 101C370.942 101 370.775 100.986 370.602 100.959C370.428 100.931 370.234 100.89 370.02 100.835V98.849Z" fill="#2E2C39"/>
</svg>
