<svg width="384" height="95" viewBox="0 0 384 95" fill="none" xmlns="http://www.w3.org/2000/svg">
<path d="M30.464 13.872C30.336 13.7014 29.888 13.3814 29.12 12.912C28.352 12.4427 27.392 11.952 26.24 11.44C25.088 10.928 23.8293 10.48 22.464 10.096C21.0987 9.71202 19.7333 9.52002 18.368 9.52002C14.6133 9.52002 12.736 10.7787 12.736 13.296C12.736 14.064 12.928 14.704 13.312 15.216C13.7387 15.728 14.336 16.1974 15.104 16.624C15.9147 17.008 16.9173 17.3707 18.112 17.712C19.3067 18.0534 20.6933 18.4374 22.272 18.864C24.448 19.4614 26.4107 20.1227 28.16 20.848C29.9093 21.5307 31.3813 22.4054 32.576 23.472C33.8133 24.496 34.752 25.7547 35.392 27.248C36.0747 28.7414 36.416 30.5334 36.416 32.624C36.416 35.184 35.9253 37.36 34.944 39.152C34.0053 40.9014 32.7467 42.3307 31.168 43.44C29.5893 44.5067 27.776 45.296 25.728 45.808C23.68 46.2774 21.568 46.512 19.392 46.512C17.728 46.512 16.0213 46.384 14.272 46.128C12.5227 45.872 10.816 45.5094 9.152 45.04C7.488 44.528 5.86667 43.9307 4.288 43.248C2.752 42.5654 1.32267 41.776 0 40.88L4.608 31.728C4.77867 31.9414 5.33333 32.3467 6.272 32.944C7.21067 33.5414 8.36267 34.1387 9.728 34.736C11.136 35.3334 12.6933 35.8667 14.4 36.336C16.1067 36.8054 17.8347 37.04 19.584 37.04C23.296 37.04 25.152 35.9094 25.152 33.648C25.152 32.7947 24.8747 32.0907 24.32 31.536C23.7653 30.9814 22.9973 30.4907 22.016 30.064C21.0347 29.5947 19.8613 29.168 18.496 28.784C17.1733 28.4 15.7227 27.9734 14.144 27.504C12.0533 26.864 10.24 26.1814 8.704 25.456C7.168 24.688 5.888 23.8134 4.864 22.832C3.88267 21.8507 3.136 20.72 2.624 19.44C2.15467 18.16 1.92 16.6667 1.92 14.96C1.92 12.5707 2.368 10.4587 3.264 8.62402C4.16 6.78936 5.376 5.25336 6.912 4.01603C8.448 2.73602 10.2187 1.77602 12.224 1.13602C14.272 0.496025 16.4267 0.176025 18.688 0.176025C20.2667 0.176025 21.824 0.325358 23.36 0.624023C24.896 0.922691 26.368 1.30669 27.776 1.77602C29.184 2.24536 30.4853 2.77869 31.68 3.37603C32.9173 3.97336 34.048 4.57069 35.072 5.16803L30.464 13.872Z" fill="#2E2C39"/>
<path d="M39.951 22.896C39.951 20.1654 40.463 17.456 41.487 14.768C42.511 12.0374 44.0043 9.60536 45.967 7.47202C47.9297 5.33869 50.319 3.61069 53.135 2.28802C55.951 0.965357 59.151 0.304024 62.735 0.304024C67.0017 0.304024 70.6923 1.22136 73.807 3.05603C76.9643 4.89069 79.311 7.28003 80.847 10.224L72.783 15.856C72.271 14.6614 71.6097 13.68 70.799 12.912C70.031 12.1014 69.1777 11.4614 68.239 10.992C67.3003 10.48 66.3403 10.1387 65.359 9.96803C64.3777 9.75469 63.4177 9.64803 62.479 9.64803C60.4737 9.64803 58.7243 10.0534 57.231 10.864C55.7377 11.6747 54.5003 12.72 53.519 14C52.5377 15.28 51.8123 16.7307 51.343 18.352C50.8737 19.9734 50.639 21.616 50.639 23.28C50.639 25.072 50.9163 26.8 51.471 28.464C52.0257 30.128 52.815 31.6 53.839 32.88C54.9057 34.16 56.1643 35.184 57.615 35.952C59.1083 36.6774 60.7723 37.04 62.607 37.04C63.5457 37.04 64.5057 36.9334 65.487 36.72C66.511 36.464 67.471 36.1014 68.367 35.632C69.3057 35.12 70.159 34.48 70.927 33.712C71.695 32.9014 72.3137 31.92 72.783 30.768L81.359 35.824C80.6763 37.488 79.6523 38.9814 78.287 40.304C76.9643 41.6267 75.4283 42.736 73.679 43.632C71.9297 44.528 70.0737 45.2107 68.111 45.68C66.1483 46.1494 64.2283 46.384 62.351 46.384C59.0657 46.384 56.0363 45.7227 53.263 44.4C50.5323 43.0347 48.1643 41.2427 46.159 39.024C44.1963 36.8054 42.6603 34.288 41.551 31.472C40.4843 28.656 39.951 25.7974 39.951 22.896Z" fill="#2E2C39"/>
<path d="M86.6375 46V0.560024H97.1335V46H86.6375Z" fill="#2E2C39"/>
<path d="M116.321 20.016V46H105.825V0.560024H114.017L135.201 27.248V0.560024H145.697V46H137.249L116.321 20.016Z" fill="#2E2C39"/>
<path d="M189.012 9.77602H175.188V46H164.691V9.77602H150.803V0.560024H189.012V9.77602Z" fill="#2E2C39"/>
<path d="M227.167 46.384C223.796 46.384 220.724 45.7227 217.951 44.4C215.177 43.0774 212.809 41.3494 210.846 39.216C208.884 37.04 207.348 34.5654 206.238 31.792C205.172 29.0187 204.639 26.16 204.639 23.216C204.639 20.2294 205.193 17.3494 206.303 14.576C207.454 11.8027 209.033 9.37069 211.038 7.28003C213.087 5.14669 215.497 3.46136 218.271 2.22403C221.044 0.944024 224.073 0.304024 227.359 0.304024C230.729 0.304024 233.801 0.965357 236.575 2.28802C239.348 3.61069 241.716 5.36003 243.678 7.53603C245.641 9.71203 247.156 12.1867 248.223 14.96C249.289 17.7334 249.823 20.5494 249.823 23.408C249.823 26.3947 249.246 29.2747 248.094 32.048C246.985 34.8214 245.428 37.2747 243.423 39.408C241.417 41.4987 239.028 43.184 236.255 44.464C233.481 45.744 230.452 46.384 227.167 46.384ZM215.327 23.344C215.327 25.0934 215.583 26.8 216.094 28.464C216.606 30.0854 217.353 31.536 218.335 32.816C219.359 34.096 220.617 35.12 222.111 35.888C223.604 36.656 225.311 37.04 227.23 37.04C229.236 37.04 230.985 36.6347 232.479 35.824C233.972 35.0134 235.209 33.968 236.191 32.688C237.172 31.3654 237.897 29.8934 238.367 28.272C238.879 26.608 239.135 24.9227 239.135 23.216C239.135 21.4667 238.879 19.7814 238.367 18.16C237.855 16.496 237.087 15.0454 236.062 13.808C235.038 12.528 233.78 11.5254 232.286 10.8C230.836 10.032 229.15 9.64803 227.23 9.64803C225.225 9.64803 223.476 10.0534 221.982 10.864C220.532 11.632 219.295 12.656 218.271 13.936C217.289 15.216 216.542 16.688 216.031 18.352C215.561 19.9734 215.327 21.6374 215.327 23.344Z" fill="#2E2C39"/>
<path d="M266.384 20.016V46H255.887V0.560024H264.079L285.263 27.248V0.560024H295.759V46H287.311L266.384 20.016Z" fill="#2E2C39"/>
<path d="M339.074 9.77602H325.25V46H314.754V9.77602H300.866V0.560024H339.074V9.77602Z" fill="#2E2C39"/>
<path d="M363.72 37.04C365.512 37.04 367.027 36.6774 368.264 35.952C369.501 35.184 370.504 34.1814 371.272 32.944C372.04 31.7067 372.573 30.2987 372.872 28.72C373.213 27.0987 373.384 25.456 373.384 23.792V0.560024H383.88V23.792C383.88 26.9494 383.475 29.8934 382.664 32.624C381.896 35.3547 380.68 37.744 379.016 39.792C377.395 41.84 375.304 43.4614 372.744 44.656C370.227 45.808 367.219 46.384 363.72 46.384C360.093 46.384 357 45.7654 354.44 44.528C351.88 43.2907 349.789 41.648 348.168 39.6C346.589 37.5094 345.416 35.0987 344.648 32.368C343.923 29.6374 343.56 26.7787 343.56 23.792V0.560024H354.056V23.792C354.056 25.5414 354.227 27.2054 354.568 28.784C354.909 30.3627 355.464 31.7707 356.232 33.008C357 34.2454 357.981 35.2267 359.176 35.952C360.413 36.6774 361.928 37.04 363.72 37.04Z" fill="#2E2C39"/>
<path d="M4.94778 91.7749C4.21046 91.7749 3.53621 91.6283 2.92501 91.3351C2.32352 91.0321 1.80448 90.6363 1.36792 90.1476C0.931347 89.6492 0.591793 89.0824 0.349255 88.4471C0.116418 87.8119 0 87.162 0 86.4974C0 85.8035 0.12612 85.1389 0.37836 84.5037C0.630599 83.8684 0.975003 83.3065 1.41157 82.8178C1.85784 82.3291 2.38172 81.9431 2.98322 81.6597C3.59442 81.3665 4.25897 81.2199 4.97688 81.2199C5.7142 81.2199 6.3836 81.3763 6.9851 81.689C7.5963 81.992 8.11533 82.3927 8.54219 82.8911C8.97876 83.3895 9.31347 83.9564 9.5463 84.5916C9.78884 85.2171 9.91011 85.8572 9.91011 86.512C9.91011 87.2059 9.78399 87.8705 9.53175 88.5058C9.28921 89.141 8.94481 89.703 8.49854 90.1916C8.05227 90.6705 7.52353 91.0565 6.91234 91.3497C6.31084 91.6332 5.65599 91.7749 4.94778 91.7749ZM1.65896 86.4974C1.65896 86.986 1.73657 87.46 1.8918 87.9194C2.04702 88.3787 2.26531 88.7843 2.54665 89.1361C2.8377 89.488 3.18695 89.7714 3.59442 89.9864C4.00188 90.1916 4.45785 90.2942 4.96233 90.2942C5.48621 90.2942 5.94704 90.1867 6.3448 89.9717C6.75226 89.7469 7.09667 89.4538 7.37801 89.0921C7.65936 88.7305 7.87279 88.325 8.01831 87.8754C8.16383 87.4258 8.2366 86.9665 8.2366 86.4974C8.2366 85.999 8.15898 85.525 8.00376 85.0754C7.84854 84.6161 7.6254 84.2154 7.33435 83.8733C7.05301 83.5215 6.70861 83.2429 6.30114 83.0377C5.90338 82.8227 5.45711 82.7152 4.96233 82.7152C4.43845 82.7152 3.97278 82.8276 3.56531 83.0524C3.15785 83.2674 2.81344 83.5508 2.5321 83.9026C2.25075 84.2545 2.03247 84.66 1.87725 85.1194C1.73172 85.5689 1.65896 86.0283 1.65896 86.4974Z" fill="#2E2C39"/>
<path d="M10.2682 90.3089H10.6902C10.9231 90.2698 11.1171 90.1818 11.2723 90.045C11.4276 89.8984 11.5585 89.6736 11.6653 89.3707C11.7817 89.0677 11.8787 88.6719 11.9563 88.1832C12.0436 87.6848 12.1261 87.0544 12.2037 86.2921L12.4511 84.0346H17.4716V90.3089H18.4321V94.0031H17.035V91.7016H11.6216V94.0031H10.2682V90.3089ZM15.9 90.3089V85.3539H13.8918L13.7026 86.7613C13.5765 87.6897 13.4358 88.4373 13.2806 89.0042C13.135 89.5613 12.9459 89.9962 12.713 90.3089H15.9Z" fill="#2E2C39"/>
<path d="M23.2269 91.8482C22.6351 91.8482 22.0967 91.7455 21.6116 91.5403C21.1266 91.3253 20.7094 91.037 20.3601 90.6754C20.0206 90.3138 19.7538 89.8935 19.5598 89.4147C19.3754 88.9358 19.2833 88.4276 19.2833 87.8901C19.2833 87.3525 19.3754 86.8443 19.5598 86.3654C19.7538 85.8768 20.0206 85.4517 20.3601 85.0901C20.7094 84.7187 21.1266 84.4304 21.6116 84.2251C22.0967 84.0101 22.64 83.9026 23.2415 83.9026C23.8333 83.9026 24.3669 84.0101 24.8422 84.2251C25.3273 84.4401 25.7396 84.7284 26.0792 85.0901C26.4187 85.4419 26.6758 85.8572 26.8505 86.3361C27.0348 86.8052 27.1269 87.2988 27.1269 87.8168C27.1269 87.934 27.1221 88.0464 27.1124 88.1539C27.1027 88.2517 27.093 88.3347 27.0833 88.4031H20.9859C21.015 88.7452 21.0926 89.0531 21.2187 89.3267C21.3545 89.6003 21.5243 89.8398 21.728 90.045C21.9415 90.2405 22.1792 90.392 22.4411 90.4995C22.7128 90.607 22.9941 90.6607 23.2851 90.6607C23.4986 90.6607 23.7072 90.6363 23.9109 90.5874C24.1243 90.5288 24.3184 90.4506 24.493 90.3529C24.6676 90.2454 24.8228 90.1183 24.9587 89.9717C25.0945 89.8251 25.2012 89.6639 25.2788 89.488L26.6467 89.8838C26.3848 90.4604 25.9482 90.9344 25.337 91.3058C24.7355 91.6674 24.0322 91.8482 23.2269 91.8482ZM25.5407 87.289C25.5116 86.9665 25.4292 86.6684 25.2934 86.3948C25.1672 86.1211 25.0023 85.8914 24.7986 85.7058C24.5948 85.5103 24.3572 85.3588 24.0855 85.2513C23.8139 85.1438 23.5277 85.0901 23.2269 85.0901C22.9262 85.0901 22.64 85.1438 22.3683 85.2513C22.1064 85.3588 21.8736 85.5103 21.6698 85.7058C21.4661 85.8914 21.3012 86.1211 21.1751 86.3948C21.0489 86.6684 20.9713 86.9665 20.9422 87.289H25.5407Z" fill="#2E2C39"/>
<path d="M27.9379 87.8607C27.9379 87.3232 28.0301 86.815 28.2144 86.3361C28.3987 85.8572 28.6607 85.437 29.0002 85.0754C29.3495 84.7138 29.7666 84.4304 30.2517 84.2251C30.7368 84.0101 31.2801 83.9026 31.8816 83.9026C32.6674 83.9026 33.3416 84.0785 33.9043 84.4304C34.4767 84.7724 34.9036 85.2318 35.1849 85.8084L33.6278 86.3068C33.4435 85.9843 33.1961 85.7351 32.8857 85.5592C32.5752 85.3735 32.2308 85.2806 31.8525 85.2806C31.5323 85.2806 31.2316 85.3442 30.9502 85.4712C30.6786 85.5983 30.4409 85.7791 30.2372 86.0136C30.0334 86.2384 29.8733 86.5072 29.7569 86.8199C29.6405 87.1326 29.5823 87.4796 29.5823 87.8607C29.5823 88.2321 29.6405 88.5791 29.7569 88.9016C29.8831 89.2143 30.048 89.488 30.2517 89.7225C30.4651 89.9571 30.7077 90.1428 30.9793 90.2796C31.2607 90.4066 31.5566 90.4702 31.867 90.4702C32.061 90.4702 32.2551 90.4457 32.4491 90.3969C32.6431 90.3382 32.8178 90.26 32.973 90.1623C33.1379 90.0646 33.2786 89.9522 33.395 89.8251C33.5211 89.6981 33.6133 89.5613 33.6715 89.4147L35.2431 89.8838C34.9909 90.4604 34.5689 90.9344 33.9771 91.3058C33.3853 91.6674 32.6868 91.8482 31.8816 91.8482C31.2898 91.8482 30.7513 91.7407 30.2663 91.5257C29.7812 91.3106 29.364 91.0223 29.0148 90.6607C28.6752 90.2894 28.4084 89.8642 28.2144 89.3853C28.0301 88.9065 27.9379 88.3983 27.9379 87.8607Z" fill="#2E2C39"/>
<path d="M36.5906 84.0346H38.1622V86.5707H39.632C40.0007 86.5707 40.3499 86.6244 40.6798 86.7319C41.0193 86.8394 41.3152 87.0056 41.5675 87.2304C41.8294 87.4454 42.0331 87.7141 42.1787 88.0366C42.3339 88.3592 42.4115 88.7305 42.4115 89.1508C42.4115 89.5808 42.3339 89.9571 42.1787 90.2796C42.0331 90.5923 41.8343 90.8562 41.582 91.0712C41.3298 91.2862 41.0339 91.4475 40.6943 91.555C40.3645 91.6527 40.0201 91.7016 39.6611 91.7016H36.5906V84.0346ZM39.5593 90.3969C39.9279 90.3969 40.2287 90.2942 40.4615 90.089C40.6943 89.8838 40.8108 89.5759 40.8108 89.1654C40.8108 88.7452 40.6895 88.4276 40.4469 88.2126C40.2044 87.9878 39.9134 87.8754 39.5738 87.8754H38.1622V90.3969H39.5593Z" fill="#2E2C39"/>
<path d="M48.3374 84.0346H50.0836L47.1004 87.7581L50.3019 91.7016H48.512L46.0235 88.5351H45.3105V91.7016H43.7388V84.0346H45.3105V87.2304H45.9071L48.3374 84.0346Z" fill="#2E2C39"/>
<path d="M54.3915 91.8482C53.79 91.8482 53.2467 91.7407 52.7616 91.5257C52.2862 91.3106 51.8788 91.0223 51.5392 90.6607C51.1997 90.2991 50.9377 89.8789 50.7534 89.4C50.5691 88.9113 50.4769 88.4031 50.4769 87.8754C50.4769 87.3476 50.5691 86.8443 50.7534 86.3654C50.9377 85.8768 51.1997 85.4517 51.5392 85.0901C51.8885 84.7284 52.3008 84.4401 52.7761 84.2251C53.2612 84.0101 53.7997 83.9026 54.3915 83.9026C54.9832 83.9026 55.5168 84.0101 55.9922 84.2251C56.4773 84.4401 56.8896 84.7284 57.2292 85.0901C57.5784 85.4517 57.8452 85.8768 58.0295 86.3654C58.2139 86.8443 58.306 87.3476 58.306 87.8754C58.306 88.4031 58.2139 88.9113 58.0295 89.4C57.8452 89.8789 57.5784 90.2991 57.2292 90.6607C56.8896 91.0223 56.4773 91.3106 55.9922 91.5257C55.5168 91.7407 54.9832 91.8482 54.3915 91.8482ZM52.1213 87.8901C52.1213 88.2614 52.1795 88.6035 52.2959 88.9162C52.4123 89.229 52.5724 89.5026 52.7761 89.7372C52.9799 89.962 53.2176 90.1428 53.4892 90.2796C53.7706 90.4066 54.0713 90.4702 54.3915 90.4702C54.7116 90.4702 55.0075 90.4066 55.2791 90.2796C55.5605 90.1428 55.803 89.9571 56.0068 89.7225C56.2105 89.488 56.3706 89.2143 56.487 88.9016C56.6034 88.5888 56.6616 88.2468 56.6616 87.8754C56.6616 87.5138 56.6034 87.1766 56.487 86.8639C56.3706 86.5414 56.2105 86.2628 56.0068 86.0283C55.803 85.7937 55.5605 85.6129 55.2791 85.4859C55.0075 85.349 54.7116 85.2806 54.3915 85.2806C54.081 85.2806 53.7851 85.349 53.5038 85.4859C53.2321 85.6227 52.9944 85.8084 52.7907 86.0429C52.587 86.2775 52.422 86.556 52.2959 86.8785C52.1795 87.1913 52.1213 87.5284 52.1213 87.8901Z" fill="#2E2C39"/>
<path d="M64.7318 85.3099H61.3265V91.7016H59.7549V84.0346H64.7318V85.3099Z" fill="#2E2C39"/>
<path d="M68.9295 91.8482C68.328 91.8482 67.7848 91.7407 67.2997 91.5257C66.8243 91.3106 66.4168 91.0223 66.0773 90.6607C65.7377 90.2991 65.4758 89.8789 65.2915 89.4C65.1071 88.9113 65.015 88.4031 65.015 87.8754C65.015 87.3476 65.1071 86.8443 65.2915 86.3654C65.4758 85.8768 65.7377 85.4517 66.0773 85.0901C66.4265 84.7284 66.8389 84.4401 67.3142 84.2251C67.7993 84.0101 68.3377 83.9026 68.9295 83.9026C69.5213 83.9026 70.0549 84.0101 70.5303 84.2251C71.0154 84.4401 71.4277 84.7284 71.7672 85.0901C72.1165 85.4517 72.3833 85.8768 72.5676 86.3654C72.7519 86.8443 72.8441 87.3476 72.8441 87.8754C72.8441 88.4031 72.7519 88.9113 72.5676 89.4C72.3833 89.8789 72.1165 90.2991 71.7672 90.6607C71.4277 91.0223 71.0154 91.3106 70.5303 91.5257C70.0549 91.7407 69.5213 91.8482 68.9295 91.8482ZM66.6594 87.8901C66.6594 88.2614 66.7176 88.6035 66.834 88.9162C66.9504 89.229 67.1105 89.5026 67.3142 89.7372C67.518 89.962 67.7556 90.1428 68.0273 90.2796C68.3086 90.4066 68.6094 90.4702 68.9295 90.4702C69.2497 90.4702 69.5456 90.4066 69.8172 90.2796C70.0986 90.1428 70.3411 89.9571 70.5448 89.7225C70.7486 89.488 70.9086 89.2143 71.0251 88.9016C71.1415 88.5888 71.1997 88.2468 71.1997 87.8754C71.1997 87.5138 71.1415 87.1766 71.0251 86.8639C70.9086 86.5414 70.7486 86.2628 70.5448 86.0283C70.3411 85.7937 70.0986 85.6129 69.8172 85.4859C69.5456 85.349 69.2497 85.2806 68.9295 85.2806C68.6191 85.2806 68.3232 85.349 68.0418 85.4859C67.7702 85.6227 67.5325 85.8084 67.3288 86.0429C67.1251 86.2775 66.9601 86.556 66.834 86.8785C66.7176 87.1913 66.6594 87.5284 66.6594 87.8901Z" fill="#2E2C39"/>
<path d="M79.46 87.0838H82.9235V84.0346H84.4951V91.7016H82.9235V88.4471H79.46V91.7016H77.8884V84.0346H79.46V87.0838Z" fill="#2E2C39"/>
<path d="M88.4656 91.8482C88.097 91.8482 87.7526 91.7895 87.4324 91.6723C87.122 91.5452 86.8503 91.3742 86.6175 91.1592C86.3944 90.9442 86.2149 90.6901 86.0791 90.3969C85.9529 90.1037 85.8899 89.786 85.8899 89.444C85.8899 89.0824 85.9675 88.755 86.1227 88.4618C86.2779 88.1686 86.4962 87.9145 86.7776 87.6995C87.0686 87.4845 87.4082 87.3183 87.7962 87.201C88.194 87.0838 88.6306 87.0251 89.1059 87.0251C89.4649 87.0251 89.819 87.0593 90.1683 87.1277C90.5175 87.1864 90.8328 87.2695 91.1142 87.377V86.8492C91.1142 86.2824 90.9541 85.8426 90.6339 85.5298C90.3138 85.2073 89.853 85.0461 89.2515 85.0461C88.844 85.0461 88.4414 85.1243 88.0436 85.2806C87.6556 85.4272 87.253 85.6422 86.8358 85.9257L86.341 84.8995C87.3209 84.2349 88.3395 83.9026 89.397 83.9026C90.4447 83.9026 91.2597 84.1714 91.8418 84.7089C92.4239 85.2464 92.7149 86.0185 92.7149 87.0251V89.7958C92.7149 90.1379 92.8556 90.3138 93.1369 90.3236V91.7016C92.9817 91.7309 92.8459 91.7504 92.7295 91.7602C92.6227 91.77 92.516 91.7749 92.4093 91.7749C92.0989 91.7749 91.8563 91.6967 91.6817 91.5403C91.5168 91.3839 91.4149 91.1836 91.3761 90.9393L91.3324 90.4555C90.9929 90.9051 90.5709 91.252 90.0664 91.4963C89.5716 91.7309 89.038 91.8482 88.4656 91.8482ZM88.9022 90.6607C89.2903 90.6607 89.6541 90.5923 89.9936 90.4555C90.3429 90.3089 90.6145 90.1086 90.8086 89.8544C91.0123 89.6785 91.1142 89.4928 91.1142 89.2974V88.2859C90.8425 88.1784 90.5515 88.0953 90.241 88.0366C89.9403 87.978 89.6444 87.9487 89.3533 87.9487C88.7809 87.9487 88.3104 88.0757 87.9418 88.3298C87.5828 88.5742 87.4033 88.9016 87.4033 89.312C87.4033 89.6932 87.544 90.0157 87.8253 90.2796C88.1067 90.5337 88.4656 90.6607 88.9022 90.6607Z" fill="#2E2C39"/>
<path d="M94.7003 84.0346H96.2719V90.3089H99.1969V84.0346H100.783V90.3089H102.107V94.0031H100.696V91.7016H94.7003V84.0346Z" fill="#2E2C39"/>
<path d="M103.312 91.7016V84.0346H104.913V91.7016H103.312ZM103.312 82.7738V81H104.913V82.7738H103.312Z" fill="#2E2C39"/>
<path d="M110.284 91.8482C109.683 91.8482 109.139 91.7407 108.654 91.5257C108.179 91.3106 107.771 91.0223 107.432 90.6607C107.092 90.2991 106.83 89.8789 106.646 89.4C106.462 88.9113 106.37 88.4031 106.37 87.8754C106.37 87.3476 106.462 86.8443 106.646 86.3654C106.83 85.8768 107.092 85.4517 107.432 85.0901C107.781 84.7284 108.193 84.4401 108.669 84.2251C109.154 84.0101 109.692 83.9026 110.284 83.9026C110.876 83.9026 111.41 84.0101 111.885 84.2251C112.37 84.4401 112.782 84.7284 113.122 85.0901C113.471 85.4517 113.738 85.8768 113.922 86.3654C114.107 86.8443 114.199 87.3476 114.199 87.8754C114.199 88.4031 114.107 88.9113 113.922 89.4C113.738 89.8789 113.471 90.2991 113.122 90.6607C112.782 91.0223 112.37 91.3106 111.885 91.5257C111.41 91.7407 110.876 91.8482 110.284 91.8482ZM108.014 87.8901C108.014 88.2614 108.072 88.6035 108.189 88.9162C108.305 89.229 108.465 89.5026 108.669 89.7372C108.873 89.962 109.11 90.1428 109.382 90.2796C109.663 90.4066 109.964 90.4702 110.284 90.4702C110.604 90.4702 110.9 90.4066 111.172 90.2796C111.453 90.1428 111.696 89.9571 111.899 89.7225C112.103 89.488 112.263 89.2143 112.38 88.9016C112.496 88.5888 112.554 88.2468 112.554 87.8754C112.554 87.5138 112.496 87.1766 112.38 86.8639C112.263 86.5414 112.103 86.2628 111.899 86.0283C111.696 85.7937 111.453 85.6129 111.172 85.4859C110.9 85.349 110.604 85.2806 110.284 85.2806C109.974 85.2806 109.678 85.349 109.396 85.4859C109.125 85.6227 108.887 85.8084 108.683 86.0429C108.48 86.2775 108.315 86.556 108.189 86.8785C108.072 87.1913 108.014 87.5284 108.014 87.8901Z" fill="#2E2C39"/>
<path d="M117.219 87.0838H120.683V84.0346H122.254V91.7016H120.683V88.4471H117.219V91.7016H115.648V84.0346H117.219V87.0838Z" fill="#2E2C39"/>
<path d="M126.225 91.8482C125.856 91.8482 125.512 91.7895 125.192 91.6723C124.881 91.5452 124.61 91.3742 124.377 91.1592C124.154 90.9442 123.974 90.6901 123.838 90.3969C123.712 90.1037 123.649 89.786 123.649 89.444C123.649 89.0824 123.727 88.755 123.882 88.4618C124.037 88.1686 124.255 87.9145 124.537 87.6995C124.828 87.4845 125.167 87.3183 125.555 87.201C125.953 87.0838 126.39 87.0251 126.865 87.0251C127.224 87.0251 127.578 87.0593 127.927 87.1277C128.277 87.1864 128.592 87.2695 128.873 87.377V86.8492C128.873 86.2824 128.713 85.8426 128.393 85.5298C128.073 85.2073 127.612 85.0461 127.011 85.0461C126.603 85.0461 126.201 85.1243 125.803 85.2806C125.415 85.4272 125.012 85.6422 124.595 85.9257L124.1 84.8995C125.08 84.2349 126.099 83.9026 127.156 83.9026C128.204 83.9026 129.019 84.1714 129.601 84.7089C130.183 85.2464 130.474 86.0185 130.474 87.0251V89.7958C130.474 90.1379 130.615 90.3138 130.896 90.3236V91.7016C130.741 91.7309 130.605 91.7504 130.489 91.7602C130.382 91.77 130.275 91.7749 130.169 91.7749C129.858 91.7749 129.616 91.6967 129.441 91.5403C129.276 91.3839 129.174 91.1836 129.135 90.9393L129.092 90.4555C128.752 90.9051 128.33 91.252 127.826 91.4963C127.331 91.7309 126.797 91.8482 126.225 91.8482ZM126.661 90.6607C127.049 90.6607 127.413 90.5923 127.753 90.4555C128.102 90.3089 128.374 90.1086 128.568 89.8544C128.771 89.6785 128.873 89.4928 128.873 89.2974V88.2859C128.602 88.1784 128.311 88.0953 128 88.0366C127.699 87.978 127.404 87.9487 127.113 87.9487C126.54 87.9487 126.07 88.0757 125.701 88.3298C125.342 88.5742 125.163 88.9016 125.163 89.312C125.163 89.6932 125.303 90.0157 125.585 90.2796C125.866 90.5337 126.225 90.6607 126.661 90.6607Z" fill="#2E2C39"/>
<path d="M131.557 90.3529C131.848 90.3333 132.091 90.2698 132.285 90.1623C132.479 90.045 132.644 89.8398 132.78 89.5466C132.915 89.2534 133.027 88.8478 133.114 88.3298C133.211 87.8119 133.304 87.1326 133.391 86.2921L133.638 84.0346H138.659V91.7016H137.073V85.3539H135.064L134.875 86.7613C134.739 87.7483 134.594 88.5595 134.439 89.1948C134.283 89.83 134.084 90.3382 133.842 90.7194C133.609 91.0907 133.318 91.3546 132.969 91.511C132.629 91.6674 132.212 91.7553 131.717 91.7749L131.557 90.3529Z" fill="#2E2C39"/>
<path d="M140.631 84.0346H142.203V86.5707H143.672C144.041 86.5707 144.39 86.6244 144.72 86.7319C145.06 86.8394 145.356 87.0056 145.608 87.2304C145.87 87.4454 146.074 87.7141 146.219 88.0366C146.374 88.3592 146.452 88.7305 146.452 89.1508C146.452 89.5808 146.374 89.9571 146.219 90.2796C146.074 90.5923 145.875 90.8562 145.622 91.0712C145.37 91.2862 145.074 91.4475 144.735 91.555C144.405 91.6527 144.06 91.7016 143.701 91.7016H140.631V84.0346ZM143.6 90.3969C143.968 90.3969 144.269 90.2942 144.502 90.089C144.735 89.8838 144.851 89.5759 144.851 89.1654C144.851 88.7452 144.73 88.4276 144.487 88.2126C144.245 87.9878 143.954 87.8754 143.614 87.8754H142.203V90.3969H143.6Z" fill="#2E2C39"/>
<path d="M149.351 87.0838H152.814V84.0346H154.386V91.7016H152.814V88.4471H149.351V91.7016H147.779V84.0346H149.351V87.0838Z" fill="#2E2C39"/>
<path d="M159.753 91.8482C159.152 91.8482 158.609 91.7407 158.124 91.5257C157.648 91.3106 157.241 91.0223 156.901 90.6607C156.562 90.2991 156.3 89.8789 156.115 89.4C155.931 88.9113 155.839 88.4031 155.839 87.8754C155.839 87.3476 155.931 86.8443 156.115 86.3654C156.3 85.8768 156.562 85.4517 156.901 85.0901C157.25 84.7284 157.663 84.4401 158.138 84.2251C158.623 84.0101 159.162 83.9026 159.753 83.9026C160.345 83.9026 160.879 84.0101 161.354 84.2251C161.839 84.4401 162.252 84.7284 162.591 85.0901C162.94 85.4517 163.207 85.8768 163.392 86.3654C163.576 86.8443 163.668 87.3476 163.668 87.8754C163.668 88.4031 163.576 88.9113 163.392 89.4C163.207 89.8789 162.94 90.2991 162.591 90.6607C162.252 91.0223 161.839 91.3106 161.354 91.5257C160.879 91.7407 160.345 91.8482 159.753 91.8482ZM157.483 87.8901C157.483 88.2614 157.541 88.6035 157.658 88.9162C157.774 89.229 157.934 89.5026 158.138 89.7372C158.342 89.962 158.58 90.1428 158.851 90.2796C159.133 90.4066 159.433 90.4702 159.753 90.4702C160.074 90.4702 160.369 90.4066 160.641 90.2796C160.922 90.1428 161.165 89.9571 161.369 89.7225C161.572 89.488 161.733 89.2143 161.849 88.9016C161.965 88.5888 162.024 88.2468 162.024 87.8754C162.024 87.5138 161.965 87.1766 161.849 86.8639C161.733 86.5414 161.572 86.2628 161.369 86.0283C161.165 85.7937 160.922 85.6129 160.641 85.4859C160.369 85.349 160.074 85.2806 159.753 85.2806C159.443 85.2806 159.147 85.349 158.866 85.4859C158.594 85.6227 158.356 85.8084 158.153 86.0429C157.949 86.2775 157.784 86.556 157.658 86.8785C157.541 87.1913 157.483 87.5284 157.483 87.8901Z" fill="#2E2C39"/>
<path d="M170.094 85.3099H166.689V91.7016H165.117V84.0346H170.094V85.3099Z" fill="#2E2C39"/>
<path d="M174.292 91.8482C173.69 91.8482 173.147 91.7407 172.662 91.5257C172.186 91.3106 171.779 91.0223 171.439 90.6607C171.1 90.2991 170.838 89.8789 170.653 89.4C170.469 88.9113 170.377 88.4031 170.377 87.8754C170.377 87.3476 170.469 86.8443 170.653 86.3654C170.838 85.8768 171.1 85.4517 171.439 85.0901C171.789 84.7284 172.201 84.4401 172.676 84.2251C173.161 84.0101 173.7 83.9026 174.292 83.9026C174.883 83.9026 175.417 84.0101 175.892 84.2251C176.377 84.4401 176.79 84.7284 177.129 85.0901C177.478 85.4517 177.745 85.8768 177.93 86.3654C178.114 86.8443 178.206 87.3476 178.206 87.8754C178.206 88.4031 178.114 88.9113 177.93 89.4C177.745 89.8789 177.478 90.2991 177.129 90.6607C176.79 91.0223 176.377 91.3106 175.892 91.5257C175.417 91.7407 174.883 91.8482 174.292 91.8482ZM172.021 87.8901C172.021 88.2614 172.08 88.6035 172.196 88.9162C172.312 89.229 172.472 89.5026 172.676 89.7372C172.88 89.962 173.118 90.1428 173.389 90.2796C173.671 90.4066 173.971 90.4702 174.292 90.4702C174.612 90.4702 174.908 90.4066 175.179 90.2796C175.461 90.1428 175.703 89.9571 175.907 89.7225C176.111 89.488 176.271 89.2143 176.387 88.9016C176.503 88.5888 176.562 88.2468 176.562 87.8754C176.562 87.5138 176.503 87.1766 176.387 86.8639C176.271 86.5414 176.111 86.2628 175.907 86.0283C175.703 85.7937 175.461 85.6129 175.179 85.4859C174.908 85.349 174.612 85.2806 174.292 85.2806C173.981 85.2806 173.685 85.349 173.404 85.4859C173.132 85.6227 172.894 85.8084 172.691 86.0429C172.487 86.2775 172.322 86.556 172.196 86.8785C172.08 87.1913 172.021 87.5284 172.021 87.8901Z" fill="#2E2C39"/>
<path d="M186.583 91.7016H185.011V85.4272H182.537V84.0346H189.057V85.4272H186.583V91.7016Z" fill="#2E2C39"/>
<path d="M193.378 91.8482C192.786 91.8482 192.248 91.7455 191.763 91.5403C191.277 91.3253 190.86 91.037 190.511 90.6754C190.172 90.3138 189.905 89.8935 189.711 89.4147C189.526 88.9358 189.434 88.4276 189.434 87.8901C189.434 87.3525 189.526 86.8443 189.711 86.3654C189.905 85.8768 190.172 85.4517 190.511 85.0901C190.86 84.7187 191.277 84.4304 191.763 84.2251C192.248 84.0101 192.791 83.9026 193.392 83.9026C193.984 83.9026 194.518 84.0101 194.993 84.2251C195.478 84.4401 195.891 84.7284 196.23 85.0901C196.57 85.4419 196.827 85.8572 197.001 86.3361C197.186 86.8052 197.278 87.2988 197.278 87.8168C197.278 87.934 197.273 88.0464 197.263 88.1539C197.254 88.2517 197.244 88.3347 197.234 88.4031H191.137C191.166 88.7452 191.244 89.0531 191.37 89.3267C191.505 89.6003 191.675 89.8398 191.879 90.045C192.092 90.2405 192.33 90.392 192.592 90.4995C192.864 90.607 193.145 90.6607 193.436 90.6607C193.65 90.6607 193.858 90.6363 194.062 90.5874C194.275 90.5288 194.469 90.4506 194.644 90.3529C194.819 90.2454 194.974 90.1183 195.11 89.9717C195.245 89.8251 195.352 89.6639 195.43 89.488L196.798 89.8838C196.536 90.4604 196.099 90.9344 195.488 91.3058C194.886 91.6674 194.183 91.8482 193.378 91.8482ZM195.692 87.289C195.663 86.9665 195.58 86.6684 195.444 86.3948C195.318 86.1211 195.153 85.8914 194.95 85.7058C194.746 85.5103 194.508 85.3588 194.236 85.2513C193.965 85.1438 193.679 85.0901 193.378 85.0901C193.077 85.0901 192.791 85.1438 192.519 85.2513C192.257 85.3588 192.025 85.5103 191.821 85.7058C191.617 85.8914 191.452 86.1211 191.326 86.3948C191.2 86.6684 191.122 86.9665 191.093 87.289H195.692Z" fill="#2E2C39"/>
<path d="M199.143 84.0346L201.006 86.6586L201.137 86.9079L201.268 86.6586L203.116 84.0346H204.79L202.01 87.8754L204.819 91.7016H203.145L201.268 89.0921L201.137 88.8576L201.006 89.0921L199.129 91.7016H197.455L200.264 87.8754L197.484 84.0346H199.143Z" fill="#2E2C39"/>
<path d="M207.503 87.0838H210.967V84.0346H212.538V91.7016H210.967V88.4471H207.503V91.7016H205.931V84.0346H207.503V87.0838Z" fill="#2E2C39"/>
<path d="M217.906 91.8482C217.304 91.8482 216.761 91.7407 216.276 91.5257C215.801 91.3106 215.393 91.0223 215.053 90.6607C214.714 90.2991 214.452 89.8789 214.268 89.4C214.083 88.9113 213.991 88.4031 213.991 87.8754C213.991 87.3476 214.083 86.8443 214.268 86.3654C214.452 85.8768 214.714 85.4517 215.053 85.0901C215.403 84.7284 215.815 84.4401 216.29 84.2251C216.776 84.0101 217.314 83.9026 217.906 83.9026C218.498 83.9026 219.031 84.0101 219.507 84.2251C219.992 84.4401 220.404 84.7284 220.743 85.0901C221.093 85.4517 221.359 85.8768 221.544 86.3654C221.728 86.8443 221.82 87.3476 221.82 87.8754C221.82 88.4031 221.728 88.9113 221.544 89.4C221.359 89.8789 221.093 90.2991 220.743 90.6607C220.404 91.0223 219.992 91.3106 219.507 91.5257C219.031 91.7407 218.498 91.8482 217.906 91.8482ZM215.636 87.8901C215.636 88.2614 215.694 88.6035 215.81 88.9162C215.927 89.229 216.087 89.5026 216.29 89.7372C216.494 89.962 216.732 90.1428 217.004 90.2796C217.285 90.4066 217.586 90.4702 217.906 90.4702C218.226 90.4702 218.522 90.4066 218.793 90.2796C219.075 90.1428 219.317 89.9571 219.521 89.7225C219.725 89.488 219.885 89.2143 220.001 88.9016C220.118 88.5888 220.176 88.2468 220.176 87.8754C220.176 87.5138 220.118 87.1766 220.001 86.8639C219.885 86.5414 219.725 86.2628 219.521 86.0283C219.317 85.7937 219.075 85.6129 218.793 85.4859C218.522 85.349 218.226 85.2806 217.906 85.2806C217.595 85.2806 217.299 85.349 217.018 85.4859C216.746 85.6227 216.509 85.8084 216.305 86.0429C216.101 86.2775 215.936 86.556 215.81 86.8785C215.694 87.1913 215.636 87.5284 215.636 87.8901Z" fill="#2E2C39"/>
<path d="M222.182 90.3529C222.473 90.3333 222.716 90.2698 222.91 90.1623C223.104 90.045 223.269 89.8398 223.405 89.5466C223.54 89.2534 223.652 88.8478 223.739 88.3298C223.836 87.8119 223.928 87.1326 224.016 86.2921L224.263 84.0346H229.284V91.7016H227.698V85.3539H225.689L225.5 86.7613C225.364 87.7483 225.219 88.5595 225.064 89.1948C224.908 89.83 224.709 90.3382 224.467 90.7194C224.234 91.0907 223.943 91.3546 223.594 91.511C223.254 91.6674 222.837 91.7553 222.342 91.7749L222.182 90.3529Z" fill="#2E2C39"/>
<path d="M234.647 91.8482C234.045 91.8482 233.502 91.7407 233.017 91.5257C232.541 91.3106 232.134 91.0223 231.794 90.6607C231.455 90.2991 231.193 89.8789 231.008 89.4C230.824 88.9113 230.732 88.4031 230.732 87.8754C230.732 87.3476 230.824 86.8443 231.008 86.3654C231.193 85.8768 231.455 85.4517 231.794 85.0901C232.144 84.7284 232.556 84.4401 233.031 84.2251C233.516 84.0101 234.055 83.9026 234.647 83.9026C235.238 83.9026 235.772 84.0101 236.247 84.2251C236.732 84.4401 237.145 84.7284 237.484 85.0901C237.833 85.4517 238.1 85.8768 238.285 86.3654C238.469 86.8443 238.561 87.3476 238.561 87.8754C238.561 88.4031 238.469 88.9113 238.285 89.4C238.1 89.8789 237.833 90.2991 237.484 90.6607C237.145 91.0223 236.732 91.3106 236.247 91.5257C235.772 91.7407 235.238 91.8482 234.647 91.8482ZM232.376 87.8901C232.376 88.2614 232.435 88.6035 232.551 88.9162C232.667 89.229 232.828 89.5026 233.031 89.7372C233.235 89.962 233.473 90.1428 233.744 90.2796C234.026 90.4066 234.326 90.4702 234.647 90.4702C234.967 90.4702 235.263 90.4066 235.534 90.2796C235.816 90.1428 236.058 89.9571 236.262 89.7225C236.466 89.488 236.626 89.2143 236.742 88.9016C236.859 88.5888 236.917 88.2468 236.917 87.8754C236.917 87.5138 236.859 87.1766 236.742 86.8639C236.626 86.5414 236.466 86.2628 236.262 86.0283C236.058 85.7937 235.816 85.6129 235.534 85.4859C235.263 85.349 234.967 85.2806 234.647 85.2806C234.336 85.2806 234.04 85.349 233.759 85.4859C233.487 85.6227 233.25 85.8084 233.046 86.0429C232.842 86.2775 232.677 86.556 232.551 86.8785C232.435 87.1913 232.376 87.5284 232.376 87.8901Z" fill="#2E2C39"/>
<path d="M244.987 85.3099H241.582V91.7016H240.01V84.0346H244.987V85.3099Z" fill="#2E2C39"/>
<path d="M246.22 91.7016V84.0346H247.821V91.7016H246.22ZM246.22 82.7738V81H247.821V82.7738H246.22Z" fill="#2E2C39"/>
<path d="M255.055 91.7016H253.483V88.799C253.26 88.8771 253.032 88.9358 252.799 88.9749C252.566 89.0042 252.241 89.0188 251.824 89.0188C251.378 89.0188 251 88.9455 250.689 88.799C250.379 88.6524 250.122 88.4569 249.918 88.2126C249.724 87.9682 249.578 87.6848 249.481 87.3623C249.394 87.0398 249.35 86.7026 249.35 86.3508V84.0346H250.908V86.0723C250.908 86.6782 251.019 87.0984 251.242 87.333C251.475 87.5675 251.795 87.6848 252.203 87.6848C252.542 87.6848 252.809 87.6555 253.003 87.5969C253.207 87.5382 253.367 87.46 253.483 87.3623V84.0346H255.055V91.7016Z" fill="#2E2C39"/>
<path d="M258.607 87.0838H262.07V84.0346H263.642V91.7016H262.07V88.4471H258.607V91.7016H257.035V84.0346H258.607V87.0838Z" fill="#2E2C39"/>
<path d="M269.009 91.8482C268.408 91.8482 267.865 91.7407 267.379 91.5257C266.904 91.3106 266.497 91.0223 266.157 90.6607C265.818 90.2991 265.556 89.8789 265.371 89.4C265.187 88.9113 265.095 88.4031 265.095 87.8754C265.095 87.3476 265.187 86.8443 265.371 86.3654C265.556 85.8768 265.818 85.4517 266.157 85.0901C266.506 84.7284 266.919 84.4401 267.394 84.2251C267.879 84.0101 268.417 83.9026 269.009 83.9026C269.601 83.9026 270.135 84.0101 270.61 84.2251C271.095 84.4401 271.507 84.7284 271.847 85.0901C272.196 85.4517 272.463 85.8768 272.647 86.3654C272.832 86.8443 272.924 87.3476 272.924 87.8754C272.924 88.4031 272.832 88.9113 272.647 89.4C272.463 89.8789 272.196 90.2991 271.847 90.6607C271.507 91.0223 271.095 91.3106 270.61 91.5257C270.135 91.7407 269.601 91.8482 269.009 91.8482ZM266.739 87.8901C266.739 88.2614 266.797 88.6035 266.914 88.9162C267.03 89.229 267.19 89.5026 267.394 89.7372C267.598 89.962 267.835 90.1428 268.107 90.2796C268.388 90.4066 268.689 90.4702 269.009 90.4702C269.329 90.4702 269.625 90.4066 269.897 90.2796C270.178 90.1428 270.421 89.9571 270.625 89.7225C270.828 89.488 270.988 89.2143 271.105 88.9016C271.221 88.5888 271.279 88.2468 271.279 87.8754C271.279 87.5138 271.221 87.1766 271.105 86.8639C270.988 86.5414 270.828 86.2628 270.625 86.0283C270.421 85.7937 270.178 85.6129 269.897 85.4859C269.625 85.349 269.329 85.2806 269.009 85.2806C268.699 85.2806 268.403 85.349 268.122 85.4859C267.85 85.6227 267.612 85.8084 267.409 86.0429C267.205 86.2775 267.04 86.556 266.914 86.8785C266.797 87.1913 266.739 87.5284 266.739 87.8901Z" fill="#2E2C39"/>
<path d="M279.35 85.3099H275.944V91.7016H274.373V84.0346H279.35V85.3099Z" fill="#2E2C39"/>
<path d="M283.547 91.8482C282.946 91.8482 282.403 91.7407 281.918 91.5257C281.442 91.3106 281.035 91.0223 280.695 90.6607C280.356 90.2991 280.094 89.8789 279.909 89.4C279.725 88.9113 279.633 88.4031 279.633 87.8754C279.633 87.3476 279.725 86.8443 279.909 86.3654C280.094 85.8768 280.356 85.4517 280.695 85.0901C281.044 84.7284 281.457 84.4401 281.932 84.2251C282.417 84.0101 282.956 83.9026 283.547 83.9026C284.139 83.9026 284.673 84.0101 285.148 84.2251C285.633 84.4401 286.046 84.7284 286.385 85.0901C286.734 85.4517 287.001 85.8768 287.185 86.3654C287.37 86.8443 287.462 87.3476 287.462 87.8754C287.462 88.4031 287.37 88.9113 287.185 89.4C287.001 89.8789 286.734 90.2991 286.385 90.6607C286.046 91.0223 285.633 91.3106 285.148 91.5257C284.673 91.7407 284.139 91.8482 283.547 91.8482ZM281.277 87.8901C281.277 88.2614 281.335 88.6035 281.452 88.9162C281.568 89.229 281.728 89.5026 281.932 89.7372C282.136 89.962 282.373 90.1428 282.645 90.2796C282.926 90.4066 283.227 90.4702 283.547 90.4702C283.868 90.4702 284.163 90.4066 284.435 90.2796C284.716 90.1428 284.959 89.9571 285.163 89.7225C285.366 89.488 285.526 89.2143 285.643 88.9016C285.759 88.5888 285.818 88.2468 285.818 87.8754C285.818 87.5138 285.759 87.1766 285.643 86.8639C285.526 86.5414 285.366 86.2628 285.163 86.0283C284.959 85.7937 284.716 85.6129 284.435 85.4859C284.163 85.349 283.868 85.2806 283.547 85.2806C283.237 85.2806 282.941 85.349 282.66 85.4859C282.388 85.6227 282.15 85.8084 281.947 86.0429C281.743 86.2775 281.578 86.556 281.452 86.8785C281.335 87.1913 281.277 87.5284 281.277 87.8901Z" fill="#2E2C39"/>
<path d="M292.579 93.2702C292.744 93.3972 292.904 93.4852 293.059 93.534C293.214 93.5829 293.37 93.6073 293.525 93.6073C293.777 93.6073 294 93.4656 294.194 93.1822C294.398 92.9086 294.592 92.415 294.776 91.7016L291.648 84.0346H293.292L295.65 90.2796L297.745 84.0346H299.259L296.101 92.7277C295.79 93.578 295.441 94.1693 295.053 94.5016C294.675 94.8339 294.214 95 293.67 95C293.438 95 293.234 94.9756 293.059 94.9267C292.885 94.8778 292.725 94.7899 292.579 94.6628V93.2702Z" fill="#2E2C39"/>
<path d="M302.036 87.0838H305.5V84.0346H307.071V91.7016H305.5V88.4471H302.036V91.7016H300.465V84.0346H302.036V87.0838Z" fill="#2E2C39"/>
<path d="M309.048 91.7016V84.0346H310.649V91.7016H309.048ZM309.048 82.7738V81H310.649V82.7738H309.048Z" fill="#2E2C39"/>
<path d="M316.806 84.0346C317.077 84.0346 317.33 84.0834 317.563 84.1812C317.805 84.2789 318.009 84.4157 318.174 84.5916C318.348 84.7578 318.484 84.9581 318.581 85.1927C318.678 85.4272 318.727 85.6764 318.727 85.9403C318.727 86.2726 318.644 86.6098 318.479 86.9518C318.314 87.2841 318.033 87.5333 317.635 87.6995C318.072 87.8265 318.411 88.0513 318.654 88.3738C318.906 88.6866 319.032 89.0921 319.032 89.5906C319.032 90.2649 318.799 90.7878 318.334 91.1592C317.868 91.5208 317.252 91.7016 316.486 91.7016H312.658V84.0346H316.806ZM316.107 87.2743C316.427 87.2743 316.68 87.1864 316.864 87.0105C317.058 86.8248 317.155 86.5609 317.155 86.2188C317.155 85.9354 317.077 85.696 316.922 85.5005C316.767 85.3051 316.52 85.2073 316.18 85.2073H314.23V87.2743H316.107ZM316.34 90.5288C316.68 90.5288 316.947 90.4213 317.141 90.2063C317.344 89.9815 317.446 89.7176 317.446 89.4147C317.446 89.1117 317.349 88.8527 317.155 88.6377C316.971 88.4227 316.709 88.3152 316.369 88.3152H314.23V90.5288H316.34Z" fill="#2E2C39"/>
<path d="M323.922 91.8482C323.33 91.8482 322.792 91.7455 322.307 91.5403C321.822 91.3253 321.405 91.037 321.055 90.6754C320.716 90.3138 320.449 89.8935 320.255 89.4147C320.071 88.9358 319.978 88.4276 319.978 87.8901C319.978 87.3525 320.071 86.8443 320.255 86.3654C320.449 85.8768 320.716 85.4517 321.055 85.0901C321.405 84.7187 321.822 84.4304 322.307 84.2251C322.792 84.0101 323.335 83.9026 323.937 83.9026C324.528 83.9026 325.062 84.0101 325.537 84.2251C326.023 84.4401 326.435 84.7284 326.774 85.0901C327.114 85.4419 327.371 85.8572 327.546 86.3361C327.73 86.8052 327.822 87.2988 327.822 87.8168C327.822 87.934 327.817 88.0464 327.808 88.1539C327.798 88.2517 327.788 88.3347 327.778 88.4031H321.681C321.71 88.7452 321.788 89.0531 321.914 89.3267C322.05 89.6003 322.22 89.8398 322.423 90.045C322.637 90.2405 322.874 90.392 323.136 90.4995C323.408 90.607 323.689 90.6607 323.98 90.6607C324.194 90.6607 324.402 90.6363 324.606 90.5874C324.82 90.5288 325.014 90.4506 325.188 90.3529C325.363 90.2454 325.518 90.1183 325.654 89.9717C325.79 89.8251 325.896 89.6639 325.974 89.488L327.342 89.8838C327.08 90.4604 326.643 90.9344 326.032 91.3058C325.431 91.6674 324.727 91.8482 323.922 91.8482ZM326.236 87.289C326.207 86.9665 326.124 86.6684 325.989 86.3948C325.862 86.1211 325.698 85.8914 325.494 85.7058C325.29 85.5103 325.052 85.3588 324.781 85.2513C324.509 85.1438 324.223 85.0901 323.922 85.0901C323.621 85.0901 323.335 85.1438 323.064 85.2513C322.802 85.3588 322.569 85.5103 322.365 85.7058C322.161 85.8914 321.996 86.1211 321.87 86.3948C321.744 86.6684 321.667 86.9665 321.637 87.289H326.236Z" fill="#2E2C39"/>
<path d="M333.479 91.8482C332.868 91.8482 332.329 91.7016 331.864 91.4084C331.398 91.1152 331.029 90.734 330.758 90.2649V94.8241H329.157V84.0346H330.569V85.4126C330.86 84.9532 331.233 84.5867 331.689 84.3131C332.155 84.0394 332.679 83.9026 333.261 83.9026C333.785 83.9026 334.265 84.0101 334.701 84.2251C335.138 84.4401 335.516 84.7284 335.836 85.0901C336.157 85.4517 336.404 85.8719 336.579 86.3508C336.763 86.8297 336.855 87.333 336.855 87.8607C336.855 88.4178 336.773 88.9407 336.608 89.4293C336.443 89.9082 336.21 90.3284 335.909 90.6901C335.608 91.0419 335.25 91.3253 334.832 91.5403C334.425 91.7455 333.974 91.8482 333.479 91.8482ZM332.955 90.4702C333.295 90.4702 333.6 90.3969 333.872 90.2503C334.153 90.1037 334.391 89.9082 334.585 89.6639C334.789 89.4195 334.944 89.141 335.051 88.8283C335.157 88.5155 335.211 88.193 335.211 87.8607C335.211 87.5089 335.148 87.1766 335.022 86.8639C334.905 86.5511 334.74 86.2775 334.527 86.0429C334.323 85.8084 334.076 85.6227 333.785 85.4859C333.494 85.349 333.178 85.2806 332.839 85.2806C332.635 85.2806 332.422 85.3197 332.198 85.3979C331.975 85.4761 331.767 85.5836 331.573 85.7204C331.379 85.8572 331.209 86.0185 331.063 86.2042C330.918 86.3801 330.816 86.5756 330.758 86.7906V88.799C330.855 89.0335 330.981 89.2534 331.136 89.4586C331.291 89.6639 331.461 89.8398 331.645 89.9864C331.839 90.133 332.048 90.2503 332.271 90.3382C332.494 90.4262 332.722 90.4702 332.955 90.4702Z" fill="#2E2C39"/>
<path d="M337.799 87.8607C337.799 87.3232 337.891 86.815 338.076 86.3361C338.26 85.8572 338.522 85.437 338.862 85.0754C339.211 84.7138 339.628 84.4304 340.113 84.2251C340.598 84.0101 341.142 83.9026 341.743 83.9026C342.529 83.9026 343.203 84.0785 343.766 84.4304C344.338 84.7724 344.765 85.2318 345.046 85.8084L343.489 86.3068C343.305 85.9843 343.058 85.7351 342.747 85.5592C342.437 85.3735 342.092 85.2806 341.714 85.2806C341.394 85.2806 341.093 85.3442 340.812 85.4712C340.54 85.5983 340.302 85.7791 340.099 86.0136C339.895 86.2384 339.735 86.5072 339.618 86.8199C339.502 87.1326 339.444 87.4796 339.444 87.8607C339.444 88.2321 339.502 88.5791 339.618 88.9016C339.744 89.2143 339.909 89.488 340.113 89.7225C340.327 89.9571 340.569 90.1428 340.841 90.2796C341.122 90.4066 341.418 90.4702 341.728 90.4702C341.922 90.4702 342.117 90.4457 342.311 90.3969C342.505 90.3382 342.679 90.26 342.834 90.1623C342.999 90.0646 343.14 89.9522 343.256 89.8251C343.383 89.6981 343.475 89.5613 343.533 89.4147L345.105 89.8838C344.852 90.4604 344.43 90.9344 343.839 91.3058C343.247 91.6674 342.548 91.8482 341.743 91.8482C341.151 91.8482 340.613 91.7407 340.128 91.5257C339.643 91.3106 339.225 91.0223 338.876 90.6607C338.537 90.2894 338.27 89.8642 338.076 89.3853C337.891 88.9065 337.799 88.3983 337.799 87.8607Z" fill="#2E2C39"/>
<path d="M348.024 89.4147L351.924 84.0346H353.146V91.7016H351.574V86.4387L347.747 91.7016H346.452V84.0346H348.024V89.4147Z" fill="#2E2C39"/>
<path d="M358.468 91.7016H356.896V85.4272H354.422V84.0346H360.941V85.4272H358.468V91.7016Z" fill="#2E2C39"/>
<path d="M365.263 91.8482C364.671 91.8482 364.132 91.7455 363.647 91.5403C363.162 91.3253 362.745 91.037 362.396 90.6754C362.056 90.3138 361.789 89.8935 361.595 89.4147C361.411 88.9358 361.319 88.4276 361.319 87.8901C361.319 87.3525 361.411 86.8443 361.595 86.3654C361.789 85.8768 362.056 85.4517 362.396 85.0901C362.745 84.7187 363.162 84.4304 363.647 84.2251C364.132 84.0101 364.676 83.9026 365.277 83.9026C365.869 83.9026 366.402 84.0101 366.878 84.2251C367.363 84.4401 367.775 84.7284 368.115 85.0901C368.454 85.4419 368.711 85.8572 368.886 86.3361C369.07 86.8052 369.163 87.2988 369.163 87.8168C369.163 87.934 369.158 88.0464 369.148 88.1539C369.138 88.2517 369.129 88.3347 369.119 88.4031H363.022C363.051 88.7452 363.128 89.0531 363.254 89.3267C363.39 89.6003 363.56 89.8398 363.764 90.045C363.977 90.2405 364.215 90.392 364.477 90.4995C364.748 90.607 365.03 90.6607 365.321 90.6607C365.534 90.6607 365.743 90.6363 365.947 90.5874C366.16 90.5288 366.354 90.4506 366.529 90.3529C366.703 90.2454 366.858 90.1183 366.994 89.9717C367.13 89.8251 367.237 89.6639 367.314 89.488L368.682 89.8838C368.42 90.4604 367.984 90.9344 367.373 91.3058C366.771 91.6674 366.068 91.8482 365.263 91.8482ZM367.576 87.289C367.547 86.9665 367.465 86.6684 367.329 86.3948C367.203 86.1211 367.038 85.8914 366.834 85.7058C366.63 85.5103 366.393 85.3588 366.121 85.2513C365.85 85.1438 365.563 85.0901 365.263 85.0901C364.962 85.0901 364.676 85.1438 364.404 85.2513C364.142 85.3588 363.909 85.5103 363.705 85.7058C363.502 85.8914 363.337 86.1211 363.211 86.3948C363.085 86.6684 363.007 86.9665 362.978 87.289H367.576Z" fill="#2E2C39"/>
<path d="M373.503 91.7016H371.931V85.4272H369.457V84.0346H375.977V85.4272H373.503V91.7016Z" fill="#2E2C39"/>
<path d="M377.321 93.2702C377.485 93.3972 377.646 93.4852 377.801 93.534C377.956 93.5829 378.111 93.6073 378.266 93.6073C378.519 93.6073 378.742 93.4656 378.936 93.1822C379.14 92.9086 379.334 92.415 379.518 91.7016L376.389 84.0346H378.034L380.391 90.2796L382.487 84.0346H384L380.842 92.7277C380.532 93.578 380.182 94.1693 379.794 94.5016C379.416 94.8339 378.955 95 378.412 95C378.179 95 377.975 94.9756 377.801 94.9267C377.626 94.8778 377.466 94.7899 377.321 94.6628V93.2702Z" fill="#2E2C39"/>
<path d="M11.9248 57.5776V70.8075H9.8073V64.9752H3.09876V70.8075H1V57.5776H3.09876V63.1118H9.8073V57.5776H11.9248Z" fill="#2E2C39"/>
<path d="M17.231 70.9938C16.7563 70.9938 16.3128 70.9193 15.9005 70.7702C15.5008 70.6087 15.151 70.3913 14.8511 70.118C14.5638 69.8447 14.3327 69.5217 14.1578 69.1491C13.9954 68.7764 13.9142 68.3727 13.9142 67.9379C13.9142 67.4783 14.0141 67.0621 14.214 66.6894C14.4139 66.3168 14.695 65.9938 15.0573 65.7205C15.432 65.4472 15.8693 65.236 16.369 65.087C16.8812 64.9379 17.4434 64.8634 18.0555 64.8634C18.5177 64.8634 18.9737 64.9068 19.4234 64.9938C19.8732 65.0683 20.2792 65.1739 20.6415 65.3106V64.6398C20.6415 63.9193 20.4353 63.3602 20.0231 62.9627C19.6108 62.5528 19.0174 62.3478 18.2429 62.3478C17.7182 62.3478 17.1998 62.4472 16.6876 62.646C16.1879 62.8323 15.6694 63.1056 15.1322 63.4658L14.4951 62.1615C15.7569 61.3168 17.0686 60.8944 18.4303 60.8944C19.7795 60.8944 20.8289 61.236 21.5784 61.9193C22.328 62.6025 22.7028 63.5839 22.7028 64.8634V68.3851C22.7028 68.8199 22.8839 69.0435 23.2462 69.0559V70.8075C23.0463 70.8447 22.8714 70.8696 22.7215 70.882C22.5841 70.8944 22.4467 70.9006 22.3092 70.9006C21.9095 70.9006 21.5972 70.8012 21.3723 70.6025C21.1599 70.4037 21.0287 70.1491 20.9788 69.8385L20.9226 69.2236C20.4853 69.795 19.9419 70.236 19.2923 70.5466C18.6551 70.8447 17.9681 70.9938 17.231 70.9938ZM17.7932 69.4845C18.2929 69.4845 18.7613 69.3975 19.1986 69.2236C19.6483 69.0373 19.9981 68.7826 20.248 68.4596C20.5103 68.236 20.6415 68 20.6415 67.7516V66.4658C20.2917 66.3292 19.9169 66.2236 19.5171 66.1491C19.1299 66.0745 18.7488 66.0373 18.3741 66.0373C17.637 66.0373 17.0311 66.1988 16.5564 66.5217C16.0942 66.8323 15.863 67.2484 15.863 67.7702C15.863 68.2547 16.0442 68.6646 16.4065 69C16.7688 69.323 17.231 69.4845 17.7932 69.4845Z" fill="#2E2C39"/>
<path d="M25.0968 72.8012C25.3092 72.9627 25.5153 73.0745 25.7152 73.1366C25.9151 73.1988 26.1149 73.2298 26.3148 73.2298C26.6396 73.2298 26.927 73.0497 27.1768 72.6894C27.4392 72.3416 27.689 71.7143 27.9264 70.8075L23.8975 61.0621H26.015L29.0507 69L31.7491 61.0621H33.698L29.6316 72.1118C29.2319 73.1925 28.7821 73.9441 28.2824 74.3665C27.7952 74.7888 27.2018 75 26.5022 75C26.2024 75 25.9401 74.9689 25.7152 74.9068C25.4903 74.8447 25.2842 74.7329 25.0968 74.5714V72.8012Z" fill="#2E2C39"/>
<path d="M41.1725 61.0621H43.4211L39.5797 65.795L43.7022 70.8075H41.3973L38.193 66.7826H37.2748V70.8075H35.251V61.0621H37.2748V65.1242H38.0431L41.1725 61.0621Z" fill="#2E2C39"/>
<path d="M48.9683 70.9938C48.1938 70.9938 47.4942 70.8571 46.8695 70.5839C46.2574 70.3106 45.7327 69.9441 45.2955 69.4845C44.8582 69.0248 44.5209 68.4907 44.2836 67.882C44.0462 67.2609 43.9275 66.6149 43.9275 65.9441C43.9275 65.2733 44.0462 64.6335 44.2836 64.0248C44.5209 63.4037 44.8582 62.8634 45.2955 62.4037C45.7452 61.9441 46.2761 61.5776 46.8883 61.3043C47.5129 61.0311 48.2062 60.8944 48.9683 60.8944C49.7303 60.8944 50.4174 61.0311 51.0296 61.3043C51.6542 61.5776 52.1851 61.9441 52.6224 62.4037C53.0721 62.8634 53.4157 63.4037 53.653 64.0248C53.8904 64.6335 54.0091 65.2733 54.0091 65.9441C54.0091 66.6149 53.8904 67.2609 53.653 67.882C53.4157 68.4907 53.0721 69.0248 52.6224 69.4845C52.1851 69.9441 51.6542 70.3106 51.0296 70.5839C50.4174 70.8571 49.7303 70.9938 48.9683 70.9938ZM46.045 65.9627C46.045 66.4348 46.12 66.8696 46.2699 67.2671C46.4198 67.6646 46.6259 68.0124 46.8883 68.3106C47.1506 68.5963 47.4567 68.8261 47.8065 69C48.1688 69.1615 48.556 69.2422 48.9683 69.2422C49.3806 69.2422 49.7616 69.1615 50.1114 69C50.4737 68.8261 50.786 68.5901 51.0483 68.2919C51.3107 67.9938 51.5168 67.646 51.6667 67.2484C51.8166 66.8509 51.8916 66.4161 51.8916 65.9441C51.8916 65.4845 51.8166 65.0559 51.6667 64.6584C51.5168 64.2484 51.3107 63.8944 51.0483 63.5963C50.786 63.2981 50.4737 63.0683 50.1114 62.9068C49.7616 62.7329 49.3806 62.646 48.9683 62.646C48.5685 62.646 48.1875 62.7329 47.8252 62.9068C47.4754 63.0807 47.1694 63.3168 46.907 63.6149C46.6447 63.913 46.4323 64.2671 46.2699 64.677C46.12 65.0745 46.045 65.5031 46.045 65.9627Z" fill="#2E2C39"/>
<path d="M61.2528 61.0621C61.6026 61.0621 61.9274 61.1242 62.2273 61.2484C62.5396 61.3727 62.8019 61.5466 63.0143 61.7702C63.2392 61.9814 63.4141 62.236 63.539 62.5342C63.6639 62.8323 63.7264 63.1491 63.7264 63.4845C63.7264 63.9068 63.6202 64.3354 63.4078 64.7702C63.1954 65.1925 62.8331 65.5093 62.3209 65.7205C62.8831 65.882 63.3204 66.1677 63.6327 66.5776C63.9575 66.9752 64.1199 67.4907 64.1199 68.1242C64.1199 68.9814 63.8201 69.646 63.2204 70.118C62.6208 70.5776 61.8275 70.8075 60.8406 70.8075H55.9122V61.0621H61.2528ZM60.3534 65.1801C60.7656 65.1801 61.0904 65.0683 61.3278 64.8447C61.5776 64.6087 61.7026 64.2733 61.7026 63.8385C61.7026 63.4783 61.6026 63.1739 61.4027 62.9255C61.2029 62.677 60.8843 62.5528 60.4471 62.5528H57.936V65.1801H60.3534ZM60.6532 69.3168C61.0904 69.3168 61.434 69.1801 61.6838 68.9068C61.9462 68.6211 62.0773 68.2857 62.0773 67.9006C62.0773 67.5155 61.9524 67.1863 61.7026 66.913C61.4652 66.6398 61.1279 66.5031 60.6907 66.5031H57.936V69.3168H60.6532Z" fill="#2E2C39"/>
<path d="M68.58 70.9938C68.1053 70.9938 67.6618 70.9193 67.2496 70.7702C66.8498 70.6087 66.5 70.3913 66.2002 70.118C65.9129 69.8447 65.6818 69.5217 65.5069 69.1491C65.3445 68.7764 65.2633 68.3727 65.2633 67.9379C65.2633 67.4783 65.3632 67.0621 65.5631 66.6894C65.763 66.3168 66.044 65.9938 66.4063 65.7205C66.7811 65.4472 67.2184 65.236 67.7181 65.087C68.2303 64.9379 68.7924 64.8634 69.4046 64.8634C69.8668 64.8634 70.3228 64.9068 70.7725 64.9938C71.2222 65.0683 71.6283 65.1739 71.9905 65.3106V64.6398C71.9905 63.9193 71.7844 63.3602 71.3721 62.9627C70.9599 62.5528 70.3665 62.3478 69.5919 62.3478C69.0673 62.3478 68.5488 62.4472 68.0366 62.646C67.5369 62.8323 67.0185 63.1056 66.4813 63.4658L65.8442 62.1615C67.1059 61.3168 68.4176 60.8944 69.7793 60.8944C71.1285 60.8944 72.1779 61.236 72.9275 61.9193C73.677 62.6025 74.0518 63.5839 74.0518 64.8634V68.3851C74.0518 68.8199 74.233 69.0435 74.5952 69.0559V70.8075C74.3954 70.8447 74.2205 70.8696 74.0706 70.882C73.9331 70.8944 73.7957 70.9006 73.6583 70.9006C73.2585 70.9006 72.9462 70.8012 72.7214 70.6025C72.509 70.4037 72.3778 70.1491 72.3278 69.8385L72.2716 69.2236C71.8344 69.795 71.2909 70.236 70.6413 70.5466C70.0042 70.8447 69.3171 70.9938 68.58 70.9938ZM69.1422 69.4845C69.6419 69.4845 70.1104 69.3975 70.5476 69.2236C70.9974 69.0373 71.3472 68.7826 71.597 68.4596C71.8594 68.236 71.9905 68 71.9905 67.7516V66.4658C71.6407 66.3292 71.266 66.2236 70.8662 66.1491C70.4789 66.0745 70.0979 66.0373 69.7231 66.0373C68.9861 66.0373 68.3802 66.1988 67.9054 66.5217C67.4432 66.8323 67.2121 67.2484 67.2121 67.7702C67.2121 68.2547 67.3932 68.6646 67.7555 69C68.1178 69.323 68.58 69.4845 69.1422 69.4845Z" fill="#2E2C39"/>
<path d="M86.8037 70.9938C86.0166 70.9938 85.3233 70.8075 84.7236 70.4348C84.124 70.0621 83.6493 69.5776 83.2995 68.9814V74.7764H81.2382V61.0621H83.0559V62.8137C83.4306 62.2298 83.9116 61.764 84.4988 61.4161C85.0984 61.0683 85.773 60.8944 86.5226 60.8944C87.1972 60.8944 87.8156 61.0311 88.3777 61.3043C88.9399 61.5776 89.4271 61.9441 89.8394 62.4037C90.2516 62.8634 90.5702 63.3975 90.795 64.0062C91.0324 64.6149 91.1511 65.2547 91.1511 65.9255C91.1511 66.6335 91.0449 67.2981 90.8325 67.9193C90.6202 68.528 90.3203 69.0621 89.9331 69.5217C89.5458 69.9689 89.0836 70.3292 88.5464 70.6025C88.0217 70.8634 87.4408 70.9938 86.8037 70.9938ZM86.1291 69.2422C86.5663 69.2422 86.9598 69.1491 87.3096 68.9627C87.6719 68.7764 87.978 68.528 88.2278 68.2174C88.4902 67.9068 88.69 67.5528 88.8275 67.1553C88.9649 66.7578 89.0336 66.3478 89.0336 65.9255C89.0336 65.4783 88.9524 65.0559 88.79 64.6584C88.6401 64.2609 88.4277 63.913 88.1529 63.6149C87.8905 63.3168 87.572 63.0807 87.1972 62.9068C86.8224 62.7329 86.4164 62.646 85.9791 62.646C85.7168 62.646 85.442 62.6957 85.1546 62.795C84.8673 62.8944 84.5987 63.0311 84.3489 63.205C84.099 63.3789 83.8804 63.5839 83.693 63.8199C83.5056 64.0435 83.3744 64.2919 83.2995 64.5652V67.118C83.4244 67.4161 83.5868 67.6957 83.7867 67.9565C83.9866 68.2174 84.2052 68.441 84.4426 68.6273C84.6924 68.8137 84.961 68.9627 85.2483 69.0745C85.5357 69.1863 85.8292 69.2422 86.1291 69.2422Z" fill="#2E2C39"/>
<path d="M97.4077 70.9938C96.6331 70.9938 95.9336 70.8571 95.3089 70.5839C94.6968 70.3106 94.1721 69.9441 93.7349 69.4845C93.2976 69.0248 92.9603 68.4907 92.723 67.882C92.4856 67.2609 92.3669 66.6149 92.3669 65.9441C92.3669 65.2733 92.4856 64.6335 92.723 64.0248C92.9603 63.4037 93.2976 62.8634 93.7349 62.4037C94.1846 61.9441 94.7155 61.5776 95.3277 61.3043C95.9523 61.0311 96.6456 60.8944 97.4077 60.8944C98.1697 60.8944 98.8568 61.0311 99.469 61.3043C100.094 61.5776 100.625 61.9441 101.062 62.4037C101.512 62.8634 101.855 63.4037 102.092 64.0248C102.33 64.6335 102.448 65.2733 102.448 65.9441C102.448 66.6149 102.33 67.2609 102.092 67.882C101.855 68.4907 101.512 69.0248 101.062 69.4845C100.625 69.9441 100.094 70.3106 99.469 70.5839C98.8568 70.8571 98.1697 70.9938 97.4077 70.9938ZM94.4844 65.9627C94.4844 66.4348 94.5594 66.8696 94.7093 67.2671C94.8592 67.6646 95.0653 68.0124 95.3277 68.3106C95.59 68.5963 95.8961 68.8261 96.2459 69C96.6082 69.1615 96.9954 69.2422 97.4077 69.2422C97.8199 69.2422 98.201 69.1615 98.5508 69C98.9131 68.8261 99.2254 68.5901 99.4877 68.2919C99.7501 67.9938 99.9562 67.646 100.106 67.2484C100.256 66.8509 100.331 66.4161 100.331 65.9441C100.331 65.4845 100.256 65.0559 100.106 64.6584C99.9562 64.2484 99.7501 63.8944 99.4877 63.5963C99.2254 63.2981 98.9131 63.0683 98.5508 62.9068C98.201 62.7329 97.8199 62.646 97.4077 62.646C97.0079 62.646 96.6269 62.7329 96.2646 62.9068C95.9148 63.0807 95.6088 63.3168 95.3464 63.6149C95.0841 63.913 94.8717 64.2671 94.7093 64.677C94.5594 65.0745 94.4844 65.5031 94.4844 65.9627Z" fill="#2E2C39"/>
<path d="M109.074 59.5155C108.199 59.7143 107.506 60.0994 106.994 60.6708C106.482 61.2298 106.138 62.0311 105.963 63.0745C106.363 62.5776 106.838 62.1988 107.387 61.9379C107.95 61.677 108.568 61.5466 109.243 61.5466C109.855 61.5466 110.423 61.6708 110.948 61.9193C111.485 62.1553 111.947 62.4845 112.334 62.9068C112.722 63.3292 113.028 63.8261 113.253 64.3975C113.477 64.9689 113.59 65.5901 113.59 66.2609C113.59 66.9441 113.471 67.5776 113.234 68.1615C113.009 68.7329 112.684 69.2298 112.259 69.6522C111.847 70.0745 111.341 70.4037 110.742 70.6398C110.142 70.8758 109.467 70.9938 108.718 70.9938C107.156 70.9938 105.969 70.4845 105.157 69.4658C104.358 68.4348 103.958 66.9255 103.958 64.9379C103.958 62.8261 104.383 61.1988 105.232 60.0559C106.082 58.913 107.337 58.1491 108.999 57.764L112.353 57L112.578 58.7143L109.074 59.5155ZM106.076 66.1677C106.076 66.6273 106.144 67.0497 106.282 67.4348C106.419 67.8075 106.607 68.1366 106.844 68.4224C107.094 68.6957 107.381 68.913 107.706 69.0745C108.043 69.2236 108.412 69.2981 108.812 69.2981C109.199 69.2981 109.555 69.2236 109.88 69.0745C110.217 68.9255 110.504 68.7205 110.742 68.4596C110.979 68.1988 111.16 67.882 111.285 67.5093C111.422 67.1366 111.491 66.7267 111.491 66.2795C111.491 65.8447 111.422 65.4472 111.285 65.087C111.148 64.7143 110.954 64.3975 110.704 64.1366C110.467 63.8758 110.179 63.677 109.842 63.5404C109.505 63.3913 109.136 63.3168 108.737 63.3168C108.337 63.3168 107.975 63.3851 107.65 63.5217C107.325 63.6584 107.044 63.8571 106.806 64.118C106.582 64.3665 106.4 64.6646 106.263 65.0124C106.138 65.3602 106.076 65.7453 106.076 66.1677Z" fill="#2E2C39"/>
<path d="M119.88 70.9938C119.105 70.9938 118.406 70.8571 117.781 70.5839C117.169 70.3106 116.644 69.9441 116.207 69.4845C115.77 69.0248 115.432 68.4907 115.195 67.882C114.958 67.2609 114.839 66.6149 114.839 65.9441C114.839 65.2733 114.958 64.6335 115.195 64.0248C115.432 63.4037 115.77 62.8634 116.207 62.4037C116.657 61.9441 117.188 61.5776 117.8 61.3043C118.424 61.0311 119.118 60.8944 119.88 60.8944C120.642 60.8944 121.329 61.0311 121.941 61.3043C122.566 61.5776 123.097 61.9441 123.534 62.4037C123.984 62.8634 124.327 63.4037 124.564 64.0248C124.802 64.6335 124.921 65.2733 124.921 65.9441C124.921 66.6149 124.802 67.2609 124.564 67.882C124.327 68.4907 123.984 69.0248 123.534 69.4845C123.097 69.9441 122.566 70.3106 121.941 70.5839C121.329 70.8571 120.642 70.9938 119.88 70.9938ZM116.957 65.9627C116.957 66.4348 117.031 66.8696 117.181 67.2671C117.331 67.6646 117.537 68.0124 117.8 68.3106C118.062 68.5963 118.368 68.8261 118.718 69C119.08 69.1615 119.468 69.2422 119.88 69.2422C120.292 69.2422 120.673 69.1615 121.023 69C121.385 68.8261 121.697 68.5901 121.96 68.2919C122.222 67.9938 122.428 67.646 122.578 67.2484C122.728 66.8509 122.803 66.4161 122.803 65.9441C122.803 65.4845 122.728 65.0559 122.578 64.6584C122.428 64.2484 122.222 63.8944 121.96 63.5963C121.697 63.2981 121.385 63.0683 121.023 62.9068C120.673 62.7329 120.292 62.646 119.88 62.646C119.48 62.646 119.099 62.7329 118.737 62.9068C118.387 63.0807 118.081 63.3168 117.818 63.6149C117.556 63.913 117.344 64.2671 117.181 64.677C117.031 65.0745 116.957 65.5031 116.957 65.9627Z" fill="#2E2C39"/>
<path d="M130.602 70.8075H128.578V62.8323H125.392V61.0621H133.787V62.8323H130.602V70.8075Z" fill="#2E2C39"/>
<path d="M137.808 70.9938C137.333 70.9938 136.89 70.9193 136.477 70.7702C136.078 70.6087 135.728 70.3913 135.428 70.118C135.141 69.8447 134.91 69.5217 134.735 69.1491C134.572 68.7764 134.491 68.3727 134.491 67.9379C134.491 67.4783 134.591 67.0621 134.791 66.6894C134.991 66.3168 135.272 65.9938 135.634 65.7205C136.009 65.4472 136.446 65.236 136.946 65.087C137.458 64.9379 138.02 64.8634 138.632 64.8634C139.095 64.8634 139.551 64.9068 140 64.9938C140.45 65.0683 140.856 65.1739 141.218 65.3106V64.6398C141.218 63.9193 141.012 63.3602 140.6 62.9627C140.188 62.5528 139.594 62.3478 138.82 62.3478C138.295 62.3478 137.777 62.4472 137.265 62.646C136.765 62.8323 136.246 63.1056 135.709 63.4658L135.072 62.1615C136.334 61.3168 137.646 60.8944 139.007 60.8944C140.356 60.8944 141.406 61.236 142.155 61.9193C142.905 62.6025 143.28 63.5839 143.28 64.8634V68.3851C143.28 68.8199 143.461 69.0435 143.823 69.0559V70.8075C143.623 70.8447 143.448 70.8696 143.298 70.882C143.161 70.8944 143.024 70.9006 142.886 70.9006C142.486 70.9006 142.174 70.8012 141.949 70.6025C141.737 70.4037 141.606 70.1491 141.556 69.8385L141.5 69.2236C141.062 69.795 140.519 70.236 139.869 70.5466C139.232 70.8447 138.545 70.9938 137.808 70.9938ZM138.37 69.4845C138.87 69.4845 139.338 69.3975 139.776 69.2236C140.225 69.0373 140.575 68.7826 140.825 68.4596C141.087 68.236 141.218 68 141.218 67.7516V66.4658C140.869 66.3292 140.494 66.2236 140.094 66.1491C139.707 66.0745 139.326 66.0373 138.951 66.0373C138.214 66.0373 137.608 66.1988 137.133 66.5217C136.671 66.8323 136.44 67.2484 136.44 67.7702C136.44 68.2547 136.621 68.6646 136.983 69C137.346 69.323 137.808 69.4845 138.37 69.4845Z" fill="#2E2C39"/>
<path d="M154.757 70.8075H152.734V62.8323H149.548V61.0621H157.943V62.8323H154.757V70.8075Z" fill="#2E2C39"/>
<path d="M161.964 70.9938C161.489 70.9938 161.045 70.9193 160.633 70.7702C160.233 70.6087 159.884 70.3913 159.584 70.118C159.296 69.8447 159.065 69.5217 158.89 69.1491C158.728 68.7764 158.647 68.3727 158.647 67.9379C158.647 67.4783 158.747 67.0621 158.947 66.6894C159.147 66.3168 159.428 65.9938 159.79 65.7205C160.165 65.4472 160.602 65.236 161.102 65.087C161.614 64.9379 162.176 64.8634 162.788 64.8634C163.25 64.8634 163.706 64.9068 164.156 64.9938C164.606 65.0683 165.012 65.1739 165.374 65.3106V64.6398C165.374 63.9193 165.168 63.3602 164.756 62.9627C164.343 62.5528 163.75 62.3478 162.976 62.3478C162.451 62.3478 161.932 62.4472 161.42 62.646C160.92 62.8323 160.402 63.1056 159.865 63.4658L159.228 62.1615C160.489 61.3168 161.801 60.8944 163.163 60.8944C164.512 60.8944 165.561 61.236 166.311 61.9193C167.061 62.6025 167.435 63.5839 167.435 64.8634V68.3851C167.435 68.8199 167.617 69.0435 167.979 69.0559V70.8075C167.779 70.8447 167.604 70.8696 167.454 70.882C167.317 70.8944 167.179 70.9006 167.042 70.9006C166.642 70.9006 166.33 70.8012 166.105 70.6025C165.893 70.4037 165.761 70.1491 165.711 69.8385L165.655 69.2236C165.218 69.795 164.675 70.236 164.025 70.5466C163.388 70.8447 162.701 70.9938 161.964 70.9938ZM162.526 69.4845C163.025 69.4845 163.494 69.3975 163.931 69.2236C164.381 69.0373 164.731 68.7826 164.981 68.4596C165.243 68.236 165.374 68 165.374 67.7516V66.4658C165.024 66.3292 164.65 66.2236 164.25 66.1491C163.862 66.0745 163.481 66.0373 163.107 66.0373C162.37 66.0373 161.764 66.1988 161.289 66.5217C160.827 66.8323 160.596 67.2484 160.596 67.7702C160.596 68.2547 160.777 68.6646 161.139 69C161.501 69.323 161.964 69.4845 162.526 69.4845Z" fill="#2E2C39"/>
<path d="M179.831 66.764L182.961 61.0621H185.041V70.8075H183.054V64.4161L180.375 69.2795H179.306L176.608 64.4161V70.8075H174.622V61.0621H176.721L179.831 66.764Z" fill="#2E2C39"/>
<path d="M187.596 70.8075V61.0621H189.658V70.8075H187.596ZM187.596 59.4596V57.205H189.658V59.4596H187.596Z" fill="#2E2C39"/>
<path d="M193.632 61.0621L196.068 65.1615H197.342V61.0621H199.441V65.1615H200.715L203.151 61.0621H205.437L202.439 65.795L205.737 70.8075H203.376L200.94 66.7826H199.422V70.8075H197.361V66.7826H195.862L193.426 70.8075H191.046L194.325 65.795L191.327 61.0621H193.632Z" fill="#2E2C39"/>
<path d="M209.128 64.9379H213.587V61.0621H215.611V70.8075H213.587V66.6708H209.128V70.8075H207.104V61.0621H209.128V64.9379Z" fill="#2E2C39"/>
<path d="M220.724 70.9938C220.249 70.9938 219.806 70.9193 219.394 70.7702C218.994 70.6087 218.644 70.3913 218.344 70.118C218.057 69.8447 217.826 69.5217 217.651 69.1491C217.488 68.7764 217.407 68.3727 217.407 67.9379C217.407 67.4783 217.507 67.0621 217.707 66.6894C217.907 66.3168 218.188 65.9938 218.55 65.7205C218.925 65.4472 219.362 65.236 219.862 65.087C220.374 64.9379 220.936 64.8634 221.549 64.8634C222.011 64.8634 222.467 64.9068 222.917 64.9938C223.366 65.0683 223.772 65.1739 224.135 65.3106V64.6398C224.135 63.9193 223.928 63.3602 223.516 62.9627C223.104 62.5528 222.51 62.3478 221.736 62.3478C221.211 62.3478 220.693 62.4472 220.181 62.646C219.681 62.8323 219.162 63.1056 218.625 63.4658L217.988 62.1615C219.25 61.3168 220.562 60.8944 221.923 60.8944C223.273 60.8944 224.322 61.236 225.071 61.9193C225.821 62.6025 226.196 63.5839 226.196 64.8634V68.3851C226.196 68.8199 226.377 69.0435 226.739 69.0559V70.8075C226.539 70.8447 226.364 70.8696 226.215 70.882C226.077 70.8944 225.94 70.9006 225.802 70.9006C225.403 70.9006 225.09 70.8012 224.865 70.6025C224.653 70.4037 224.522 70.1491 224.472 69.8385L224.416 69.2236C223.978 69.795 223.435 70.236 222.785 70.5466C222.148 70.8447 221.461 70.9938 220.724 70.9938ZM221.286 69.4845C221.786 69.4845 222.254 69.3975 222.692 69.2236C223.141 69.0373 223.491 68.7826 223.741 68.4596C224.003 68.236 224.135 68 224.135 67.7516V66.4658C223.785 66.3292 223.41 66.2236 223.01 66.1491C222.623 66.0745 222.242 66.0373 221.867 66.0373C221.13 66.0373 220.524 66.1988 220.049 66.5217C219.587 66.8323 219.356 67.2484 219.356 67.7702C219.356 68.2547 219.537 68.6646 219.9 69C220.262 69.323 220.724 69.4845 221.286 69.4845Z" fill="#2E2C39"/>
<path d="M234.318 70.9938C233.531 70.9938 232.837 70.8075 232.238 70.4348C231.638 70.0621 231.163 69.5776 230.814 68.9814V74.7764H228.752V61.0621H230.57V62.8137C230.945 62.2298 231.426 61.764 232.013 61.4161C232.613 61.0683 233.287 60.8944 234.037 60.8944C234.711 60.8944 235.33 61.0311 235.892 61.3043C236.454 61.5776 236.941 61.9441 237.354 62.4037C237.766 62.8634 238.084 63.3975 238.309 64.0062C238.547 64.6149 238.665 65.2547 238.665 65.9255C238.665 66.6335 238.559 67.2981 238.347 67.9193C238.134 68.528 237.835 69.0621 237.447 69.5217C237.06 69.9689 236.598 70.3292 236.061 70.6025C235.536 70.8634 234.955 70.9938 234.318 70.9938ZM233.643 69.2422C234.08 69.2422 234.474 69.1491 234.824 68.9627C235.186 68.7764 235.492 68.528 235.742 68.2174C236.004 67.9068 236.204 67.5528 236.342 67.1553C236.479 66.7578 236.548 66.3478 236.548 65.9255C236.548 65.4783 236.467 65.0559 236.304 64.6584C236.154 64.2609 235.942 63.913 235.667 63.6149C235.405 63.3168 235.086 63.0807 234.711 62.9068C234.337 62.7329 233.931 62.646 233.493 62.646C233.231 62.646 232.956 62.6957 232.669 62.795C232.381 62.8944 232.113 63.0311 231.863 63.205C231.613 63.3789 231.395 63.5839 231.207 63.8199C231.02 64.0435 230.889 64.2919 230.814 64.5652V67.118C230.939 67.4161 231.101 67.6957 231.301 67.9565C231.501 68.2174 231.719 68.441 231.957 68.6273C232.207 68.8137 232.475 68.9627 232.763 69.0745C233.05 69.1863 233.343 69.2422 233.643 69.2422Z" fill="#2E2C39"/>
<path d="M244.922 70.9938C244.147 70.9938 243.448 70.8571 242.823 70.5839C242.211 70.3106 241.686 69.9441 241.249 69.4845C240.812 69.0248 240.475 68.4907 240.237 67.882C240 67.2609 239.881 66.6149 239.881 65.9441C239.881 65.2733 240 64.6335 240.237 64.0248C240.475 63.4037 240.812 62.8634 241.249 62.4037C241.699 61.9441 242.23 61.5776 242.842 61.3043C243.466 61.0311 244.16 60.8944 244.922 60.8944C245.684 60.8944 246.371 61.0311 246.983 61.3043C247.608 61.5776 248.139 61.9441 248.576 62.4037C249.026 62.8634 249.369 63.4037 249.607 64.0248C249.844 64.6335 249.963 65.2733 249.963 65.9441C249.963 66.6149 249.844 67.2609 249.607 67.882C249.369 68.4907 249.026 69.0248 248.576 69.4845C248.139 69.9441 247.608 70.3106 246.983 70.5839C246.371 70.8571 245.684 70.9938 244.922 70.9938ZM241.999 65.9627C241.999 66.4348 242.074 66.8696 242.223 67.2671C242.373 67.6646 242.58 68.0124 242.842 68.3106C243.104 68.5963 243.41 68.8261 243.76 69C244.122 69.1615 244.51 69.2422 244.922 69.2422C245.334 69.2422 245.715 69.1615 246.065 69C246.427 68.8261 246.74 68.5901 247.002 68.2919C247.264 67.9938 247.47 67.646 247.62 67.2484C247.77 66.8509 247.845 66.4161 247.845 65.9441C247.845 65.4845 247.77 65.0559 247.62 64.6584C247.47 64.2484 247.264 63.8944 247.002 63.5963C246.74 63.2981 246.427 63.0683 246.065 62.9068C245.715 62.7329 245.334 62.646 244.922 62.646C244.522 62.646 244.141 62.7329 243.779 62.9068C243.429 63.0807 243.123 63.3168 242.861 63.6149C242.598 63.913 242.386 64.2671 242.223 64.677C242.074 65.0745 241.999 65.5031 241.999 65.9627Z" fill="#2E2C39"/>
<path d="M250.452 69.0373H250.995C251.295 68.9876 251.545 68.8758 251.745 68.7019C251.945 68.5155 252.113 68.2298 252.251 67.8447C252.401 67.4596 252.526 66.9565 252.625 66.3354C252.738 65.7019 252.844 64.9006 252.944 63.9317L253.263 61.0621H259.728V69.0373H260.964V73.7329H259.165V70.8075H252.194V73.7329H250.452V69.0373ZM257.704 69.0373V62.7391H255.118L254.874 64.528C254.712 65.7081 254.531 66.6584 254.331 67.3789C254.143 68.087 253.9 68.6398 253.6 69.0373H257.704Z" fill="#2E2C39"/>
<path d="M264.869 64.9379H269.328V61.0621H271.352V70.8075H269.328V66.6708H264.869V70.8075H262.845V61.0621H264.869V64.9379Z" fill="#2E2C39"/>
<path d="M276.465 70.9938C275.99 70.9938 275.547 70.9193 275.135 70.7702C274.735 70.6087 274.385 70.3913 274.085 70.118C273.798 69.8447 273.567 69.5217 273.392 69.1491C273.229 68.7764 273.148 68.3727 273.148 67.9379C273.148 67.4783 273.248 67.0621 273.448 66.6894C273.648 66.3168 273.929 65.9938 274.291 65.7205C274.666 65.4472 275.103 65.236 275.603 65.087C276.115 64.9379 276.677 64.8634 277.29 64.8634C277.752 64.8634 278.208 64.9068 278.658 64.9938C279.107 65.0683 279.513 65.1739 279.876 65.3106V64.6398C279.876 63.9193 279.669 63.3602 279.257 62.9627C278.845 62.5528 278.251 62.3478 277.477 62.3478C276.952 62.3478 276.434 62.4472 275.922 62.646C275.422 62.8323 274.903 63.1056 274.366 63.4658L273.729 62.1615C274.991 61.3168 276.303 60.8944 277.664 60.8944C279.014 60.8944 280.063 61.236 280.812 61.9193C281.562 62.6025 281.937 63.5839 281.937 64.8634V68.3851C281.937 68.8199 282.118 69.0435 282.48 69.0559V70.8075C282.28 70.8447 282.105 70.8696 281.956 70.882C281.818 70.8944 281.681 70.9006 281.543 70.9006C281.144 70.9006 280.831 70.8012 280.606 70.6025C280.394 70.4037 280.263 70.1491 280.213 69.8385L280.157 69.2236C279.719 69.795 279.176 70.236 278.526 70.5466C277.889 70.8447 277.202 70.9938 276.465 70.9938ZM277.027 69.4845C277.527 69.4845 277.995 69.3975 278.433 69.2236C278.882 69.0373 279.232 68.7826 279.482 68.4596C279.744 68.236 279.876 68 279.876 67.7516V66.4658C279.526 66.3292 279.151 66.2236 278.751 66.1491C278.364 66.0745 277.983 66.0373 277.608 66.0373C276.871 66.0373 276.265 66.1988 275.79 66.5217C275.328 66.8323 275.097 67.2484 275.097 67.7702C275.097 68.2547 275.278 68.6646 275.641 69C276.003 69.323 276.465 69.4845 277.027 69.4845Z" fill="#2E2C39"/>
<path d="M288.168 69.0373H288.711C289.011 68.9876 289.261 68.8758 289.461 68.7019C289.66 68.5155 289.829 68.2298 289.966 67.8447C290.116 67.4596 290.241 66.9565 290.341 66.3354C290.454 65.7019 290.56 64.9006 290.66 63.9317L290.978 61.0621H297.443V69.0373H298.68V73.7329H296.881V70.8075H289.91V73.7329H288.168V69.0373ZM295.419 69.0373V62.7391H292.833L292.59 64.528C292.427 65.7081 292.246 66.6584 292.046 67.3789C291.859 68.087 291.615 68.6398 291.316 69.0373H295.419Z" fill="#2E2C39"/>
<path d="M300.561 70.8075V61.0621H302.622V70.8075H300.561ZM300.561 59.4596V57.205H302.622V59.4596H300.561Z" fill="#2E2C39"/>
<path d="M306.765 67.0621C306.203 66.8509 305.747 66.5155 305.397 66.0559C305.047 65.5963 304.872 64.9938 304.872 64.2484C304.872 63.764 304.96 63.3292 305.135 62.9441C305.31 62.5466 305.547 62.2112 305.847 61.9379C306.147 61.6522 306.503 61.4348 306.915 61.2857C307.34 61.1242 307.796 61.0435 308.283 61.0435H312.33V70.8075H310.288V67.3975H308.695L306.596 70.8075H304.329L306.765 67.0621ZM310.288 65.7391V62.7391H308.47C308.095 62.7391 307.746 62.8696 307.421 63.1304C307.096 63.3913 306.934 63.7702 306.934 64.2671C306.934 64.7391 307.077 65.1056 307.365 65.3665C307.664 65.6149 308.014 65.7391 308.414 65.7391H310.288Z" fill="#2E2C39"/>
<path d="M313.709 69.0932C314.084 69.0683 314.396 68.9876 314.646 68.8509C314.896 68.7019 315.108 68.441 315.283 68.0683C315.458 67.6957 315.602 67.1801 315.714 66.5217C315.839 65.8634 315.958 65 316.07 63.9317L316.389 61.0621H322.854V70.8075H320.811V62.7391H318.225L317.982 64.528C317.807 65.7826 317.619 66.8137 317.419 67.6211C317.22 68.4286 316.963 69.0745 316.651 69.559C316.351 70.0311 315.977 70.3665 315.527 70.5652C315.09 70.764 314.552 70.8758 313.915 70.9006L313.709 69.0932Z" fill="#2E2C39"/>
<path d="M325.393 61.0621H327.417V64.2857H329.31C329.784 64.2857 330.234 64.354 330.659 64.4907C331.096 64.6273 331.477 64.8385 331.802 65.1242C332.139 65.3975 332.402 65.7391 332.589 66.1491C332.789 66.559 332.889 67.0311 332.889 67.5652C332.889 68.1118 332.789 68.5901 332.589 69C332.402 69.3975 332.146 69.7329 331.821 70.0062C331.496 70.2795 331.115 70.4845 330.678 70.6211C330.253 70.7453 329.809 70.8075 329.347 70.8075H325.393V61.0621ZM329.216 69.1491C329.691 69.1491 330.078 69.0186 330.378 68.7578C330.678 68.4969 330.828 68.1056 330.828 67.5839C330.828 67.0497 330.671 66.646 330.359 66.3727C330.047 66.087 329.672 65.9441 329.235 65.9441H327.417V69.1491H329.216Z" fill="#2E2C39"/>
<path d="M336.622 64.9379H341.082V61.0621H343.106V70.8075H341.082V66.6708H336.622V70.8075H334.598V61.0621H336.622V64.9379Z" fill="#2E2C39"/>
<path d="M350.017 70.9938C349.243 70.9938 348.543 70.8571 347.918 70.5839C347.306 70.3106 346.782 69.9441 346.344 69.4845C345.907 69.0248 345.57 68.4907 345.333 67.882C345.095 67.2609 344.977 66.6149 344.977 65.9441C344.977 65.2733 345.095 64.6335 345.333 64.0248C345.57 63.4037 345.907 62.8634 346.344 62.4037C346.794 61.9441 347.325 61.5776 347.937 61.3043C348.562 61.0311 349.255 60.8944 350.017 60.8944C350.779 60.8944 351.466 61.0311 352.079 61.3043C352.703 61.5776 353.234 61.9441 353.671 62.4037C354.121 62.8634 354.465 63.4037 354.702 64.0248C354.939 64.6335 355.058 65.2733 355.058 65.9441C355.058 66.6149 354.939 67.2609 354.702 67.882C354.465 68.4907 354.121 69.0248 353.671 69.4845C353.234 69.9441 352.703 70.3106 352.079 70.5839C351.466 70.8571 350.779 70.9938 350.017 70.9938ZM347.094 65.9627C347.094 66.4348 347.169 66.8696 347.319 67.2671C347.469 67.6646 347.675 68.0124 347.937 68.3106C348.2 68.5963 348.506 68.8261 348.855 69C349.218 69.1615 349.605 69.2422 350.017 69.2422C350.43 69.2422 350.811 69.1615 351.16 69C351.523 68.8261 351.835 68.5901 352.097 68.2919C352.36 67.9938 352.566 67.646 352.716 67.2484C352.866 66.8509 352.941 66.4161 352.941 65.9441C352.941 65.4845 352.866 65.0559 352.716 64.6584C352.566 64.2484 352.36 63.8944 352.097 63.5963C351.835 63.2981 351.523 63.0683 351.16 62.9068C350.811 62.7329 350.43 62.646 350.017 62.646C349.617 62.646 349.236 62.7329 348.874 62.9068C348.524 63.0807 348.218 63.3168 347.956 63.6149C347.694 63.913 347.481 64.2671 347.319 64.677C347.169 65.0745 347.094 65.5031 347.094 65.9627Z" fill="#2E2C39"/>
<path d="M356.249 65.9255C356.249 65.2422 356.368 64.5963 356.605 63.9876C356.842 63.3789 357.18 62.8447 357.617 62.3851C358.067 61.9255 358.604 61.5652 359.229 61.3043C359.853 61.0311 360.553 60.8944 361.327 60.8944C362.339 60.8944 363.208 61.118 363.932 61.5652C364.669 62 365.219 62.5839 365.581 63.3168L363.576 63.9503C363.339 63.5404 363.02 63.2236 362.62 63C362.221 62.764 361.777 62.646 361.29 62.646C360.878 62.646 360.49 62.7267 360.128 62.8882C359.778 63.0497 359.472 63.2795 359.21 63.5776C358.948 63.8634 358.741 64.205 358.591 64.6025C358.442 65 358.367 65.441 358.367 65.9255C358.367 66.3975 358.442 66.8385 358.591 67.2484C358.754 67.646 358.966 67.9938 359.229 68.2919C359.503 68.5901 359.816 68.8261 360.166 69C360.528 69.1615 360.909 69.2422 361.309 69.2422C361.559 69.2422 361.808 69.2112 362.058 69.1491C362.308 69.0745 362.533 68.9752 362.733 68.8509C362.945 68.7267 363.126 68.5839 363.276 68.4224C363.439 68.2609 363.557 68.087 363.632 67.9006L365.656 68.4969C365.331 69.2298 364.788 69.8323 364.026 70.3043C363.264 70.764 362.364 70.9938 361.327 70.9938C360.565 70.9938 359.872 70.8571 359.247 70.5839C358.623 70.3106 358.086 69.9441 357.636 69.4845C357.199 69.0124 356.855 68.472 356.605 67.8634C356.368 67.2547 356.249 66.6087 356.249 65.9255Z" fill="#2E2C39"/>
<path d="M371.682 70.8075H369.659V62.8323H366.473V61.0621H374.868V62.8323H371.682V70.8075Z" fill="#2E2C39"/>
<path d="M376.504 61.0621H378.528V64.2857H380.421C380.896 64.2857 381.345 64.354 381.77 64.4907C382.207 64.6273 382.588 64.8385 382.913 65.1242C383.25 65.3975 383.513 65.7391 383.7 66.1491C383.9 66.559 384 67.0311 384 67.5652C384 68.1118 383.9 68.5901 383.7 69C383.513 69.3975 383.257 69.7329 382.932 70.0062C382.607 70.2795 382.226 70.4845 381.789 70.6211C381.364 70.7453 380.921 70.8075 380.458 70.8075H376.504V61.0621ZM380.327 69.1491C380.802 69.1491 381.189 69.0186 381.489 68.7578C381.789 68.4969 381.939 68.1056 381.939 67.5839C381.939 67.0497 381.783 66.646 381.47 66.3727C381.158 66.087 380.783 65.9441 380.346 65.9441H378.528V69.1491H380.327Z" fill="#2E2C39"/>
</svg>
