<svg width="200" height="146" viewBox="0 0 200 146" fill="none" xmlns="http://www.w3.org/2000/svg">
    <path fill-rule="evenodd" clip-rule="evenodd" d="M31.457 18.1073L0 36.1009L0.0056979 72.9255L0.0120235 109.75L3.96139 111.993C6.13418 113.227 20.3987 121.384 35.6601 130.119L63.4095 146L80.2804 136.405C89.5601 131.128 97.7373 126.439 98.4532 125.985C99.6323 125.236 101.468 126.136 118.01 135.575C133.331 144.317 136.479 145.894 137.595 145.382C138.985 144.745 161.869 131.737 185.918 117.915L200 109.821L199.996 73.0305L199.992 36.2397L198.256 35.2483C197.301 34.7029 184.13 27.1785 168.987 18.5276C153.845 9.87608 140.316 2.16823 138.924 1.39857L136.392 0L118.249 10.3944L100.107 20.7895L82.0544 10.451C72.1259 4.76557 63.7576 0.113087 63.4582 0.113087C63.1589 0.113087 48.7582 8.21048 31.457 18.1073ZM71.7247 19.0189C78.962 23.2034 80.0639 23.6293 89.8551 26.0269L100.28 28.5796L109.69 26.4994C118.766 24.4926 119.41 24.2419 127.861 19.4292L136.622 14.4393L162.286 29.1093L187.95 43.7792L187.963 73.0166L187.975 102.255L163.133 116.486C149.47 124.313 137.821 130.897 137.246 131.115C136.579 131.368 133.37 129.878 128.399 127.006C121.043 122.755 120.004 122.354 110.159 119.954L99.7203 117.41L90.3101 119.49C81.2367 121.496 80.5873 121.749 72.157 126.55L63.4133 131.53L37.7329 116.87L12.0519 102.21L12.0386 72.9306L12.0253 43.6517L37.4924 29.1074C51.4994 21.1086 63.1981 14.5637 63.4892 14.5637C63.781 14.5637 67.4873 16.5686 71.7247 19.0189ZM52.457 25.7988C50.2601 27.9796 50 28.5702 50 31.3686C50 39.755 60.8367 42.8669 65.2152 35.7377C68.6285 30.1818 64.6892 23.3598 58.0677 23.3598C55.2487 23.3598 54.6538 23.618 52.457 25.7988ZM137.098 24.6717C133.523 27.4632 132.553 32.105 134.785 35.7377C139.163 42.8669 150 39.755 150 31.3686C150 28.5702 149.74 27.9796 147.543 25.7988C145.346 23.618 144.751 23.3598 141.932 23.3598C139.692 23.3598 138.291 23.7399 137.098 24.6717ZM78.481 25.2447C78.481 25.5902 78.7456 25.873 79.069 25.873C79.393 25.873 82.4544 27.1729 85.8728 28.7618L92.0886 31.6507L82.8551 33.7197C72.7323 35.9878 70.9601 36.7003 67.8342 39.76C64.7044 42.8229 63.9 44.7103 61.0696 55.6243L58.4867 65.5846L55.7095 59.2031C53.0703 53.1382 51.2101 50.2361 52.1038 53.5767C52.326 54.408 53.4095 59.0919 54.5114 63.9856L56.5146 72.8822L53.8905 83.2923C50.9291 95.0376 51.0519 94.3565 51.8987 94.3565C52.2468 94.3565 52.5316 94.0939 52.5316 93.7728C52.5316 93.4511 53.8411 90.4121 55.4418 87.0187L58.3519 80.8483L60.4361 90.0144C62.7209 100.063 63.4386 101.822 66.5209 104.926C69.607 108.033 71.507 108.831 82.5234 111.646L92.5778 114.215L85.8519 117.009C82.1525 118.545 79.1234 120.047 79.1202 120.347C79.1164 120.646 79.7544 120.722 80.538 120.515C81.3215 120.309 85.9949 119.245 90.9247 118.151L99.8867 116.163L110.373 118.767C122.205 121.707 121.519 121.585 121.519 120.745C121.519 120.399 121.254 120.116 120.931 120.116C120.607 120.116 117.546 118.816 114.127 117.227L107.911 114.339L117.145 112.27C127.268 110.002 129.04 109.289 132.166 106.229C135.296 103.166 136.1 101.279 138.93 90.365L141.513 80.4047L144.291 86.7862C146.93 92.8511 148.79 95.7532 147.896 92.4126C147.674 91.5813 146.591 86.8974 145.489 82.0037L143.485 73.1071L146.109 62.697C149.071 50.9518 148.948 51.6328 148.101 51.6328C147.753 51.6328 147.468 51.8954 147.468 52.2165C147.468 52.5382 146.159 55.5772 144.558 58.9706L141.648 65.141L139.564 55.9749C137.279 45.9261 136.561 44.1669 133.479 41.0637C130.393 37.9562 128.493 37.1583 117.477 34.3435L107.422 31.7745L114.148 28.9805C117.847 27.4443 120.877 25.9421 120.88 25.6424C120.884 25.3433 120.246 25.2673 119.462 25.474C118.678 25.6807 114.005 26.7444 109.075 27.8382L100.113 29.8268L89.6266 27.2219C77.7949 24.2821 78.481 24.404 78.481 25.2447ZM113.145 41.3553C120.361 44.6871 126.584 47.799 126.972 48.2715C127.361 48.7433 130.016 54.4576 132.873 60.9692L138.068 72.8093L131.747 86.2534L125.427 99.697L112.812 105.245L100.196 110.794L86.9652 104.685C79.688 101.325 73.4165 98.1903 73.0278 97.7178C72.6392 97.246 69.9842 91.5317 67.1272 85.0201L61.9323 73.18L68.2532 59.7359L74.574 46.2924L86.8127 40.8451C93.5437 37.8488 99.2696 35.3746 99.5373 35.3476C99.8044 35.3199 105.928 38.0234 113.145 41.3553ZM89.907 43.4318C89.2291 44.1047 88.2392 45.4907 87.707 46.5129C86.6019 48.634 85.1785 56.8445 85.6234 58.5321C85.8753 59.4883 85.407 59.7001 82.5177 59.9382C80.6462 60.0921 78.957 60.3755 78.7633 60.5677C78.5696 60.76 79.1 61.6559 79.9424 62.5581C81.0329 63.7255 82.1139 64.1986 83.6943 64.1986C85.8 64.1986 85.9354 64.3299 86.3247 66.7476C86.681 68.961 86.4696 69.6647 84.7158 72.088C83.6057 73.6236 82.5924 74.8795 82.4652 74.8795C82.338 74.8795 81.5367 74.4259 80.6848 73.8717C79.474 73.0845 78.7304 73.0047 77.2797 73.5067C76.2589 73.8598 75.2576 73.983 75.0538 73.7813C74.85 73.579 74.6842 73.8139 74.6848 74.3034C74.6854 74.7928 75.9203 75.9677 77.4285 76.9139L80.1715 78.6342L78.3652 82.2544C76.0329 86.9276 75.4386 91.5537 76.8279 94.2202C78.8962 98.1909 84.4475 98.3021 92.2108 94.5286C94.0601 93.6296 95.6658 93.0113 95.7791 93.154C95.8924 93.2972 96.7797 94.4746 97.7513 95.7701C99.7778 98.4737 100.633 98.7439 100.633 96.6812C100.633 95.8864 100.951 94.9207 101.34 94.5343C101.86 94.0178 101.693 93.4568 100.707 92.4057C98.9886 90.5748 99.0057 90.4598 101.25 88.8125C102.865 87.6275 103.631 87.4887 106.63 87.8386C109.827 88.2118 110.127 88.3808 110.127 89.8159C110.127 91.8302 113.213 94.8604 114.003 93.6227C114.297 93.1621 114.542 91.9112 114.547 90.8419L114.557 88.8979L119.613 88.188C125.066 87.4221 129.313 85.6547 130.359 83.7145C132.448 79.8386 129.693 74.5572 123.513 70.5915L119.862 68.2492L121.347 64.8859C122.164 63.0363 122.735 61.4266 122.617 61.3091C122.499 61.1922 121.387 61.2595 120.146 61.4593C118.37 61.7458 117.672 62.2779 116.861 63.9636L115.833 66.1048L113.487 65.1316C110.629 63.946 111.114 64.5096 109.536 60.5357L108.206 57.1863L110.116 56.4706C111.442 55.9737 112.025 55.3334 112.025 54.3741C112.025 53.6138 112.198 52.5451 112.409 51.9985C112.925 50.6665 111.873 50.745 108.677 52.2774C107.052 53.0572 105.938 53.2946 105.803 52.8913C105.168 51.0014 101.141 46.0404 98.788 44.2504C95.5753 41.8064 91.8867 41.4665 89.907 43.4318ZM96.893 48.3217C98.0228 49.2654 99.7437 51.2847 100.718 52.809L102.488 55.5804L99.1646 57.9427C96.1582 60.0795 95.557 60.2731 92.8576 59.9708C89.4316 59.5876 89.3209 59.2282 90.5671 52.5369C91.7696 46.0794 93.1266 45.1759 96.893 48.3217ZM116.772 49.1951C112.212 51.7773 112.09 57.246 116.542 59.531C118.832 60.7066 121.191 60.3051 123.259 58.3882C125.255 56.5385 125.239 52.3698 123.229 50.4956C121.446 48.8325 118.47 48.2331 116.772 49.1951ZM105.448 62.1416C105.318 62.2698 104.422 62.178 103.456 61.9374C101.785 61.5208 101.758 61.4567 102.899 60.6287C103.941 59.8716 104.203 59.8986 104.891 60.8329C105.327 61.4241 105.577 62.0128 105.448 62.1416ZM72.3778 61.6804C70.3589 62.489 68.9873 64.8124 68.9873 67.4242C68.9873 69.2406 69.4082 70.0932 70.9348 71.368C73.1665 73.2321 74.6133 73.388 77.2279 72.0459C79.3791 70.9414 80.3797 69.3474 80.3797 67.0259C80.3797 64.7044 79.3791 63.1104 77.2279 62.0059C75.162 60.9453 74.3481 60.8907 72.3778 61.6804ZM91.7721 64.4757C91.7721 64.6283 91.4873 64.9274 91.1392 65.141C90.7911 65.3547 90.5063 65.2296 90.5063 64.864C90.5063 64.4983 90.7911 64.1986 91.1392 64.1986C91.4873 64.1986 91.7721 64.323 91.7721 64.4757ZM103.294 66.4397L107.539 67.4789L108.435 71.336L109.332 75.1937L105.793 78.8063C103.847 80.7936 101.942 82.419 101.559 82.419C101.176 82.419 99.3968 81.9867 97.6044 81.4584L94.3468 80.4983L93.0595 76.2071C92.3513 73.8473 91.7721 71.5339 91.7721 71.0658C91.7721 69.7093 96.981 64.7905 98.0753 65.1128C98.612 65.2711 100.96 65.868 103.294 66.4397ZM97.6943 68.5677C92.8089 70.6103 93.5221 78.4551 98.6956 79.5835C100.837 80.0503 104.052 78.6405 105.044 76.7989C107.551 72.1502 102.542 66.5409 97.6943 68.5677ZM123.727 76.2787C128.562 80.4726 127.772 82.338 120.611 83.6272C114.557 84.7179 114.748 84.8184 114.409 80.3771C114.144 76.8938 114.296 76.1901 115.755 74.1501C117.396 71.8562 117.406 71.8531 119.214 72.8935C120.211 73.4678 122.242 74.9907 123.727 76.2787ZM88.5006 76.7305C89.1304 78.5223 89.1032 78.56 87.6589 77.9066C86.3943 77.3349 86.2797 77.0521 86.9063 76.0557C87.3133 75.4085 87.6924 74.8795 87.7487 74.8795C87.8051 74.8795 88.1437 75.7126 88.5006 76.7305ZM87.7626 82.5723C90.3633 83.7001 91.293 84.5219 92.3101 86.5927L93.5886 89.1951L89.9905 90.7602C85.4829 92.7198 83.1614 93.2633 81.5152 92.7443C80.4032 92.3943 80.2759 91.9753 80.5911 89.6958C80.9975 86.7498 83.226 81.1643 83.9962 81.1586C84.2703 81.1568 85.9646 81.7926 87.7626 82.5723ZM110.127 82.419C110.127 83.2867 109.704 83.6756 108.763 83.6756C107.439 83.6756 107.432 83.6385 108.544 82.419C109.174 81.7279 109.788 81.1624 109.908 81.1624C110.028 81.1624 110.127 81.7279 110.127 82.419ZM104.03 93.585C99.343 97.3534 101.609 103.781 107.624 103.781C109.516 103.781 110.356 103.378 111.653 101.848C113.53 99.6322 113.687 98.196 112.335 95.6005C110.671 92.4057 106.696 91.4412 104.03 93.585ZM54.0297 107.499C51.0709 109.29 50 111.197 50 114.675C50 117.41 50.2722 118.021 52.457 120.191C54.6538 122.371 55.2487 122.63 58.0677 122.63C61.5981 122.63 63.9392 121.24 65.519 118.207C69.262 111.022 60.9722 103.296 54.0297 107.499ZM137.531 107.525C130.349 111.872 133.484 122.63 141.932 122.63C144.751 122.63 145.346 122.371 147.543 120.191C149.74 118.01 150 117.419 150 114.621C150 108.048 143.128 104.137 137.531 107.525Z" fill="#2E2C39"/>
</svg>
