<svg width="220" height="275" viewBox="0 0 220 275" fill="none" xmlns="http://www.w3.org/2000/svg">
<path opacity="0.15" fill-rule="evenodd" clip-rule="evenodd" d="M19.163 129.779L0 107.958L10.8547 98.4271L38.3877 129.779H132.563L65.9718 63.1859L24.3335 65.8859L23.3982 51.4718L52.3765 49.5924L42.6653 39.8794L52.8794 29.6653L62.5923 39.3782L64.47 10.3982L78.8859 11.3335L76.1859 52.9735L142.777 119.563V25.3894L111.425 -2.14529L120.958 -13L142.777 6.16294V-7.57176H157.223V6.16294L179.044 -13L188.575 -2.14529L157.223 25.3894V119.563L223.816 52.9735L221.116 11.3335L235.53 10.3982L237.409 39.3782L247.122 29.6653L257.336 39.8794L247.624 49.5924L276.604 51.4718L275.668 65.8859L234.03 63.1859L167.437 129.779H261.612L289.147 98.4271L300 107.958L280.839 129.779H294.574V144.223H280.839L300 166.044L289.147 175.575L261.612 144.223H167.437L234.03 210.816L275.668 208.116L276.604 222.53L247.624 224.409L257.336 234.122L247.122 244.336L237.409 234.624L235.53 263.604L221.116 262.668L223.816 221.03L157.223 154.439V248.612L188.575 276.147L179.044 287L157.223 267.839V281.574H142.777V267.839L120.958 287L111.425 276.147L142.777 248.612V154.439L76.1859 221.03L78.8859 262.668L64.47 263.604L62.5923 234.624L52.8794 244.336L42.6653 234.122L52.3765 224.409L23.3982 222.53L24.3335 208.116L65.9718 210.816L132.563 144.223H38.3877L10.8547 175.575L0 166.044L19.163 144.223H5.42827V129.779H19.163Z" fill="#1E1E1E"/>
</svg>
