<svg width="176" height="275" viewBox="0 0 176 275" fill="none" xmlns="http://www.w3.org/2000/svg">
<path opacity="0.15" d="M97.4713 280.118C100.454 274.026 97.9374 266.668 91.8504 263.683C91.4952 263.509 91.1355 263.355 90.7729 263.218L89.7349 247.963C92.2951 246.837 94.4872 244.836 95.814 242.126C97.1521 239.393 97.3801 236.406 96.6787 233.672L109.703 224.915C110.277 225.334 110.893 225.713 111.554 226.037C116.327 228.378 121.879 227.333 125.491 223.835L139.653 230.78C139.113 235.774 141.689 240.795 146.457 243.133C152.543 246.118 159.896 243.6 162.878 237.508C165.861 231.415 163.345 224.057 157.258 221.072C152.49 218.734 146.946 219.773 143.334 223.261L129.16 216.31C129.692 211.322 127.116 206.311 122.354 203.976C121.699 203.654 121.029 203.401 120.352 203.205L119.284 187.498C121.872 186.377 124.09 184.367 125.428 181.634C126.767 178.9 126.995 175.914 126.293 173.18L139.317 164.422C139.891 164.842 140.507 165.22 141.168 165.544C145.942 167.885 151.494 166.84 155.105 163.342L169.502 170.402C168.962 175.396 171.538 180.418 176.306 182.756C182.393 185.741 189.745 183.222 192.727 177.13C194.075 174.376 194.297 171.365 193.575 168.614L206.498 159.924C206.958 160.234 207.442 160.518 207.953 160.768C212.721 163.106 218.264 162.067 221.877 158.579L236.641 165.82C235.706 171.077 238.295 176.53 243.324 178.997C249.411 181.982 256.763 179.463 259.745 173.371C262.728 167.279 260.211 159.92 254.124 156.935C249.628 154.73 244.444 155.531 240.838 158.555L225.558 151.06C226.098 146.066 223.521 141.045 218.754 138.707C218.242 138.456 217.721 138.247 217.196 138.073L216.134 122.472C218.723 121.352 220.943 119.341 222.281 116.607C223.605 113.902 223.843 110.949 223.168 108.238L235.262 100.106C235.834 100.523 236.447 100.899 237.105 101.222C243.192 104.207 250.544 101.689 253.527 95.5964C256.509 89.5041 253.993 82.1459 247.906 79.1608C241.819 76.1758 234.467 78.6943 231.484 84.7866C230.16 87.4916 229.922 90.4451 230.597 93.1557L218.503 101.288C217.931 100.871 217.317 100.494 216.66 100.171C211.892 97.8332 206.348 98.8727 202.736 102.36L188.395 95.3277C188.936 90.3335 186.359 85.3123 181.592 82.9741C180.934 82.6512 180.261 82.3971 179.581 82.2005L178.513 66.5131C181.101 65.3925 183.32 63.3816 184.658 60.6489C187.64 54.5566 185.124 47.1983 179.037 44.2133C174.269 41.8751 168.726 42.9146 165.114 46.4022L150.861 39.4124C151.401 34.4182 148.825 29.397 144.057 27.0588C143.4 26.7359 142.726 26.4818 142.046 26.2852L140.974 10.5217C143.527 9.39484 145.714 7.39637 147.038 4.69137C150.02 -1.40093 147.504 -8.75919 141.417 -11.7442C135.33 -14.7292 127.978 -12.2107 124.996 -6.11843C122.013 -0.0261291 124.529 7.33213 130.617 10.3171C131.275 10.64 131.947 10.8941 132.627 11.0908L133.7 26.8542C131.146 27.9811 128.96 29.9796 127.635 32.6846C126.311 35.3896 126.073 38.343 126.748 41.0537L113.645 49.865C113.073 49.4475 112.459 49.0712 111.801 48.7483C107.034 46.4101 101.49 47.4496 97.8778 50.9372L83.7103 43.9891C84.2508 38.9949 81.6742 33.9736 76.9067 31.6354C70.8196 28.6504 63.4677 31.1689 60.4852 37.2612C57.5028 43.3535 60.0191 50.7118 66.1062 53.6969C70.8737 56.0351 76.4175 54.9955 80.0293 51.5079L94.1973 58.4561C93.6569 63.4503 96.2334 68.4716 101.001 70.8098C101.658 71.1326 102.332 71.3867 103.012 71.5833L104.084 87.3468C101.531 88.4736 99.3442 90.4721 98.0202 93.1771C96.6962 95.8821 96.458 98.8356 97.133 101.546L84.4618 110.067C84.141 109.871 83.8105 109.687 83.4666 109.518C77.3795 106.533 70.0276 109.052 67.0451 115.144C64.0627 121.236 66.579 128.594 72.6661 131.579C72.9036 131.696 73.1434 131.801 73.3849 131.901L74.4692 147.839C71.9157 148.966 69.7292 150.965 68.4046 153.67C67.0806 156.375 66.8425 159.328 67.5174 162.039L46.8425 175.941L24.4798 164.974C25.0202 159.98 22.4436 154.959 17.6761 152.621C11.5891 149.636 4.23711 152.154 1.25469 158.246C-1.72776 164.339 0.788566 171.697 6.8756 174.682C11.6431 177.02 17.1863 175.981 20.7987 172.493L43.1614 183.46L44.8536 208.332C42.3001 209.459 40.1137 211.457 38.7896 214.162C35.8072 220.255 38.3235 227.613 44.4106 230.598C49.1781 232.936 54.7219 231.897 58.3342 228.409L72.5872 235.399C72.0474 240.393 74.6234 245.414 79.3909 247.752C80.0433 248.072 80.7116 248.325 81.3859 248.521L82.3795 263.127C79.4478 264.158 76.9021 266.295 75.4267 269.309C72.4443 275.401 74.9606 282.76 81.0476 285.745C87.1369 288.729 94.4889 286.21 97.4713 280.118ZM55.2133 208.535C54.5558 208.212 53.8825 207.958 53.2025 207.762L51.5103 182.89L72.1848 168.987C72.7567 169.405 73.3703 169.781 74.0278 170.104C78.7953 172.442 84.3391 171.403 87.9509 167.915L102.204 174.905C101.664 179.899 104.24 184.921 109.008 187.259C109.638 187.568 110.283 187.815 110.935 188.008L112.007 203.767C109.449 204.893 107.26 206.892 105.934 209.6C104.611 212.302 104.372 215.252 105.045 217.96L91.9663 226.754C91.4147 226.358 90.8247 225.999 90.1937 225.689C85.4256 223.351 79.8823 224.391 76.27 227.878L62.017 220.888C62.5574 215.895 59.9808 210.874 55.2133 208.535ZM89.0892 125.953C90.5703 122.928 90.6941 119.591 89.6994 116.632L101.8 108.495C102.372 108.913 102.985 109.289 103.643 109.612C108.41 111.95 113.954 110.911 117.566 107.423L131.82 114.413C131.28 119.407 133.856 124.429 138.623 126.767C139.254 127.076 139.899 127.323 140.55 127.516L141.622 143.275C139.064 144.401 136.874 146.4 135.548 149.108C134.226 151.81 133.987 154.76 134.659 157.468L121.581 166.262C121.029 165.866 120.439 165.507 119.809 165.197C115.041 162.859 109.498 163.899 105.886 167.386L91.6325 160.396C92.1724 155.402 89.5964 150.381 84.8289 148.043C84.1714 147.72 83.4981 147.466 82.8181 147.269L81.7958 132.248C84.87 131.267 87.5569 129.084 89.0892 125.953ZM117.424 65.184C118.748 62.479 118.986 59.5255 118.311 56.8149L131.415 48.0035C131.987 48.421 132.6 48.7974 133.258 49.1202C138.025 51.4584 143.569 50.4189 147.181 46.9313L161.434 53.9211C160.894 58.9153 163.471 63.9365 168.238 66.2747C168.869 66.584 169.513 66.8309 170.165 67.0241L171.236 82.7701C168.683 83.897 166.496 85.8954 165.172 88.6004C163.848 91.3054 163.61 94.2589 164.285 96.9695L151.196 105.771C150.645 105.374 150.055 105.015 149.424 104.706C144.656 102.368 139.112 103.407 135.501 106.895L121.248 99.905C121.787 94.9108 119.211 89.8895 114.444 87.5513C113.786 87.2285 113.113 86.9744 112.433 86.7777L111.361 71.0142C113.914 69.8868 116.1 67.889 117.424 65.184ZM205.861 122.233C206.491 122.542 207.135 122.789 207.786 122.982L208.829 138.32C206.091 139.406 203.732 141.477 202.335 144.333C200.936 147.189 200.747 150.323 201.567 153.155L188.828 161.721C188.292 161.34 187.719 160.994 187.108 160.694C182.341 158.356 176.797 159.396 173.185 162.883L158.777 155.817C159.308 150.829 156.732 145.818 151.97 143.483C151.343 143.175 150.702 142.929 150.053 142.736L148.981 126.971C151.534 125.844 153.721 123.846 155.045 121.141C156.369 118.436 156.607 115.482 155.932 112.772L169.021 103.971C169.572 104.367 170.162 104.726 170.793 105.035C175.56 107.374 181.104 106.334 184.716 102.847L199.057 109.88C198.517 114.874 201.093 119.895 205.861 122.233Z" fill="#1E1E1E"/>
</svg>
