<svg width="34" height="34" viewBox="0 0 34 34" fill="none" xmlns="http://www.w3.org/2000/svg">
    <path d="M9.06933 21.9263H10.6449L11.2033 21.3881C8.81006 18.5977 7.57356 14.7907 8.25164 10.7445C9.18899 5.20346 13.8159 0.778589 19.4001 0.100906C27.8362 -0.93555 34.9361 6.16019 33.899 14.5914C33.221 20.1723 28.7935 24.7965 23.2492 25.7333C19.2006 26.4109 15.3914 25.1752 12.5993 22.7834L12.0609 23.3414V24.9161L3.58485 33.3871C2.76717 34.2043 1.43095 34.2043 0.613266 33.3871C-0.204422 32.5699 -0.204422 31.2345 0.613266 30.4172L9.06933 21.9263ZM21.0355 21.9263C26.0014 21.9263 30.01 17.92 30.01 12.9569C30.01 7.99392 26.0014 3.98762 21.0355 3.98762C16.0695 3.98762 12.0609 7.99392 12.0609 12.9569C12.0609 17.92 16.0695 21.9263 21.0355 21.9263Z" fill="#2E2C39"/>
</svg>
