<svg width="26" height="26" viewBox="0 0 26 26" fill="none" xmlns="http://www.w3.org/2000/svg">
    <g clip-path="url(#clip0_1_153)">
        <path d="M25.5 13C25.5 19.9036 19.9036 25.5 13 25.5C6.09644 25.5 0.5 19.9036 0.5 13C0.5 6.09644 6.09644 0.5 13 0.5C19.9036 0.5 25.5 6.09644 25.5 13Z" stroke="#B6CFE0"/>
        <path d="M8.7998 13.9501L10.3421 18.2191C10.3421 18.2191 10.535 18.6185 10.7415 18.6185C10.9479 18.6185 14.0191 15.4236 14.0191 15.4236L17.4343 8.82715L8.85484 12.8482L8.7998 13.9501Z" fill="#C8DAEA"/>
        <path d="M10.8448 15.0449L10.5488 18.1916C10.5488 18.1916 10.4248 19.1557 11.3888 18.1916C12.3527 17.2274 13.2754 16.4839 13.2754 16.4839" fill="#A9C6D8"/>
        <path d="M8.8276 14.1028L5.65495 13.0691C5.65495 13.0691 5.27579 12.9153 5.39788 12.5664C5.42301 12.4945 5.47371 12.4333 5.62538 12.3281C6.32835 11.8381 18.6369 7.41409 18.6369 7.41409C18.6369 7.41409 18.9844 7.29699 19.1894 7.37488C19.2401 7.39057 19.2857 7.41946 19.3216 7.45857C19.3575 7.49769 19.3823 7.54563 19.3936 7.5975C19.4157 7.68912 19.425 7.78337 19.4211 7.87754C19.4201 7.95901 19.4103 8.03452 19.4028 8.15293C19.3278 9.36247 17.0844 18.3897 17.0844 18.3897C17.0844 18.3897 16.9502 18.9179 16.4693 18.936C16.3511 18.9398 16.2334 18.9198 16.1231 18.8771C16.0129 18.8345 15.9123 18.77 15.8275 18.6877C14.8838 17.876 11.6221 15.6839 10.9013 15.2019C10.8851 15.1908 10.8714 15.1763 10.8612 15.1595C10.851 15.1427 10.8445 15.1239 10.8422 15.1044C10.8321 15.0535 10.8873 14.9906 10.8873 14.9906C10.8873 14.9906 16.5668 9.94227 16.718 9.4123C16.7297 9.37124 16.6855 9.35099 16.6261 9.36897C16.2489 9.50775 9.70965 13.6373 8.98794 14.0931C8.93599 14.1088 8.88108 14.1121 8.8276 14.1028Z" fill="#FDFDFD"/>
    </g>
    <defs>
        <clipPath id="clip0_1_153">
            <rect width="26" height="26" fill="white"/>
        </clipPath>
    </defs>
</svg>
